<?xml version="1.0" encoding="utf-8"?>
<!-- Generator: Adobe Illustrator 19.2.1, SVG Export Plug-In . SVG Version: 6.00 Build 0)  -->
<svg version="1.1" id="Layer_1" xmlns="http://www.w3.org/2000/svg" xmlns:xlink="http://www.w3.org/1999/xlink" x="0px" y="0px"
	 width="300px" height="600px" viewBox="0 0 300 600" style="enable-background:new 0 0 300 600;" xml:space="preserve">
<style type="text/css">
	.st0{fill:#FFFFFF;}
</style>
<g>
	<path class="st0" d="M34.4,435.9l-5,38h-15l-5.7-38h10.5c1.2,10.5,2.1,19.3,2.6,26.6c0.5-7.3,1.1-13.8,1.6-19.5l0.7-7.1H34.4z"/>
	<path class="st0" d="M52.6,435.9l5.7,38H48.2l-0.5-6.9h-3.5l-0.5,6.9H33.3l5-38H52.6z M47.4,460.4c-0.5-4.4-1-9.6-1.5-16
		c-1,7.3-1.6,12.6-1.9,16H47.4z"/>
	<path class="st0" d="M91.2,435.9v38h-9.9v-16h-2.9v16h-9.9v-38h9.9v13.6h2.9v-13.6H91.2z"/>
	<path class="st0" d="M112.2,435.9l5.7,38h-10.1l-0.5-6.9h-3.5l-0.5,6.9H92.9l5-38H112.2z M107,460.4c-0.5-4.4-1-9.6-1.5-16
		c-1,7.3-1.6,12.6-1.9,16H107z"/>
	<path class="st0" d="M150,435.9v38h-8.6v-25.7l-3.5,25.7h-6.1l-3.6-25.1v25.1h-8.6v-38h12.7c0.3,2.3,0.8,5,1.2,8.1l1.4,9.7
		l2.3-17.8H150z"/>
	<path class="st0" d="M184.5,435.9v38h-8.6v-25.7l-3.5,25.7h-6.2l-3.6-25.1v25.1H154v-38h12.7c0.3,2.3,0.8,5,1.2,8.1l1.4,9.7
		l2.3-17.8H184.5z"/>
	<path class="st0" d="M205.6,435.9l5.7,38h-10.1l-0.5-6.9h-3.5l-0.5,6.9h-10.2l5-38H205.6z M200.3,460.4c-0.5-4.4-1-9.6-1.5-16
		c-1,7.3-1.6,12.6-1.9,16H200.3z"/>
	<path class="st0" d="M233.9,447.5h-9.2v-2.8c0-1.3-0.1-2.2-0.3-2.5c-0.2-0.3-0.7-0.5-1.2-0.5s-1.1,0.2-1.3,0.8
		c-0.3,0.4-0.4,1.2-0.4,2.2c0,1.3,0.2,2.2,0.5,2.8s1.3,1.4,2.8,2.3c4.4,2.6,7.2,4.8,8.3,6.4s1.7,4.4,1.7,8.1c0,2.7-0.3,4.7-1,6
		c-0.7,1.3-1.9,2.4-3.7,3.3s-3.9,1.3-6.3,1.3c-2.6,0-4.9-0.5-6.8-1.5s-3.1-2.3-3.7-3.8c-0.5-1.5-0.9-3.7-0.9-6.6v-2.4h9.2v4.6
		c0,1.4,0.1,2.3,0.4,2.7c0.2,0.4,0.8,0.7,1.4,0.7s1.2-0.2,1.4-0.8c0.3-0.5,0.4-1.3,0.4-2.3c0-2.3-0.3-3.7-0.9-4.4
		c-0.7-0.7-2.2-1.9-4.6-3.5c-2.5-1.6-4.1-2.8-4.9-3.6s-1.4-1.7-2-3.1c-0.5-1.3-0.8-2.9-0.8-5c0-2.9,0.3-5,1.1-6.4
		c0.8-1.3,2-2.4,3.6-3.2c1.6-0.8,3.7-1.1,6-1.1c2.6,0,4.8,0.4,6.5,1.2c1.9,0.9,3.1,1.9,3.6,3.2c0.5,1.3,0.9,3.4,0.9,6.4v1.6H233.9z"
		/>
	<path class="st0" d="M247.6,435.9v38h-9.9v-38H247.6z"/>
	<path class="st0" d="M273.8,435.9v38H265l-5.1-17.3v17.3h-8.3v-38h8.3l5.6,17.1v-17.1H273.8z"/>
	<path class="st0" d="M287.6,435.9v38h-9.9v-38H287.6z"/>
</g>
</svg>
