<?xml version="1.0" encoding="utf-8"?>
<!-- Generator: Adobe Illustrator 19.2.1, SVG Export Plug-In . SVG Version: 6.00 Build 0)  -->
<svg version="1.1" id="Layer_1" xmlns="http://www.w3.org/2000/svg" xmlns:xlink="http://www.w3.org/1999/xlink" x="0px" y="0px"
	 width="300px" height="600px" viewBox="0 0 300 600" style="enable-background:new 0 0 300 600;" xml:space="preserve">
<style type="text/css">
	.st0{fill:#FFFFFF;}
</style>
<g>
	<path class="st0" d="M24.4,501.8c0,2.7-0.1,4.7-0.2,5.9c-0.1,1.2-0.5,2.2-1.2,3.2c-0.7,1-1.6,1.6-2.8,2.2c-1.2,0.5-2.5,0.8-4.1,0.8
		c-1.5,0-2.8-0.2-4-0.8c-1.2-0.5-2.1-1.2-2.8-2.2c-0.8-1-1.1-2.1-1.3-3.2c-0.1-1.1-0.2-3.2-0.2-6V497c0-2.7,0.1-4.7,0.2-5.9
		C8,490,8.4,489,9,488c0.7-1,1.6-1.6,2.8-2.2c1.2-0.5,2.5-0.8,4.1-0.8c1.5,0,2.8,0.2,4,0.8c1.2,0.5,2.1,1.2,2.8,2.2
		c0.8,1,1.1,2.1,1.3,3.2c0.1,1.1,0.2,3.2,0.2,6V501.8z M17.2,492.8c0-1.3-0.1-2.1-0.2-2.5c-0.1-0.3-0.4-0.5-0.9-0.5
		c-0.3,0-0.7,0.1-0.9,0.4c-0.2,0.3-0.3,1.2-0.3,2.6v12.9c0,1.6,0.1,2.6,0.2,2.9s0.4,0.5,0.9,0.5c0.4,0,0.8-0.2,1-0.7
		c0.1-0.4,0.2-1.4,0.2-3.1C17.2,505.4,17.2,492.8,17.2,492.8z"/>
	<path class="st0" d="M30.9,485.7v2.5c0,1.3-0.1,2.4-0.4,3.2c-0.3,0.8-0.9,1.5-1.6,2.1s-1.6,1-2.6,1.2v-2c0.7-0.3,1.1-0.9,1.2-1.5
		h-1.2v-5.4H30.9z"/>
	<path class="st0" d="M45,485.7v5.6l-5.3,16.4H45v5.6H31.7v-4l5.6-18.1h-4.9v-5.6H45C45,485.6,45,485.7,45,485.7z"/>
	<path class="st0" d="M53.9,485.7v27.6h-7.2v-27.6H53.9z"/>
	<path class="st0" d="M72.9,485.7v27.6h-6.3l-3.7-12.5v12.5h-6v-27.6h6l4,12.4v-12.4H72.9z"/>
	<path class="st0" d="M92.2,495.8H85v-2.5c0-1.5-0.1-2.6-0.2-2.9c-0.1-0.4-0.4-0.5-1-0.5c-0.4,0-0.8,0.2-0.9,0.5s-0.2,1.2-0.2,2.6
		v13.3c0,1.2,0.1,2.1,0.2,2.4c0.1,0.4,0.4,0.5,1,0.5s0.9-0.2,1.1-0.7c0.2-0.4,0.3-1.3,0.3-2.6v-3.3h-1.4v-4.1h8.3v14.8h-4.5l-0.7-2
		c-0.4,0.9-1.1,1.5-1.9,2c-0.8,0.4-1.6,0.7-2.6,0.7c-1.2,0-2.3-0.3-3.4-0.9c-1.1-0.5-1.9-1.3-2.4-2.2c-0.5-0.9-0.9-1.7-1-2.7
		s-0.2-2.4-0.2-4.2v-8.2c0-2.6,0.1-4.6,0.4-5.8c0.3-1.2,1.1-2.3,2.4-3.3c1.3-1,3.1-1.5,5.2-1.5c2.1,0,3.8,0.4,5.2,1.3
		c1.4,0.9,2.3,1.9,2.7,3.1c0.4,1.2,0.7,2.9,0.7,5.1v1.1L92.2,495.8L92.2,495.8z"/>
	<path class="st0" d="M115.6,485.7v5.6h-4.2v22.1h-7.2v-22.1h-4.2v-5.6H115.6L115.6,485.7z"/>
	<path class="st0" d="M133.6,485.7v18.4c0,2.1-0.1,3.6-0.2,4.4c-0.1,0.9-0.5,1.7-1.2,2.6s-1.5,1.5-2.6,2.1c-1.1,0.4-2.4,0.7-3.9,0.7
		c-1.6,0-3.1-0.2-4.4-0.9c-1.3-0.5-2.2-1.3-2.8-2.2c-0.7-0.9-1-1.9-1.1-2.7c-0.1-1-0.2-3.1-0.2-6.1v-16.3h7.2v20.7
		c0,1.2,0.1,2,0.2,2.3c0.1,0.3,0.4,0.5,0.8,0.5c0.4,0,0.8-0.2,0.9-0.5c0.1-0.3,0.2-1.2,0.2-2.6v-20.4h7.2V485.7z"/>
	<path class="st0" d="M151.5,494h-6.6v-2.1c0-1-0.1-1.5-0.2-1.9c-0.2-0.2-0.4-0.4-0.9-0.4c-0.4,0-0.8,0.2-1,0.5
		c-0.2,0.3-0.3,0.9-0.3,1.6c0,0.9,0.1,1.6,0.3,2.1c0.2,0.4,0.9,1,2.1,1.6c3.2,1.9,5.2,3.5,6,4.7c0.9,1.2,1.2,3.2,1.2,5.9
		c0,2-0.2,3.4-0.7,4.4c-0.4,1-1.3,1.7-2.6,2.4c-1.3,0.7-2.8,1-4.6,1c-2,0-3.6-0.3-4.9-1.1c-1.3-0.8-2.3-1.6-2.6-2.7
		c-0.4-1.1-0.7-2.7-0.7-4.8v-1.9h6.6v3.4c0,1,0.1,1.7,0.3,2c0.2,0.3,0.5,0.4,1,0.4c0.4,0,0.9-0.2,1.1-0.5c0.2-0.3,0.3-1,0.3-1.6
		c0-1.6-0.2-2.7-0.7-3.2c-0.4-0.5-1.5-1.3-3.4-2.5c-1.7-1.2-2.9-2.1-3.6-2.6c-0.5-0.5-1.1-1.3-1.4-2.2c-0.3-1-0.5-2.2-0.5-3.6
		c0-2.1,0.2-3.7,0.8-4.7c0.5-1,1.4-1.7,2.6-2.3c1.2-0.5,2.6-0.9,4.4-0.9c1.9,0,3.5,0.3,4.8,0.9c1.3,0.7,2.2,1.3,2.6,2.3
		c0.4,0.9,0.7,2.5,0.7,4.7L151.5,494L151.5,494z"/>
	<path class="st0" d="M170.8,485.7v27.6h-7.2v-11.5h-2.2v11.5h-7.2v-27.6h7.2v9.9h2.2v-9.9L170.8,485.7L170.8,485.7z"/>
	<path class="st0" d="M190,485.7v18.4c0,2.1-0.1,3.6-0.2,4.4c-0.1,0.8-0.5,1.7-1.2,2.6s-1.5,1.5-2.6,2.1c-1.1,0.4-2.4,0.7-3.9,0.7
		c-1.6,0-3.1-0.2-4.4-0.9c-1.3-0.5-2.2-1.3-2.8-2.2s-1-1.9-1.1-2.7c-0.1-1-0.2-3.1-0.2-6.1v-16.3h7.2v20.7c0,1.2,0.1,2,0.2,2.3
		c0.1,0.3,0.4,0.5,0.8,0.5c0.4,0,0.8-0.2,0.9-0.5c0.1-0.3,0.2-1.2,0.2-2.6v-20.4h7.2V485.7z"/>
	<path class="st0" d="M208.8,485.7v27.6h-6.3l-3.7-12.5v12.5h-6v-27.6h6l4,12.4v-12.4H208.8z"/>
	<path class="st0" d="M218.9,485.7v27.6h-7.2v-27.6H218.9z"/>
	<path class="st0" d="M221.7,485.7h7.2c2.3,0,3.9,0.2,5.1,0.5c1.2,0.3,2.1,1.1,2.8,2.2c0.8,1.1,1.1,2.8,1.1,5.2
		c0,1.6-0.2,2.7-0.8,3.4c-0.5,0.7-1.5,1.1-2.9,1.4c1.6,0.3,2.8,1,3.4,1.9c0.5,0.9,0.9,2.2,0.9,4v2.5c0,1.9-0.2,3.3-0.7,4.1
		c-0.4,0.9-1.1,1.5-2.1,1.9c-1,0.3-2.8,0.5-5.8,0.5h-8.3L221.7,485.7L221.7,485.7z M228.9,490.4v6.1c0.3,0,0.5,0,0.8,0
		c0.7,0,1.2-0.2,1.3-0.5c0.2-0.3,0.3-1.3,0.3-2.9c0-0.9-0.1-1.4-0.2-1.9c-0.1-0.3-0.3-0.5-0.7-0.7
		C230.2,490.5,229.6,490.4,228.9,490.4z M228.9,500.8v7.7c1,0,1.6-0.2,2-0.4c0.3-0.3,0.4-1,0.4-2.1v-2.7c0-1.2-0.1-1.9-0.3-2.2
		C230.6,501,230,500.8,228.9,500.8z"/>
	<path class="st0" d="M262.4,485.7l-5.2,17.6v10h-6.6v-10l-5-17.6h6.5c1,5.3,1.6,9,1.7,10.9c0.4-2.9,1.1-6.5,2-10.9H262.4z"/>
	<path class="st0" d="M263.6,485.7h12v5.6h-4.8v5.2h4.5v5.2h-4.5v6.1h5.2v5.6h-12.4V485.7z"/>
	<path class="st0" d="M292.2,485.7v5.6h-4.2v22.1h-7.2v-22.1h-4.2v-5.6H292.2L292.2,485.7z"/>
</g>
</svg>
