<?xml version="1.0" encoding="utf-8"?>
<!-- Generator: Adobe Illustrator 19.2.1, SVG Export Plug-In . SVG Version: 6.00 Build 0)  -->
<svg version="1.1" id="Layer_1" xmlns="http://www.w3.org/2000/svg" xmlns:xlink="http://www.w3.org/1999/xlink" x="0px" y="0px"
	 width="300px" height="300px" viewBox="0 0 300 300" style="enable-background:new 0 0 300 300;" xml:space="preserve">
<style type="text/css">
	.st0{fill:#FFFFFF;}
</style>
<g>
	<path class="st0" d="M67.5,235.1h5.8l1.5-7.2h3.5l-1.5,7.2h6.6l1.5-7.2h3.5l-1.5,7.2h3.1v3.6h-3.9l-1.2,5.7h5v3.5h-5.8L83,255h-3.6
		l1.5-7.1h-6.6l-1.5,7.1h-3.6l1.5-7.1h-3.2v-3.5h3.9l1.2-5.7h-5.1V235.1z M76.2,238.6l-1.2,5.7h6.6l1.2-5.7H76.2z"/>
	<path class="st0" d="M110.5,255v3.7h-6c-1.4,0-2.5-0.1-3-0.3c-0.6-0.2-1-0.6-1.2-1c-0.2-0.4-0.3-1.2-0.3-2.4
		c-1.8,0-3.3-0.5-4.6-1.4c-1.3-0.9-2.1-2-2.6-3.4c-0.4-1.4-0.6-3.4-0.6-6.1v-9.4c0-2.1,0.1-3.6,0.4-4.7s0.7-2.1,1.5-3.1
		c0.8-1,1.7-1.7,2.9-2.2c1.2-0.5,2.5-0.7,4-0.7c1.8,0,3.3,0.3,4.7,0.9c1.4,0.6,2.4,1.4,3.1,2.3c0.7,0.9,1.1,1.9,1.3,2.9
		c0.2,1,0.3,2.5,0.3,4.4v9.9c0,2.7-0.1,4.5-0.4,5.5c-0.3,1-0.8,1.7-1.5,2.3c-0.7,0.6-1.7,1-3,1.3c0,0.7,0.2,1.1,0.4,1.3
		c0.2,0.2,0.8,0.3,1.7,0.3H110.5z M102.6,232.4c0-1.4-0.1-2.3-0.2-2.7c-0.2-0.4-0.5-0.6-1-0.6c-0.4,0-0.7,0.2-0.9,0.5
		c-0.2,0.3-0.3,1.3-0.3,2.8v14.2c0,1.8,0.1,2.9,0.2,3.3c0.1,0.4,0.5,0.6,1,0.6c0.5,0,0.9-0.2,1-0.7c0.2-0.5,0.2-1.6,0.2-3.4V232.4z"
		/>
	<path class="st0" d="M127.1,224.6l4.5,30.4h-8.1l-0.4-5.5h-2.8l-0.5,5.5h-8.2l4-30.4H127.1z M122.9,244.1
		c-0.4-3.4-0.8-7.7-1.2-12.8c-0.8,5.8-1.3,10.1-1.5,12.8H122.9z"/>
	<path class="st0" d="M133,224.6h5.6c3.7,0,6.2,0.1,7.6,0.4c1.3,0.3,2.4,1,3.2,2.2c0.8,1.2,1.2,3.1,1.2,5.7c0,2.4-0.3,4-0.9,4.8
		c-0.6,0.8-1.7,1.3-3.5,1.5c1.6,0.4,2.6,0.9,3.2,1.6c0.5,0.7,0.9,1.2,1,1.8c0.1,0.5,0.2,2,0.2,4.5v8h-7.3v-10.1c0-1.6-0.1-2.6-0.4-3
		c-0.3-0.4-0.9-0.6-2-0.6V255H133V224.6z M140.9,229.8v6.8c0.9,0,1.5-0.1,1.9-0.4c0.4-0.2,0.5-1,0.5-2.4v-1.7c0-1-0.2-1.6-0.5-1.9
		C142.4,229.9,141.8,229.8,140.9,229.8z"/>
	<path class="st0" d="M161.6,224.6v24.3h4.8v6.1h-12.7v-30.4H161.6z"/>
	<path class="st0" d="M176.2,224.6V255h-7.9v-30.4H176.2z"/>
	<path class="st0" d="M196.1,233.8h-7.3v-2.3c0-1.1-0.1-1.7-0.3-2c-0.2-0.3-0.5-0.4-0.9-0.4c-0.5,0-0.8,0.2-1.1,0.6
		c-0.2,0.4-0.4,1-0.4,1.8c0,1,0.1,1.8,0.4,2.3c0.3,0.5,1,1.1,2.2,1.9c3.5,2.1,5.7,3.8,6.6,5.1c0.9,1.3,1.4,3.5,1.4,6.5
		c0,2.2-0.3,3.8-0.8,4.8c-0.5,1-1.5,1.9-2.9,2.6c-1.4,0.7-3.1,1-5.1,1c-2.1,0-3.9-0.4-5.4-1.2c-1.5-0.8-2.5-1.8-2.9-3.1
		s-0.7-3-0.7-5.3v-2h7.3v3.7c0,1.1,0.1,1.9,0.3,2.2c0.2,0.3,0.6,0.5,1.1,0.5c0.5,0,0.9-0.2,1.2-0.6c0.3-0.4,0.4-1,0.4-1.8
		c0-1.8-0.2-3-0.7-3.5c-0.5-0.6-1.7-1.5-3.7-2.8c-2-1.3-3.3-2.2-3.9-2.8c-0.6-0.6-1.2-1.4-1.6-2.4c-0.4-1-0.6-2.4-0.6-4
		c0-2.3,0.3-4,0.9-5.1c0.6-1.1,1.6-1.9,2.9-2.5c1.3-0.6,2.9-0.9,4.8-0.9c2.1,0,3.8,0.3,5.2,1c1.4,0.7,2.4,1.5,2.9,2.5
		c0.5,1,0.7,2.7,0.7,5.1V233.8z"/>
	<path class="st0" d="M212.9,224.6l4.5,30.4h-8.1l-0.4-5.5h-2.8l-0.5,5.5h-8.2l4-30.4H212.9z M208.7,244.1
		c-0.4-3.4-0.8-7.7-1.2-12.8c-0.8,5.8-1.3,10.1-1.5,12.8H208.7z"/>
	<path class="st0" d="M232.5,224.6v6.1h-4.7V255h-7.9v-24.3h-4.7v-6.1H232.5z"/>
</g>
</svg>
