<?xml version="1.0" encoding="utf-8"?>
<!-- Generator: Adobe Illustrator 19.2.1, SVG Export Plug-In . SVG Version: 6.00 Build 0)  -->
<svg version="1.1" id="Layer_1" xmlns="http://www.w3.org/2000/svg" xmlns:xlink="http://www.w3.org/1999/xlink" x="0px" y="0px"
	 width="482px" height="90px" viewBox="0 0 482 90" style="enable-background:new 0 0 482 90;" xml:space="preserve">
<style type="text/css">
	.st0{fill:#38B5E6;}
</style>
<g>
	<path class="st0" d="M56.5,62.9h-9.3V34.2h-2.8v28.7H35V27.1h21.5V62.9z"/>
	<path class="st0" d="M81.5,48.1c0,3.6-0.1,6.2-0.3,7.6c-0.2,1.5-0.7,2.9-1.6,4.1C78.7,61,77.5,62,76,62.7s-3.3,1-5.3,1
		c-1.9,0-3.6-0.3-5.2-0.9c-1.5-0.6-2.8-1.6-3.7-2.8c-0.9-1.3-1.5-2.6-1.7-4.1s-0.3-4.1-0.3-7.7v-6.1c0-3.6,0.1-6.2,0.3-7.6
		c0.2-1.5,0.7-2.9,1.6-4.1c0.9-1.2,2.1-2.2,3.6-2.9c1.5-0.7,3.3-1,5.3-1c1.9,0,3.6,0.3,5.2,0.9c1.5,0.6,2.8,1.6,3.7,2.8
		c0.9,1.3,1.5,2.6,1.7,4.1s0.3,4.1,0.3,7.7C81.5,42,81.5,48.1,81.5,48.1z M72.2,36.3c0-1.7-0.1-2.7-0.3-3.2
		c-0.2-0.5-0.6-0.7-1.1-0.7s-0.9,0.2-1.1,0.6c-0.3,0.4-0.4,1.5-0.4,3.3V53c0,2.1,0.1,3.4,0.3,3.9c0.2,0.5,0.6,0.7,1.2,0.7
		s1-0.3,1.2-0.8s0.3-1.9,0.3-4L72.2,36.3L72.2,36.3z"/>
	<path class="st0" d="M107.7,62.9h-9.3V34.2h-2.7v20.3c0,2.7-0.3,4.6-1,5.8s-1.7,1.9-3.1,2.2s-3.6,0.4-6.7,0.4h-1.5v-6.2
		c1.1,0,1.9-0.1,2.3-0.4c0.4-0.3,0.6-1.2,0.6-2.9V27.1h21.4C107.7,27.1,107.7,62.9,107.7,62.9z"/>
	<path class="st0" d="M129.9,27.1l-2.5,23.8c-0.4,3.7-0.8,6.4-1.3,7.9s-1.3,2.6-2.7,3.2c-1.3,0.6-3.5,1-6.5,1h-5.4v-4.6h0.6
		c1.2,0,2-0.1,2.3-0.3s0.4-0.5,0.4-0.9c0,0-0.2-1-0.5-3l-4.9-27h8.1l3,22.3l1.4-22.3h8V27.1z"/>
	<path class="st0" d="M144.5,49.2c-0.8,0.8-1.7,1.4-2.9,1.9s-2.4,0.7-3.7,0.7c-2.2,0-3.8-0.6-4.9-1.9c-1-1.2-1.5-3.2-1.5-5.8v-17
		h9.3v16.1c0,1.4,0.1,2.4,0.4,2.9c0.2,0.5,0.6,0.8,1.2,0.8c1.4,0,2.1-1.2,2.1-3.6V27.1h9.3V63h-9.3L144.5,49.2L144.5,49.2z"/>
	<path class="st0" d="M178.4,62.9h-7.8V46.6l-4.8,16.3h-8.2V27.1h7.8v16.2l5.2-16.2h7.8V62.9z"/>
	<path class="st0" d="M200.8,27.1v7.2h-5.5V63H186V34.3h-5.5v-7.2C180.5,27.1,200.8,27.1,200.8,27.1z"/>
	<path class="st0" d="M224.7,54.5c0,2.7-0.3,4.6-1,5.8s-1.7,1.9-3.2,2.2c-1.4,0.3-3.7,0.4-6.7,0.4H203V27.1h9.3v12.3h1.4
		c2.9,0,5.1,0.2,6.5,0.5c1.5,0.3,2.6,1.1,3.3,2.2c0.7,1.2,1.1,3,1.1,5.5L224.7,54.5L224.7,54.5z M215.4,53.4v-5.2
		c0-1.5-0.2-2.4-0.5-2.7s-1.2-0.5-2.6-0.6v11.8c1.2,0,2-0.2,2.4-0.5C215.1,56,215.4,55,215.4,53.4z"/>
	<path class="st0" d="M257.7,54.5c0,2.7-0.3,4.6-1,5.8s-1.7,1.9-3.2,2.2c-1.4,0.3-3.7,0.4-6.7,0.4H236V27.1h18.3v6.2h-8.9v6.1h1.4
		c2.9,0,5.1,0.2,6.5,0.5c1.5,0.3,2.6,1.1,3.3,2.2c0.7,1.2,1.1,3,1.1,5.5V54.5z M248.4,53.4v-5.2c0-1.5-0.2-2.4-0.5-2.7
		s-1.2-0.5-2.6-0.6v11.8c1.2,0,2-0.2,2.4-0.5C248.2,56,248.4,55,248.4,53.4z"/>
	<path class="st0" d="M261,27.1h15.5v7.2h-6.2V41h5.8v6.8h-5.8v7.9h6.8v7.2H261V27.1z"/>
	<path class="st0" d="M301.6,42.7h-9.3v-6.2c0-1.8-0.1-2.9-0.3-3.4c-0.2-0.4-0.6-0.7-1.3-0.7c-0.8,0-1.3,0.3-1.5,0.8
		s-0.3,1.7-0.3,3.5v16.6c0,1.7,0.1,2.9,0.3,3.4c0.2,0.5,0.7,0.8,1.4,0.8c0.7,0,1.1-0.3,1.4-0.8c0.2-0.5,0.3-1.8,0.3-3.8v-4.5h9.3
		v1.4c0,3.7-0.3,6.3-0.8,7.9c-0.5,1.6-1.7,2.9-3.5,4.1c-1.8,1.2-4,1.8-6.6,1.8c-2.7,0-5-0.5-6.8-1.5s-2.9-2.4-3.5-4.1
		c-0.6-1.7-0.9-4.4-0.9-7.9V39.7c0-2.6,0.1-4.5,0.3-5.8c0.2-1.3,0.7-2.5,1.6-3.7s2.1-2.1,3.7-2.8c1.6-0.7,3.3-1,5.4-1
		c2.7,0,5,0.5,6.8,1.6s3,2.4,3.5,4s0.8,4,0.8,7.4V42.7z"/>
	<path class="st0" d="M326.4,62.9h-9.3V34.2h-2.8v28.7H305V27.1h21.5v35.8H326.4z"/>
	<path class="st0" d="M352.9,62.9h-9.3V34.2h-2.7v20.3c0,2.7-0.3,4.6-1,5.8s-1.7,1.9-3.1,2.2s-3.6,0.4-6.7,0.4h-1.5v-6.2
		c1.1,0,1.9-0.1,2.3-0.4c0.4-0.3,0.6-1.2,0.6-2.9V27.1h21.4L352.9,62.9L352.9,62.9z"/>
	<path class="st0" d="M372.7,27.1l5.3,35.8h-9.5l-0.5-6.4h-3.3l-0.6,6.4h-9.6l4.8-35.8C359.3,27.1,372.7,27.1,372.7,27.1z
		 M367.8,50.1c-0.5-4.1-0.9-9.1-1.4-15.1c-0.9,6.9-1.5,11.9-1.8,15.1H367.8z"/>
	<path class="st0" d="M398.4,27.1v7.2h-5.5V63h-9.3V34.3H378v-7.2C378,27.1,398.4,27.1,398.4,27.1z"/>
	<path class="st0" d="M422,27.1v35.8h-9.3v-15h-2.8V63h-9.3V27.1h9.3v12.8h2.8V27.1H422z"/>
	<path class="st0" d="M447,48.1c0,3.6-0.1,6.2-0.3,7.6c-0.2,1.5-0.7,2.9-1.6,4.1c-0.9,1.2-2.1,2.2-3.6,2.9s-3.3,1-5.3,1
		c-1.9,0-3.6-0.3-5.2-0.9c-1.5-0.6-2.8-1.6-3.7-2.8c-0.9-1.3-1.5-2.6-1.7-4.1s-0.3-4.1-0.3-7.7v-6.1c0-3.6,0.1-6.2,0.3-7.6
		c0.2-1.5,0.7-2.9,1.6-4.1s2.1-2.2,3.6-2.9c1.5-0.7,3.3-1,5.3-1c1.9,0,3.6,0.3,5.2,0.9c1.5,0.6,2.8,1.6,3.7,2.8
		c0.9,1.3,1.5,2.6,1.7,4.1s0.3,4.1,0.3,7.7V48.1z M437.7,36.3c0-1.7-0.1-2.7-0.3-3.2c-0.2-0.5-0.6-0.7-1.1-0.7s-0.9,0.2-1.1,0.6
		c-0.3,0.4-0.4,1.5-0.4,3.3V53c0,2.1,0.1,3.4,0.3,3.9c0.2,0.5,0.6,0.7,1.2,0.7s1-0.3,1.2-0.8c0.2-0.6,0.3-1.9,0.3-4V36.3H437.7z"/>
</g>
</svg>
