<?xml version="1.0" encoding="utf-8"?>
<!-- Generator: Adobe Illustrator 19.2.1, SVG Export Plug-In . SVG Version: 6.00 Build 0)  -->
<svg version="1.1" id="Layer_1" xmlns="http://www.w3.org/2000/svg" xmlns:xlink="http://www.w3.org/1999/xlink" x="0px" y="0px"
	 width="410px" height="100px" viewBox="0 0 410 100" style="enable-background:new 0 0 410 100;" xml:space="preserve">
<style type="text/css">
	.st0{fill:#E20613;}
	.st1{fill:#FFFFFF;}
	.st2{fill:#200090;}
</style>
<g>
	<g>
		<path class="st0" d="M349,99.9c21.3,0,30-14.5,33-23.3l27.5-76.7H61c-21.2,0-29.8,14.4-33,23.3L0.5,99.9H349z"/>
		<path class="st1" d="M61,9c-10,0-19.8,4.3-24.4,17.2L13.5,90.8H349c10,0,19.8-4.3,24.4-17.2L396.5,9H61z"/>
		<path class="st2" d="M309.6,83.5l20.5-56.3l9.4,0l4.4-11.4l-35.2,0l-4.4,11.4l9.6,0l-20.7,56.3L309.6,83.5z M307.2,25.9h-1.1
			l3.3-8.9l1.1,0L307.2,25.9z M315.2,27.2h1l-20.3,55.1h-1.1L315.2,27.2z"/>
		<path class="st2" d="M222,15.8l-16.2,0l-10,19.1l1.5-19.1l-15.3,0l-1.1,42.3l-14.6,25.5l17,0L222,15.8z M195.5,37.5l11-20.5h1.1
			l-12.3,22.8L195.5,37.5z M169.5,82.5h-1.2l13.7-24l1-41.4h1.1l-1,41.8L169.5,82.5z"/>
		<path class="st2" d="M92.4,83.9c14,0,17.5-4.4,20.6-12.9l14.8-40.6c3.2-8.5,0.6-14.7-12.2-14.8c-14,0-17.5,4.4-20.7,12.9
			L80.2,69.2C77,77.7,79.6,83.9,92.4,83.9 M94.7,70.8l15-41c0.8-2,1.2-2.6,2.8-2.6c1.1,0,1.3,1,0.7,2.8L98.3,70.6
			c-0.7,1.9-1.2,2.9-2.9,2.9C94,73.5,94.1,72.3,94.7,70.8 M115.3,30.3L100.4,71c-0.7,1.7-1.3,3.5-4.4,3.5c2.1-0.3,2.8-2,3.3-3.5
			l14.9-40.7c0.8-2,0.8-3.8-1.3-4.2C115.9,26.1,116.2,28,115.3,30.3 M95.4,31.2c4.2-11.5,7.4-14.4,20.1-14.4
			c-12.2,0.3-15.1,3.6-19,14.4L82.4,69.6c-2.9,7.7-1.1,13.1,10.7,13.2h-0.7c-12.1,0-13.9-5.5-11.1-13.2L95.4,31.2z"/>
		<path class="st2" d="M118.7,72.5l-4.1,11.2l20.4,0l20.9-56.6l3.8,0l-20.9,56.6l15.8,0l24.9-67.9l-35.6,0l-20.8,56.6L118.7,72.5z
			 M117.3,82.5l-1.1,0l3.4-9.2l1.1,0L117.3,82.5z M162,27.1l-20.5,55.5l-1.1,0L161,27.1L162,27.1z M144.7,17h1l-20.3,55.5l-1.1,0
			L144.7,17z"/>
		<path class="st2" d="M47.7,84l20.8-56.9l3.8,0L51.5,84l15.8,0l25-68.1l-35.7,0L31.6,84L47.7,84z M74.6,27.2L54.2,82.8l-1.1,0
			l20.4-55.7L74.6,27.2z M57.4,17.1h1.1L34.3,82.9l-1.1,0L57.4,17.1z"/>
		<path class="st2" d="M255.3,83.7l20.5-31.9l-12.1,31.8l14.7,0l25.1-67.8l-14.8,0l-20.5,31.9l12.4-31.8l-14.6,0l-25.4,67.8
			L255.3,83.7z M266.2,82.5l-1.1,0l14.1-36l2.7-4.2L266.2,82.5z M289.3,17l1.1,0l-25.6,39.7l1.5-4.1L289.3,17z M266.8,17h1.1
			l-24.3,65.5l-1.1,0L266.8,17z"/>
		<path class="st2" d="M234.8,83.7l24.9-67.9l-15.1,0L233,47.7h-0.3c-1.8,0-3.2-1.1-1.9-4.5l9.9-27.4h-14.9l-10,27.7
			c-2.9,7.9,1.7,14.7,12.4,14.7l1.1,0l-9.7,25.4L234.8,83.7z M245.5,17h1.1l-11.2,30.7l-1.1,0L245.5,17z M217.1,43.3l9.6-26.3h1.1
			l-9.6,26.3c-2.7,7.5,0.9,12.9,11.4,13.9C220.1,57.1,213.7,52.7,217.1,43.3 M230.4,58.7l1.1,0l-8.9,23.8h-1.1L230.4,58.7z"/>
		<path class="st2" d="M360.4,41.2l-3.3,0l5-13.8h0l4.3-11.8l-15.1,0l-24.8,67.8l8.7,0v0H349c10.2-1,13.3-5.3,16.1-12.8l4.9-13.1
			C373.6,47.8,370,41.2,360.4,41.2 M328.2,82.4l24-65.5l1.1,0l-24,65.5H328.2z M352.9,53h0.6c1.9,0,2.9,1,1.8,3.9l-4.7,12.7
			c-0.9,2.4-2.1,3.7-4.1,3.7h-1.1L352.9,53z M357.4,57.2l-4.7,12.7c-1,2.6-2.4,4.5-6.2,4.4c2.7-0.1,4.2-1.8,5.1-4.4l4.7-12.7
			c1.3-3.5,0.3-5.2-2.7-5.4C357.7,51.8,358.7,53.7,357.4,57.2"/>
	</g>
</g>
</svg>
