<?xml version="1.0" encoding="utf-8"?>
<!-- Generator: Adobe Illustrator 19.2.1, SVG Export Plug-In . SVG Version: 6.00 Build 0)  -->
<svg version="1.1" id="Layer_1" xmlns="http://www.w3.org/2000/svg" xmlns:xlink="http://www.w3.org/1999/xlink" x="0px" y="0px"
	 width="64px" height="82px" viewBox="0 0 64 82" style="enable-background:new 0 0 64 82;" xml:space="preserve">
<style type="text/css">
	.st0{opacity:0.4;}
	.st1{fill:#FFFFFF;}
</style>
<g>
	<path class="st0" d="M56.7,32.4L56.7,32.4c-1.2-0.1-2.6,0.4-3.5,0.9c0,0-0.1-1-0.1-2c-0.2-3.4-3-6.2-6.4-6.2c0,0-0.1,0-0.1,0
		c-1.4,0-2.7,0.4-3.8,1.1c-0.9-2.6-3.4-4.5-6.4-4.5c-1.2,0-2-0.2-3.9,1.1c-0.2,0.2,0.4-14.2-0.1-16.4C31.9,4.2,30,3,30,3
		c-1.2-0.8-2.9-1.2-4.6-1c-3.5,0.4-6,3.5-6,7v37.2l-2-2.3c-1.5-1.7-3.1-3.3-4.8-4.7c-1.3-1-2.5-1.9-4.1-2c-3.6-0.3-6,2.9-6,6.5
		c0,1.7,0.7,3.4,1.9,4.6l17.2,23.4l0.1,0.1c1,1.4,2.2,2.7,3.6,3.8c4.5,3.6,10,5.5,15.9,5.6c12.3,0.2,22.4-10.1,22.4-22.4V39.1
		C63.5,35.3,60.5,32.4,56.7,32.4z"/>
	<path class="st1" d="M54.7,30.4L54.7,30.4c-1.2-0.1-2.6,0.4-3.5,0.9c0,0-0.1-1-0.1-2c-0.2-3.4-3-6.2-6.4-6.2c0,0-0.1,0-0.1,0
		c-1.4,0-2.7,0.4-3.8,1.1c-0.9-2.6-3.4-4.5-6.4-4.5c-1.2,0-2-0.2-3.9,1.1c-0.2,0.2,0.4-14.2-0.1-16.4C29.9,2.2,28,1,28,1
		c-1.2-0.8-2.9-1.2-4.6-1c-3.5,0.4-6,3.5-6,7v37.2l-2-2.3c-1.5-1.7-3.1-3.3-4.8-4.7c-1.3-1-2.5-1.9-4.1-2c-3.6-0.3-6,2.9-6,6.5
		c0,1.7,0.7,3.4,1.9,4.6l17.2,23.4l0.1,0.1c1,1.4,2.2,2.7,3.6,3.8c4.5,3.6,10,5.5,15.9,5.6c12.3,0.2,22.4-10.1,22.4-22.4V37.1
		C61.5,33.3,58.5,30.4,54.7,30.4z"/>
	<path d="M54.7,30.4L54.7,30.4c-1.2-0.1-2.6,0.4-3.5,0.9c0,0-0.1-1-0.1-2c-0.2-3.4-3-6.2-6.4-6.2c0,0-0.1,0-0.1,0
		c-1.4,0-2.7,0.4-3.8,1.1c-0.9-2.6-3.4-4.5-6.4-4.5c-1.2,0-2-0.2-3.9,1.1c-0.2,0.2,0.4-14.2-0.1-16.4C29.9,2.2,28,1,28,1
		c-1.2-0.8-2.9-1.2-4.6-1c-3.5,0.4-6,3.5-6,7v37.2l-2-2.3c-1.5-1.7-3.1-3.3-4.8-4.7c-1.3-1-2.5-1.9-4.1-2c-3.6-0.3-6,2.9-6,6.5
		c0,1.7,0.7,3.4,1.9,4.6l17.2,23.4l0.1,0.1c1,1.4,2.2,2.7,3.6,3.8c4.5,3.6,10,5.5,15.9,5.6c12.3,0.2,22.4-10.1,22.4-22.4V37.1
		C61.5,33.3,58.5,30.4,54.7,30.4z M58.1,57c0,10.2-8.1,18.6-18.3,18.8c-4.6,0.1-9-1.2-12.7-3.6c-2-1.3-3.8-3-5.2-5l0,0L4.8,43.8
		c-0.6-0.6-0.9-1.4-0.9-2.2c0-1.7,1.1-3.1,2.8-3.1c1.5,0,2.7,1.7,3.7,2.6c0.5,0.4,7,7.1,7,7.1c0.7,0.7,1.8,0.7,2.6,0.2c0,0,0,0,0,0
		c0.5-0.3,0.8-0.9,0.8-1.4v-40c0-1.8,1.3-3.4,3.1-3.5c2-0.2,3.7,1.4,3.7,3.4v29.9c0,0.9,0.6,1.7,1.5,1.8c1,0.1,1.9-0.7,1.9-1.7v-9.1
		c0-0.1,0-0.1,0-0.2l0,0v-1c0-1.8,1.3-3.4,3.1-3.5c2-0.2,3.7,1.4,3.7,3.4v10.3c0,0.9,0.6,1.7,1.5,1.8c1,0.1,1.9-0.7,1.9-1.7v-6.8
		c0-1.8,1.3-3.4,3.1-3.5c2-0.2,3.7,1.4,3.7,3.4l0,6.9c0,0.9,0.6,1.7,1.5,1.8c1,0.1,1.9-0.7,1.9-1.7v0.4c0-1.8,1.3-3.4,3.1-3.5
		c2-0.2,3.7,1.4,3.7,3.4V57z"/>
</g>
</svg>
