<?xml version="1.0" encoding="utf-8"?>
<!-- Generator: Adobe Illustrator 19.2.1, SVG Export Plug-In . SVG Version: 6.00 Build 0)  -->
<svg version="1.1" id="Layer_1" xmlns="http://www.w3.org/2000/svg" xmlns:xlink="http://www.w3.org/1999/xlink" x="0px" y="0px"
	 width="530px" height="141px" viewBox="0 0 530 141" style="enable-background:new 0 0 530 141;" xml:space="preserve">
<style type="text/css">
	.st0{fill:#FFFFFF;}
	.st1{fill:#FFF200;}
</style>
<g>
	<path class="st0" d="M26,9.7v43.5H14.7V34.9h-3.4v18.3H0V9.7h11.3v15.6h3.4V9.7H26z"/>
	<path class="st0" d="M56.4,35.2c0,4.4-0.1,7.5-0.3,9.3c-0.2,1.8-0.8,3.5-1.9,5c-1.1,1.5-2.5,2.7-4.4,3.5c-1.9,0.8-4,1.2-6.5,1.2
		c-2.3,0-4.4-0.4-6.3-1.1c-1.9-0.8-3.4-1.9-4.5-3.4c-1.1-1.5-1.8-3.2-2-5c-0.2-1.8-0.3-4.9-0.3-9.4v-7.5c0-4.4,0.1-7.5,0.3-9.3
		c0.2-1.8,0.8-3.5,1.9-5c1.1-1.5,2.6-2.7,4.4-3.5c1.9-0.8,4-1.2,6.5-1.2c2.3,0,4.4,0.4,6.3,1.1c1.9,0.8,3.3,1.9,4.5,3.4
		c1.1,1.5,1.8,3.2,2,5c0.2,1.8,0.3,4.9,0.3,9.4V35.2z M45.1,20.9c0-2-0.1-3.3-0.3-3.9c-0.2-0.6-0.7-0.8-1.4-0.8
		c-0.6,0-1.1,0.2-1.4,0.7c-0.3,0.5-0.5,1.8-0.5,4v20.3c0,2.5,0.1,4.1,0.3,4.7c0.2,0.6,0.7,0.9,1.4,0.9c0.8,0,1.3-0.3,1.5-1
		c0.2-0.7,0.3-2.3,0.3-4.9V20.9z"/>
	<path class="st0" d="M60.7,9.7h11.3c3.6,0,6.3,0.3,8.1,0.8c1.8,0.6,3.3,1.7,4.4,3.4c1.1,1.7,1.7,4.4,1.7,8.2c0,2.5-0.4,4.3-1.2,5.3
		c-0.8,1-2.4,1.8-4.7,2.3c2.6,0.6,4.4,1.6,5.3,2.9c0.9,1.4,1.4,3.5,1.4,6.3v4c0,2.9-0.3,5.1-1,6.5c-0.7,1.4-1.7,2.4-3.2,2.9
		c-1.5,0.5-4.5,0.8-9,0.8H60.7V9.7z M72,17.1v9.7c0.5,0,0.9,0,1.1,0c1.1,0,1.8-0.3,2.1-0.8c0.3-0.5,0.5-2.1,0.5-4.7
		c0-1.4-0.1-2.3-0.4-2.9c-0.3-0.5-0.6-0.9-1-1C73.9,17.2,73.1,17.1,72,17.1z M72,33.6v12.2c1.6-0.1,2.6-0.3,3.1-0.7
		c0.4-0.4,0.7-1.5,0.7-3.3v-4.1c0-1.9-0.2-3-0.6-3.4C74.7,33.9,73.7,33.6,72,33.6z"/>
	<path class="st0" d="M117.4,43c0,3.2-0.4,5.6-1.3,7c-0.8,1.4-2.1,2.3-3.8,2.7c-1.7,0.4-4.4,0.5-8.2,0.5H91.1V9.6h11.4v14.9h1.7
		c3.5,0,6.1,0.2,7.9,0.6s3.1,1.3,4,2.7c0.9,1.4,1.3,3.6,1.3,6.6V43z M106.1,41.7v-6.3c0-1.8-0.2-2.9-0.6-3.3
		c-0.4-0.4-1.4-0.6-3.1-0.7v14.3c1.4,0,2.4-0.2,2.9-0.5C105.8,44.8,106.1,43.6,106.1,41.7z M132.6,53.2h-11.3V9.6h11.3V53.2z"/>
	<path class="st0" d="M162,53.2h-9.5V33.4l-5.9,19.8h-9.9V9.6h9.5v19.7l6.3-19.7h9.5V53.2z M152.4,0.2h4.6c-0.1,2.4-0.8,4.4-2.1,5.9
		c-1.3,1.5-3.2,2.2-5.5,2.2c-2.4,0-4.2-0.7-5.5-2.2s-2-3.4-2.1-5.9h4.6c0.2,2.5,1.2,3.7,3,3.7C151.2,3.9,152.2,2.6,152.4,0.2z"/>
	<path class="st0" d="M200.2,22.9h-10.5v-3.2c0-1.5-0.1-2.5-0.4-2.9c-0.3-0.4-0.7-0.6-1.3-0.6c-0.7,0-1.2,0.3-1.5,0.8
		c-0.4,0.6-0.5,1.4-0.5,2.5c0,1.4,0.2,2.5,0.6,3.3c0.4,0.7,1.4,1.6,3.2,2.7c5,3,8.2,5.4,9.5,7.4c1.3,1.9,2,5,2,9.3
		c0,3.1-0.4,5.4-1.1,6.9c-0.7,1.5-2.1,2.7-4.2,3.7c-2.1,1-4.5,1.5-7.3,1.5c-3,0-5.6-0.6-7.8-1.7c-2.1-1.1-3.5-2.6-4.2-4.4
		c-0.7-1.8-1-4.3-1-7.6v-2.9h10.5v5.3c0,1.6,0.1,2.7,0.4,3.1c0.3,0.5,0.8,0.7,1.6,0.7c0.7,0,1.3-0.3,1.7-0.9
		c0.4-0.6,0.6-1.5,0.6-2.6c0-2.6-0.4-4.2-1.1-5c-0.7-0.8-2.5-2.1-5.3-4c-2.8-1.9-4.7-3.2-5.6-4.1c-0.9-0.8-1.7-2-2.3-3.5
		c-0.6-1.5-0.9-3.4-0.9-5.7c0-3.3,0.4-5.8,1.3-7.3c0.8-1.5,2.2-2.7,4.1-3.6c1.9-0.9,4.2-1.3,6.9-1.3c2.9,0,5.4,0.5,7.5,1.4
		c2.1,1,3.4,2.2,4.1,3.6c0.7,1.4,1,3.9,1,7.4V22.9z"/>
	<path class="st0" d="M230,9.7v43.5h-9.9l-5.9-19.8v19.8h-9.5V9.7h9.5l6.3,19.6V9.7H230z"/>
	<path class="st0" d="M245.9,9.7v43.5h-11.3V9.7H245.9z"/>
	<path class="st0" d="M276.8,28.6h-11.3v-7.6c0-2.2-0.1-3.6-0.4-4.1s-0.8-0.8-1.6-0.8c-0.9,0-1.5,0.3-1.8,1
		c-0.3,0.7-0.4,2.1-0.4,4.3v20.2c0,2.1,0.1,3.5,0.4,4.1s0.8,1,1.7,1c0.8,0,1.4-0.3,1.6-1c0.3-0.6,0.4-2.2,0.4-4.6v-5.5h11.3v1.7
		c0,4.5-0.3,7.7-1,9.6c-0.6,1.9-2,3.5-4.2,5s-4.9,2.1-8,2.1c-3.3,0-6-0.6-8.2-1.8c-2.2-1.2-3.6-2.9-4.3-5c-0.7-2.1-1.1-5.3-1.1-9.6
		V25c0-3.1,0.1-5.5,0.3-7.1c0.2-1.6,0.9-3.1,1.9-4.5c1.1-1.4,2.5-2.6,4.4-3.4c1.9-0.8,4.1-1.3,6.5-1.3c3.3,0,6.1,0.6,8.2,1.9
		c2.2,1.3,3.6,2.9,4.3,4.8c0.7,1.9,1,4.9,1,9V28.6z"/>
	<path class="st0" d="M307.9,9.7l-6.5,19.7l7.1,23.9h-11.7l-4.6-18.7v18.7h-11.3V9.7h11.3v16.9l5.1-16.9H307.9z"/>
	<path class="st0" d="M310.4,9.7h18.9v8.7h-7.6v8.3h7.1v8.3h-7.1v9.6h8.3v8.7h-19.6V9.7z"/>
	<path class="st0" d="M333.3,9.7h8c5.3,0,9,0.2,10.8,0.6c1.9,0.4,3.4,1.5,4.6,3.2c1.2,1.7,1.8,4.4,1.8,8.1c0,3.4-0.4,5.7-1.3,6.8
		c-0.8,1.2-2.5,1.9-5,2.1c2.2,0.6,3.7,1.3,4.5,2.2c0.8,0.9,1.3,1.8,1.5,2.6c0.2,0.8,0.3,2.9,0.3,6.4v11.5h-10.5V38.7
		c0-2.3-0.2-3.8-0.6-4.3c-0.4-0.6-1.3-0.8-2.9-0.8v19.6h-11.3V9.7z M344.6,17.1v9.7c1.3,0,2.2-0.2,2.7-0.5c0.5-0.4,0.8-1.5,0.8-3.4
		v-2.4c0-1.4-0.3-2.3-0.7-2.7C346.8,17.3,345.9,17.1,344.6,17.1z"/>
	<path class="st0" d="M386.9,22.9h-10.5v-3.2c0-1.5-0.1-2.5-0.4-2.9c-0.3-0.4-0.7-0.6-1.4-0.6c-0.7,0-1.2,0.3-1.5,0.8
		c-0.3,0.6-0.5,1.4-0.5,2.5c0,1.4,0.2,2.5,0.6,3.3c0.4,0.7,1.4,1.6,3.2,2.7c5,3,8.2,5.4,9.5,7.4c1.3,1.9,2,5,2,9.3
		c0,3.1-0.4,5.4-1.1,6.9c-0.7,1.5-2.1,2.7-4.2,3.7s-4.5,1.5-7.3,1.5c-3,0-5.6-0.6-7.7-1.7c-2.1-1.1-3.6-2.6-4.2-4.4
		c-0.7-1.8-1-4.3-1-7.6v-2.9h10.5v5.3c0,1.6,0.2,2.7,0.4,3.1c0.3,0.5,0.8,0.7,1.6,0.7s1.3-0.3,1.7-0.9c0.4-0.6,0.5-1.5,0.5-2.6
		c0-2.6-0.3-4.2-1-5c-0.7-0.8-2.5-2.1-5.3-4c-2.8-1.9-4.7-3.2-5.6-4.1c-0.9-0.8-1.7-2-2.3-3.5c-0.6-1.5-0.9-3.4-0.9-5.7
		c0-3.3,0.4-5.8,1.3-7.3c0.8-1.5,2.2-2.7,4.1-3.6s4.2-1.3,6.9-1.3c2.9,0,5.4,0.5,7.5,1.4c2.1,1,3.5,2.2,4.1,3.6c0.7,1.4,1,3.9,1,7.4
		V22.9z"/>
	<path class="st0" d="M427.6,28.6h-11.3v-7.6c0-2.2-0.1-3.6-0.4-4.1s-0.8-0.8-1.6-0.8c-0.9,0-1.5,0.3-1.8,1
		c-0.2,0.7-0.4,2.1-0.4,4.3v20.2c0,2.1,0.1,3.5,0.4,4.1c0.2,0.6,0.8,1,1.7,1c0.8,0,1.4-0.3,1.7-1c0.2-0.6,0.4-2.2,0.4-4.6v-5.5h11.3
		v1.7c0,4.5-0.3,7.7-1,9.6c-0.6,1.9-2,3.5-4.2,5c-2.2,1.4-4.9,2.1-8.1,2.1c-3.3,0-6-0.6-8.2-1.8c-2.1-1.2-3.6-2.9-4.3-5
		c-0.7-2.1-1.1-5.3-1.1-9.6V25c0-3.1,0.1-5.5,0.3-7.1c0.2-1.6,0.8-3.1,1.9-4.5c1.1-1.4,2.5-2.6,4.4-3.4c1.9-0.8,4.1-1.3,6.5-1.3
		c3.3,0,6.1,0.6,8.2,1.9c2.2,1.3,3.6,2.9,4.3,4.8c0.7,1.9,1,4.9,1,9V28.6z"/>
	<path class="st0" d="M431.6,9.7h8c5.3,0,9,0.2,10.8,0.6c1.9,0.4,3.4,1.5,4.6,3.2c1.2,1.7,1.8,4.4,1.8,8.1c0,3.4-0.4,5.7-1.3,6.8
		c-0.8,1.2-2.5,1.9-5,2.1c2.2,0.6,3.7,1.3,4.5,2.2c0.8,0.9,1.3,1.8,1.5,2.6c0.2,0.8,0.3,2.9,0.3,6.4v11.5h-10.5V38.7
		c0-2.3-0.2-3.8-0.6-4.3c-0.4-0.6-1.3-0.8-2.9-0.8v19.6h-11.3V9.7z M442.9,17.1v9.7c1.3,0,2.2-0.2,2.7-0.5c0.5-0.4,0.8-1.5,0.8-3.4
		v-2.4c0-1.4-0.3-2.3-0.7-2.7C445.2,17.3,444.2,17.1,442.9,17.1z"/>
	<path class="st0" d="M472.6,9.7v43.5h-11.3V9.7H472.6z"/>
	<path class="st0" d="M501.1,22.9h-10.5v-3.2c0-1.5-0.1-2.5-0.4-2.9c-0.3-0.4-0.7-0.6-1.4-0.6c-0.7,0-1.2,0.3-1.5,0.8
		s-0.5,1.4-0.5,2.5c0,1.4,0.2,2.5,0.6,3.3c0.4,0.7,1.4,1.6,3.2,2.7c5,3,8.2,5.4,9.5,7.4c1.3,1.9,2,5,2,9.3c0,3.1-0.4,5.4-1.1,6.9
		c-0.7,1.5-2.1,2.7-4.2,3.7c-2.1,1-4.5,1.5-7.3,1.5c-3,0-5.6-0.6-7.7-1.7c-2.1-1.1-3.6-2.6-4.2-4.4c-0.7-1.8-1-4.3-1-7.6v-2.9h10.5
		v5.3c0,1.6,0.2,2.7,0.4,3.1c0.3,0.5,0.8,0.7,1.6,0.7c0.7,0,1.3-0.3,1.7-0.9c0.4-0.6,0.5-1.5,0.5-2.6c0-2.6-0.3-4.2-1-5
		c-0.7-0.8-2.5-2.1-5.3-4c-2.8-1.9-4.7-3.2-5.6-4.1c-0.9-0.8-1.7-2-2.3-3.5c-0.6-1.5-0.9-3.4-0.9-5.7c0-3.3,0.4-5.8,1.3-7.3
		c0.8-1.5,2.2-2.7,4.1-3.6c1.9-0.9,4.2-1.3,6.9-1.3c2.9,0,5.4,0.5,7.5,1.4c2.1,1,3.5,2.2,4.1,3.6c0.7,1.4,1,3.9,1,7.4V22.9z"/>
	<path class="st0" d="M505.6,9.7H517c3.1,0,5.5,0.2,7.1,0.7c1.7,0.5,2.9,1.2,3.7,2.1c0.8,0.9,1.4,2,1.7,3.3c0.3,1.3,0.4,3.3,0.4,6
		v3.8c0,2.8-0.3,4.8-0.9,6.1c-0.6,1.3-1.6,2.3-3.2,2.9c-1.5,0.7-3.5,1-6,1h-3.1v17.5h-11.3V9.7z M516.9,17.1v11.1c0.3,0,0.6,0,0.8,0
		c1,0,1.8-0.3,2.2-0.8c0.4-0.5,0.6-1.6,0.6-3.2v-3.6c0-1.5-0.2-2.5-0.7-2.9C519.4,17.4,518.4,17.1,516.9,17.1z"/>
	<path class="st1" d="M96.3,122.4c0,5.4-0.7,9.2-2.1,11.6c-1.4,2.3-3.5,3.8-6.3,4.4s-7.4,0.9-13.5,0.9H52.6V67.2h36.7v12.5H71.4
		v12.2h2.9c5.8,0,10.2,0.3,13.1,1s5.2,2.2,6.7,4.5s2.2,6,2.2,11V122.4z M77.5,120.3v-10.4c0-3-0.3-4.9-0.9-5.5
		c-0.6-0.6-2.3-1-5.2-1.1v23.7c2.4,0,4-0.3,4.8-0.9C77.1,125.4,77.5,123.5,77.5,120.3z"/>
	<path class="st1" d="M102.9,67.3h31.2v14.4h-12.5v13.7h11.7V109h-11.7v15.8h13.7v14.4h-32.5V67.3z"/>
	<path class="st1" d="M184.5,98.6h-18.7V86.1c0-3.6-0.2-5.9-0.6-6.8c-0.4-0.9-1.3-1.4-2.6-1.4c-1.5,0-2.5,0.6-2.9,1.7
		c-0.4,1.1-0.6,3.5-0.6,7.1v33.4c0,3.5,0.2,5.8,0.6,6.9c0.4,1.1,1.3,1.6,2.8,1.6c1.4,0,2.3-0.5,2.7-1.6c0.4-1.1,0.6-3.6,0.6-7.5
		v-9.1h18.7v2.8c0,7.5-0.5,12.7-1.6,15.9c-1.1,3.1-3.4,5.9-7,8.2c-3.6,2.3-8,3.5-13.3,3.5c-5.5,0-10-1-13.6-3
		c-3.6-2-5.9-4.7-7.1-8.2c-1.2-3.5-1.7-8.8-1.7-15.9v-21c0-5.2,0.2-9.1,0.5-11.7c0.4-2.6,1.4-5.1,3.2-7.5c1.8-2.4,4.2-4.3,7.3-5.7
		c3.1-1.4,6.7-2.1,10.8-2.1c5.5,0,10.1,1.1,13.7,3.2c3.6,2.1,5.9,4.8,7.1,8c1.1,3.2,1.7,8.1,1.7,14.9V98.6z"/>
	<path class="st1" d="M234.3,139.3h-18.8V81.7H210v57.6h-18.8V67.2h43.1V139.3z"/>
	<path class="st1" d="M287.5,139.3h-18.8V81.7h-5.5v40.8c0,5.4-0.7,9.2-2.1,11.6s-3.5,3.8-6.3,4.4c-2.8,0.6-7.3,0.9-13.5,0.9h-2.9
		v-12.4c2.3,0,3.9-0.3,4.7-0.8c0.9-0.5,1.3-2.5,1.3-5.8v-53h43V139.3z"/>
	<path class="st1" d="M327.4,67.3l10.7,72h-19.1l-1-12.9h-6.7l-1.1,12.9h-19.4l9.5-72H327.4z M317.4,113.6c-1-8.2-1.9-18.2-2.9-30.2
		c-1.9,13.8-3.1,23.9-3.6,30.2H317.4z"/>
	<path class="st1" d="M378.9,67.3v14.4h-11.1v57.6h-18.7V81.7H338V67.3H378.9z"/>
	<path class="st1" d="M426.3,67.3v72h-18.7V109h-5.6v30.2h-18.7v-72h18.7V93h5.6V67.3H426.3z"/>
	<path class="st1" d="M476.6,109.5c0,7.2-0.2,12.4-0.5,15.4c-0.3,3-1.4,5.8-3.2,8.2c-1.8,2.5-4.2,4.4-7.3,5.7c-3.1,1.3-6.6,2-10.7,2
		c-3.9,0-7.3-0.6-10.4-1.9c-3.1-1.3-5.5-3.2-7.4-5.7c-1.9-2.5-3-5.3-3.3-8.2c-0.4-3-0.5-8.1-0.5-15.6V97.1c0-7.2,0.2-12.4,0.5-15.4
		c0.3-3,1.4-5.8,3.2-8.3c1.8-2.5,4.2-4.4,7.3-5.7c3.1-1.3,6.6-2,10.7-2c3.8,0,7.3,0.6,10.4,1.9c3.1,1.3,5.5,3.2,7.4,5.7
		c1.9,2.5,3,5.3,3.3,8.2c0.3,3,0.5,8.1,0.5,15.6V109.5z M457.9,85.8c0-3.4-0.2-5.5-0.6-6.4c-0.4-0.9-1.1-1.4-2.3-1.4
		c-1,0-1.7,0.4-2.2,1.2c-0.5,0.7-0.8,3-0.8,6.7v33.6c0,4.2,0.2,6.8,0.5,7.7c0.3,1,1.1,1.5,2.4,1.5c1.3,0,2.1-0.6,2.4-1.7
		c0.4-1.1,0.5-3.8,0.5-8V85.8z"/>
</g>
</svg>
