<?xml version="1.0" encoding="utf-8"?>
<!-- Generator: Adobe Illustrator 19.2.1, SVG Export Plug-In . SVG Version: 6.00 Build 0)  -->
<svg version="1.1" id="Layer_1" xmlns="http://www.w3.org/2000/svg" xmlns:xlink="http://www.w3.org/1999/xlink" x="0px" y="0px"
	 width="300px" height="600px" viewBox="0 0 300 600" style="enable-background:new 0 0 300 600;" xml:space="preserve">
<style type="text/css">
	.st0{fill:#FFFFFF;}
</style>
<g>
	<path class="st0" d="M44,436.6l-4.6,34.9H25.6l-5.2-34.9H30c1.1,9.6,1.9,17.7,2.4,24.4c0.5-6.7,1-12.7,1.5-17.9l0.6-6.5H44z"/>
	<path class="st0" d="M60.7,436.6l5.2,34.9h-9.3l-0.5-6.3h-3.2l-0.5,6.3H43l4.6-34.9H60.7z M55.9,459.1c-0.5-4-0.9-8.8-1.4-14.7
		c-0.9,6.7-1.5,11.6-1.7,14.7H55.9z"/>
	<path class="st0" d="M96.1,436.6v34.9H87v-14.7h-2.7v14.7h-9.1v-34.9h9.1v12.5H87v-12.5H96.1z"/>
	<path class="st0" d="M115.4,436.6l5.2,34.9h-9.3l-0.5-6.3h-3.2l-0.5,6.3h-9.4l4.6-34.9H115.4z M110.6,459.1
		c-0.5-4-0.9-8.8-1.4-14.7c-0.9,6.7-1.5,11.6-1.7,14.7H110.6z"/>
	<path class="st0" d="M150.1,436.6v34.9h-7.9v-23.6l-3.2,23.6h-5.6l-3.3-23v23h-7.9v-34.9h11.7c0.3,2.1,0.7,4.6,1.1,7.4l1.3,8.9
		l2.1-16.3H150.1z"/>
	<path class="st0" d="M181.8,436.6v34.9h-7.9v-23.6l-3.2,23.6H165l-3.3-23v23h-7.9v-34.9h11.7c0.3,2.1,0.7,4.6,1.1,7.4l1.3,8.9
		l2.1-16.3H181.8z"/>
	<path class="st0" d="M201.1,436.6l5.2,34.9H197l-0.5-6.3h-3.2l-0.5,6.3h-9.4l4.6-34.9H201.1z M196.3,459.1c-0.5-4-0.9-8.8-1.4-14.7
		c-0.9,6.7-1.5,11.6-1.7,14.7H196.3z"/>
	<path class="st0" d="M227.1,447.2h-8.4v-2.6c0-1.2-0.1-2-0.3-2.3s-0.6-0.5-1.1-0.5s-1,0.2-1.2,0.7c-0.3,0.4-0.4,1.1-0.4,2
		c0,1.2,0.2,2,0.5,2.6s1.2,1.3,2.6,2.1c4,2.4,6.6,4.4,7.6,5.9s1.6,4,1.6,7.4c0,2.5-0.3,4.3-0.9,5.5c-0.6,1.2-1.7,2.2-3.4,3
		s-3.6,1.2-5.8,1.2c-2.4,0-4.5-0.5-6.2-1.4s-2.8-2.1-3.4-3.5c-0.5-1.4-0.8-3.4-0.8-6.1V459h8.4v4.2c0,1.3,0.1,2.1,0.4,2.5
		c0.2,0.4,0.7,0.6,1.3,0.6s1.1-0.2,1.3-0.7c0.3-0.5,0.4-1.2,0.4-2.1c0-2.1-0.3-3.4-0.8-4c-0.6-0.6-2-1.7-4.2-3.2
		c-2.3-1.5-3.8-2.6-4.5-3.3c-0.7-0.7-1.3-1.6-1.8-2.8s-0.7-2.7-0.7-4.6c0-2.7,0.3-4.6,1-5.9c0.7-1.2,1.8-2.2,3.3-2.9
		c1.5-0.7,3.4-1,5.5-1c2.4,0,4.4,0.4,6,1.1c1.7,0.8,2.8,1.7,3.3,2.9c0.5,1.2,0.8,3.1,0.8,5.9v1.5H227.1z"/>
	<path class="st0" d="M239.7,436.6v34.9h-9.1v-34.9H239.7z"/>
	<path class="st0" d="M263.7,436.6v34.9h-8l-4.7-15.9v15.9h-7.6v-34.9h7.6l5.1,15.7v-15.7H263.7z"/>
	<path class="st0" d="M276.4,436.6v34.9h-9.1v-34.9H276.4z"/>
</g>
</svg>
