<?xml version="1.0" encoding="utf-8"?>
<!-- Generator: Adobe Illustrator 19.2.1, SVG Export Plug-In . SVG Version: 6.00 Build 0)  -->
<svg version="1.1" id="Layer_1" xmlns="http://www.w3.org/2000/svg" xmlns:xlink="http://www.w3.org/1999/xlink" x="0px" y="0px"
	 width="300px" height="600px" viewBox="0 0 300 600" style="enable-background:new 0 0 300 600;" xml:space="preserve">
<style type="text/css">
	.st0{fill:#FFFFFF;}
</style>
<g>
	<path class="st0" d="M34.8,497.1c0,2.5-0.1,4.3-0.2,5.4c-0.1,1.1-0.5,2-1.1,2.9s-1.5,1.5-2.6,2s-2.3,0.7-3.8,0.7
		c-1.4,0-2.6-0.2-3.7-0.7s-1.9-1.1-2.6-2s-1-1.9-1.2-2.9c-0.1-1-0.2-2.9-0.2-5.5v-4.3c0-2.5,0.1-4.3,0.2-5.4s0.5-2,1.1-2.9
		s1.5-1.5,2.6-2s2.3-0.7,3.8-0.7c1.4,0,2.6,0.2,3.7,0.7s1.9,1.1,2.6,2c0.7,0.9,1,1.9,1.2,2.9c0.1,1,0.2,2.9,0.2,5.5V497.1z
		 M28.2,488.8c0-1.2-0.1-1.9-0.2-2.3c-0.1-0.3-0.4-0.5-0.8-0.5c-0.3,0-0.6,0.1-0.8,0.4c-0.2,0.3-0.3,1.1-0.3,2.4v11.8
		c0,1.5,0.1,2.4,0.2,2.7s0.4,0.5,0.8,0.5s0.7-0.2,0.9-0.6c0.1-0.4,0.2-1.3,0.2-2.8C28.2,500.4,28.2,488.8,28.2,488.8z"/>
	<path class="st0" d="M40.8,482.3v2.3c0,1.2-0.1,2.2-0.4,2.9s-0.8,1.4-1.5,1.9s-1.5,0.9-2.4,1.1v-1.8c0.6-0.3,1-0.8,1.1-1.4h-1.1v-5
		H40.8z"/>
	<path class="st0" d="M53.7,482.3v5.1l-4.9,15.1h4.9v5.1H41.5v-3.7l5.1-16.6h-4.5v-5.1h11.6V482.3z"/>
	<path class="st0" d="M61.9,482.3v25.3h-6.6v-25.3H61.9z"/>
	<path class="st0" d="M79.3,482.3v25.3h-5.8l-3.4-11.5v11.5h-5.5v-25.3h5.5l3.7,11.4v-11.4H79.3z"/>
	<path class="st0" d="M97,491.6h-6.6v-2.3c0-1.4-0.1-2.4-0.2-2.7c-0.1-0.4-0.4-0.5-0.9-0.5c-0.4,0-0.7,0.2-0.8,0.5
		c-0.1,0.3-0.2,1.1-0.2,2.4v12.2c0,1.1,0.1,1.9,0.2,2.2c0.1,0.4,0.4,0.5,0.9,0.5s0.8-0.2,1-0.6s0.3-1.2,0.3-2.4v-3h-1.3v-3.8H97
		v13.6h-4.1l-0.6-1.8c-0.4,0.8-1,1.4-1.7,1.8c-0.7,0.4-1.5,0.6-2.4,0.6c-1.1,0-2.1-0.3-3.1-0.8s-1.7-1.2-2.2-2s-0.8-1.6-0.9-2.5
		s-0.2-2.2-0.2-3.9v-7.5c0-2.4,0.1-4.2,0.4-5.3c0.3-1.1,1-2.1,2.2-3s2.8-1.4,4.8-1.4c1.9,0,3.5,0.4,4.8,1.2c1.3,0.8,2.1,1.7,2.5,2.8
		c0.4,1.1,0.6,2.7,0.6,4.7v1H97z"/>
	<path class="st0" d="M118.5,482.3v5.1h-3.9v20.3H108v-20.3h-3.9v-5.1L118.5,482.3L118.5,482.3z"/>
	<path class="st0" d="M135,482.3v16.9c0,1.9-0.1,3.3-0.2,4c-0.1,0.8-0.5,1.6-1.1,2.4c-0.6,0.8-1.4,1.4-2.4,1.9
		c-1,0.4-2.2,0.6-3.6,0.6c-1.5,0-2.8-0.2-4-0.8c-1.2-0.5-2-1.2-2.6-2s-0.9-1.7-1-2.5c-0.1-0.9-0.2-2.8-0.2-5.6v-15h6.6v19
		c0,1.1,0.1,1.8,0.2,2.1s0.4,0.5,0.7,0.5c0.4,0,0.7-0.2,0.8-0.5c0.1-0.3,0.2-1.1,0.2-2.4v-18.7h6.6V482.3z"/>
	<path class="st0" d="M151.5,489.9h-6.1V488c0-0.9-0.1-1.4-0.2-1.7c-0.2-0.2-0.4-0.4-0.8-0.4c-0.4,0-0.7,0.2-0.9,0.5
		s-0.3,0.8-0.3,1.5c0,0.8,0.1,1.5,0.3,1.9s0.8,0.9,1.9,1.5c2.9,1.7,4.8,3.2,5.5,4.3c0.8,1.1,1.1,2.9,1.1,5.4c0,1.8-0.2,3.1-0.6,4
		c-0.4,0.9-1.2,1.6-2.4,2.2c-1.2,0.6-2.6,0.9-4.2,0.9c-1.8,0-3.3-0.3-4.5-1s-2.1-1.5-2.4-2.5c-0.4-1-0.6-2.5-0.6-4.4v-1.7h6.1v3.1
		c0,0.9,0.1,1.6,0.3,1.8c0.2,0.3,0.5,0.4,0.9,0.4s0.8-0.2,1-0.5s0.3-0.9,0.3-1.5c0-1.5-0.2-2.5-0.6-2.9c-0.4-0.5-1.4-1.2-3.1-2.3
		c-1.6-1.1-2.7-1.9-3.3-2.4c-0.5-0.5-1-1.2-1.3-2c-0.3-0.9-0.5-2-0.5-3.3c0-1.9,0.2-3.4,0.7-4.3s1.3-1.6,2.4-2.1
		c1.1-0.5,2.4-0.8,4-0.8c1.7,0,3.2,0.3,4.4,0.8c1.2,0.6,2,1.2,2.4,2.1c0.4,0.8,0.6,2.3,0.6,4.3L151.5,489.9L151.5,489.9z"/>
	<path class="st0" d="M169.2,482.3v25.3h-6.6V497h-2v10.6H154v-25.3h6.6v9.1h2v-9.1H169.2z"/>
	<path class="st0" d="M186.8,482.3v16.9c0,1.9-0.1,3.3-0.2,4s-0.5,1.6-1.1,2.4c-0.6,0.8-1.4,1.4-2.4,1.9c-1,0.4-2.2,0.6-3.6,0.6
		c-1.5,0-2.8-0.2-4-0.8c-1.2-0.5-2-1.2-2.6-2s-0.9-1.7-1-2.5c-0.1-0.9-0.2-2.8-0.2-5.6v-15h6.6v19c0,1.1,0.1,1.8,0.2,2.1
		c0.1,0.3,0.4,0.5,0.7,0.5c0.4,0,0.7-0.2,0.8-0.5s0.2-1.1,0.2-2.4v-18.7h6.6V482.3z"/>
	<path class="st0" d="M204.1,482.3v25.3h-5.8l-3.4-11.5v11.5h-5.5v-25.3h5.5l3.7,11.4v-11.4H204.1z"/>
	<path class="st0" d="M213.3,482.3v25.3h-6.6v-25.3H213.3z"/>
	<path class="st0" d="M215.9,482.3h6.6c2.1,0,3.6,0.2,4.7,0.5c1.1,0.3,1.9,1,2.6,2c0.7,1,1,2.6,1,4.8c0,1.5-0.2,2.5-0.7,3.1
		s-1.4,1-2.7,1.3c1.5,0.3,2.6,0.9,3.1,1.7c0.5,0.8,0.8,2,0.8,3.7v2.3c0,1.7-0.2,3-0.6,3.8c-0.4,0.8-1,1.4-1.9,1.7s-2.6,0.5-5.3,0.5
		h-7.6L215.9,482.3L215.9,482.3z M222.5,486.6v5.6c0.3,0,0.5,0,0.7,0c0.6,0,1.1-0.2,1.2-0.5c0.2-0.3,0.3-1.2,0.3-2.7
		c0-0.8-0.1-1.3-0.2-1.7c-0.1-0.3-0.3-0.5-0.6-0.6C223.7,486.7,223.2,486.6,222.5,486.6z M222.5,496.2v7.1c0.9,0,1.5-0.2,1.8-0.4
		c0.3-0.3,0.4-0.9,0.4-1.9v-2.5c0-1.1-0.1-1.7-0.3-2C224.1,496.3,223.5,496.2,222.5,496.2z"/>
	<path class="st0" d="M253.3,482.3l-4.8,16.2v9.2h-6.1v-9.2l-4.6-16.2h6c0.9,4.9,1.5,8.3,1.6,10c0.4-2.7,1-6,1.8-10H253.3z"/>
	<path class="st0" d="M254.4,482.3h11v5.1H261v4.8h4.1v4.8H261v5.6h4.8v5.1h-11.4V482.3z"/>
	<path class="st0" d="M280.6,482.3v5.1h-3.9v20.3h-6.6v-20.3h-3.9v-5.1L280.6,482.3L280.6,482.3z"/>
</g>
</svg>
