<?xml version="1.0" encoding="utf-8"?>
<!-- Generator: Adobe Illustrator 19.2.1, SVG Export Plug-In . SVG Version: 6.00 Build 0)  -->
<svg version="1.1" id="Layer_1" xmlns="http://www.w3.org/2000/svg" xmlns:xlink="http://www.w3.org/1999/xlink" x="0px" y="0px"
	 width="300px" height="600px" viewBox="0 0 300 600" style="enable-background:new 0 0 300 600;" xml:space="preserve">
<style type="text/css">
	.st0{fill:#FFFFFF;}
</style>
<g>
	<path class="st0" d="M34.8,508.6c0,2.5-0.1,4.3-0.2,5.4c-0.1,1.1-0.5,2-1.1,2.9s-1.5,1.5-2.6,2s-2.3,0.7-3.8,0.7
		c-1.4,0-2.6-0.2-3.7-0.7s-1.9-1.1-2.6-2c-0.7-0.9-1-1.9-1.2-2.9c-0.1-1-0.2-2.9-0.2-5.5v-4.3c0-2.5,0.1-4.3,0.2-5.4
		c0.1-1.1,0.5-2,1.1-2.9c0.6-0.9,1.5-1.5,2.6-2c1.1-0.5,2.3-0.7,3.8-0.7c1.4,0,2.6,0.2,3.7,0.7s1.9,1.1,2.6,2c0.7,0.9,1,1.9,1.2,2.9
		c0.1,1,0.2,2.9,0.2,5.5V508.6z M28.2,500.3c0-1.2-0.1-1.9-0.2-2.3c-0.1-0.3-0.4-0.5-0.8-0.5c-0.3,0-0.6,0.1-0.8,0.4
		c-0.2,0.3-0.3,1.1-0.3,2.4v11.8c0,1.5,0.1,2.4,0.2,2.7s0.4,0.5,0.8,0.5c0.4,0,0.7-0.2,0.9-0.6c0.1-0.4,0.2-1.3,0.2-2.8V500.3z"/>
	<path class="st0" d="M40.8,493.8v2.3c0,1.2-0.1,2.2-0.4,2.9s-0.8,1.4-1.5,1.9c-0.7,0.5-1.5,0.9-2.4,1.1v-1.8c0.6-0.3,1-0.8,1.1-1.4
		h-1.1v-5H40.8z"/>
	<path class="st0" d="M53.7,493.8v5.1L48.8,514h4.9v5.1H41.5v-3.7l5.1-16.6h-4.5v-5.1H53.7z"/>
	<path class="st0" d="M61.9,493.8v25.3h-6.6v-25.3H61.9z"/>
	<path class="st0" d="M79.3,493.8v25.3h-5.8l-3.4-11.5v11.5h-5.5v-25.3h5.5l3.7,11.4v-11.4H79.3z"/>
	<path class="st0" d="M97,503.1h-6.6v-2.3c0-1.4-0.1-2.4-0.2-2.7c-0.1-0.4-0.4-0.5-0.9-0.5c-0.4,0-0.7,0.2-0.8,0.5
		c-0.1,0.3-0.2,1.1-0.2,2.4v12.2c0,1.1,0.1,1.9,0.2,2.2c0.1,0.4,0.4,0.5,0.9,0.5c0.5,0,0.8-0.2,1-0.6s0.3-1.2,0.3-2.4v-3h-1.3v-3.8
		H97v13.6h-4.1l-0.6-1.8c-0.4,0.8-1,1.4-1.7,1.8c-0.7,0.4-1.5,0.6-2.4,0.6c-1.1,0-2.1-0.3-3.1-0.8c-1-0.5-1.7-1.2-2.2-2
		s-0.8-1.6-0.9-2.5c-0.1-0.9-0.2-2.2-0.2-3.9v-7.5c0-2.4,0.1-4.2,0.4-5.3c0.3-1.1,1-2.1,2.2-3c1.2-0.9,2.8-1.4,4.8-1.4
		c1.9,0,3.5,0.4,4.8,1.2c1.3,0.8,2.1,1.7,2.5,2.8c0.4,1.1,0.6,2.7,0.6,4.7V503.1z"/>
	<path class="st0" d="M118.5,493.8v5.1h-3.9v20.3H108v-20.3h-3.9v-5.1H118.5z"/>
	<path class="st0" d="M135,493.8v16.9c0,1.9-0.1,3.3-0.2,4c-0.1,0.8-0.5,1.6-1.1,2.4c-0.6,0.8-1.4,1.4-2.4,1.9
		c-1,0.4-2.2,0.6-3.6,0.6c-1.5,0-2.8-0.2-4-0.8c-1.2-0.5-2-1.2-2.6-2c-0.6-0.8-0.9-1.7-1-2.5c-0.1-0.9-0.2-2.8-0.2-5.6v-15h6.6v19
		c0,1.1,0.1,1.8,0.2,2.1c0.1,0.3,0.4,0.5,0.7,0.5c0.4,0,0.7-0.2,0.8-0.5c0.1-0.3,0.2-1.1,0.2-2.4v-18.7H135z"/>
	<path class="st0" d="M151.5,501.4h-6.1v-1.9c0-0.9-0.1-1.4-0.2-1.7c-0.2-0.2-0.4-0.4-0.8-0.4c-0.4,0-0.7,0.2-0.9,0.5
		c-0.2,0.3-0.3,0.8-0.3,1.5c0,0.8,0.1,1.5,0.3,1.9c0.2,0.4,0.8,0.9,1.9,1.5c2.9,1.7,4.8,3.2,5.5,4.3c0.8,1.1,1.1,2.9,1.1,5.4
		c0,1.8-0.2,3.1-0.6,4c-0.4,0.9-1.2,1.6-2.4,2.2c-1.2,0.6-2.6,0.9-4.2,0.9c-1.8,0-3.3-0.3-4.5-1c-1.2-0.7-2.1-1.5-2.4-2.5
		c-0.4-1-0.6-2.5-0.6-4.4V510h6.1v3.1c0,0.9,0.1,1.6,0.3,1.8c0.2,0.3,0.5,0.4,0.9,0.4c0.4,0,0.8-0.2,1-0.5c0.2-0.3,0.3-0.9,0.3-1.5
		c0-1.5-0.2-2.5-0.6-2.9c-0.4-0.5-1.4-1.2-3.1-2.3c-1.6-1.1-2.7-1.9-3.3-2.4c-0.5-0.5-1-1.2-1.3-2c-0.3-0.9-0.5-2-0.5-3.3
		c0-1.9,0.2-3.4,0.7-4.3c0.5-0.9,1.3-1.6,2.4-2.1c1.1-0.5,2.4-0.8,4-0.8c1.7,0,3.2,0.3,4.4,0.8c1.2,0.6,2,1.2,2.4,2.1
		c0.4,0.8,0.6,2.3,0.6,4.3V501.4z"/>
	<path class="st0" d="M169.2,493.8v25.3h-6.6v-10.6h-2v10.6h-6.6v-25.3h6.6v9.1h2v-9.1H169.2z"/>
	<path class="st0" d="M186.8,493.8v16.9c0,1.9-0.1,3.3-0.2,4s-0.5,1.6-1.1,2.4c-0.6,0.8-1.4,1.4-2.4,1.9c-1,0.4-2.2,0.6-3.6,0.6
		c-1.5,0-2.8-0.2-4-0.8c-1.2-0.5-2-1.2-2.6-2c-0.6-0.8-0.9-1.7-1-2.5c-0.1-0.9-0.2-2.8-0.2-5.6v-15h6.6v19c0,1.1,0.1,1.8,0.2,2.1
		c0.1,0.3,0.4,0.5,0.7,0.5c0.4,0,0.7-0.2,0.8-0.5c0.1-0.3,0.2-1.1,0.2-2.4v-18.7H186.8z"/>
	<path class="st0" d="M204.1,493.8v25.3h-5.8l-3.4-11.5v11.5h-5.5v-25.3h5.5l3.7,11.4v-11.4H204.1z"/>
	<path class="st0" d="M213.3,493.8v25.3h-6.6v-25.3H213.3z"/>
	<path class="st0" d="M215.9,493.8h6.6c2.1,0,3.6,0.2,4.7,0.5c1.1,0.3,1.9,1,2.6,2c0.7,1,1,2.6,1,4.8c0,1.5-0.2,2.5-0.7,3.1
		c-0.5,0.6-1.4,1-2.7,1.3c1.5,0.3,2.6,0.9,3.1,1.7c0.5,0.8,0.8,2,0.8,3.7v2.3c0,1.7-0.2,3-0.6,3.8c-0.4,0.8-1,1.4-1.9,1.7
		c-0.9,0.3-2.6,0.5-5.3,0.5h-7.6V493.8z M222.5,498.1v5.6c0.3,0,0.5,0,0.7,0c0.6,0,1.1-0.2,1.2-0.5c0.2-0.3,0.3-1.2,0.3-2.7
		c0-0.8-0.1-1.3-0.2-1.7c-0.1-0.3-0.3-0.5-0.6-0.6C223.7,498.2,223.2,498.1,222.5,498.1z M222.5,507.7v7.1c0.9,0,1.5-0.2,1.8-0.4
		c0.3-0.3,0.4-0.9,0.4-1.9V510c0-1.1-0.1-1.7-0.3-2C224.1,507.8,223.5,507.7,222.5,507.7z"/>
	<path class="st0" d="M253.3,493.8l-4.8,16.2v9.2h-6.1v-9.2l-4.6-16.2h6c0.9,4.9,1.5,8.3,1.6,10c0.4-2.7,1-6,1.8-10H253.3z"/>
	<path class="st0" d="M254.4,493.8h11v5.1H261v4.8h4.1v4.8H261v5.6h4.8v5.1h-11.4V493.8z"/>
	<path class="st0" d="M280.6,493.8v5.1h-3.9v20.3h-6.6v-20.3h-3.9v-5.1H280.6z"/>
</g>
</svg>
