<?xml version="1.0" encoding="utf-8"?>
<!-- Generator: Adobe Illustrator 19.2.1, SVG Export Plug-In . SVG Version: 6.00 Build 0)  -->
<svg version="1.1" id="Layer_1" xmlns="http://www.w3.org/2000/svg" xmlns:xlink="http://www.w3.org/1999/xlink" x="0px" y="0px"
	 width="300px" height="600px" viewBox="0 0 300 600" style="enable-background:new 0 0 300 600;" xml:space="preserve">
<style type="text/css">
	.st0{fill:#FFFFFF;}
</style>
<g>
	<path class="st0" d="M39.9,501c0,3.1-0.1,5.3-0.2,6.6c-0.1,1.3-0.6,2.5-1.4,3.6c-0.8,1.1-1.8,1.9-3.1,2.5c-1.3,0.6-2.9,0.9-4.6,0.9
		c-1.7,0-3.2-0.3-4.5-0.8c-1.3-0.5-2.4-1.4-3.2-2.4c-0.8-1.1-1.3-2.3-1.4-3.5c-0.2-1.3-0.2-3.5-0.2-6.7v-5.3c0-3.1,0.1-5.3,0.2-6.6
		c0.1-1.3,0.6-2.5,1.4-3.6c0.8-1.1,1.8-1.9,3.1-2.5c1.3-0.6,2.9-0.9,4.6-0.9c1.7,0,3.2,0.3,4.5,0.8c1.3,0.5,2.4,1.4,3.2,2.4
		c0.8,1.1,1.3,2.3,1.4,3.5c0.2,1.3,0.2,3.5,0.2,6.7V501z M31.8,490.8c0-1.4-0.1-2.4-0.2-2.8c-0.2-0.4-0.5-0.6-1-0.6
		c-0.4,0-0.7,0.2-1,0.5c-0.2,0.3-0.3,1.3-0.3,2.9v14.5c0,1.8,0.1,2.9,0.2,3.3c0.1,0.4,0.5,0.6,1,0.6c0.5,0,0.9-0.2,1.1-0.7
		c0.2-0.5,0.2-1.6,0.2-3.5V490.8z"/>
	<path class="st0" d="M47.1,482.8v2.8c0,1.4-0.2,2.6-0.5,3.6c-0.3,0.9-0.9,1.7-1.8,2.4c-0.9,0.6-1.8,1.1-2.9,1.3v-2.2
		c0.8-0.4,1.2-1,1.3-1.7h-1.3v-6.1H47.1z"/>
	<path class="st0" d="M63,482.8v6.2l-6,18.6h6v6.2H48.1v-4.5l6.2-20.3h-5.5v-6.2H63z"/>
	<path class="st0" d="M73.1,482.8v31.1h-8.1v-31.1H73.1z"/>
	<path class="st0" d="M94.4,482.8v31.1h-7.1l-4.2-14.1v14.1h-6.8v-31.1h6.8l4.5,14v-14H94.4z"/>
	<path class="st0" d="M116.2,494.3h-8.1v-2.8c0-1.8-0.1-2.9-0.2-3.3c-0.2-0.4-0.5-0.7-1.1-0.7c-0.5,0-0.8,0.2-1,0.6
		c-0.2,0.4-0.3,1.4-0.3,3v14.9c0,1.4,0.1,2.3,0.3,2.8c0.2,0.4,0.5,0.7,1.1,0.7c0.6,0,1-0.2,1.2-0.7c0.2-0.5,0.3-1.5,0.3-2.9v-3.7
		h-1.6v-4.7h9.5v16.7h-5.1l-0.7-2.2c-0.6,1-1.2,1.7-2.1,2.2s-1.8,0.7-3,0.7c-1.4,0-2.6-0.3-3.8-1c-1.2-0.7-2.1-1.5-2.7-2.4
		c-0.6-1-1-2-1.2-3.1c-0.2-1.1-0.2-2.7-0.2-4.8V494c0-3,0.2-5.1,0.5-6.5c0.3-1.3,1.2-2.6,2.8-3.7c1.5-1.1,3.5-1.7,5.9-1.7
		c2.4,0,4.3,0.5,5.9,1.5c1.6,1,2.6,2.1,3,3.5c0.5,1.3,0.7,3.3,0.7,5.8V494.3z"/>
	<path class="st0" d="M142.5,482.8v6.2h-4.8v24.8h-8.1V489h-4.8v-6.2H142.5z"/>
	<path class="st0" d="M162.7,482.8v20.8c0,2.4-0.1,4-0.2,5c-0.2,1-0.6,1.9-1.4,2.9c-0.8,1-1.7,1.8-3,2.3c-1.2,0.5-2.7,0.8-4.4,0.8
		c-1.9,0-3.5-0.3-4.9-0.9c-1.4-0.6-2.5-1.4-3.2-2.4c-0.7-1-1.1-2-1.2-3.1c-0.1-1.1-0.2-3.4-0.2-6.9v-18.4h8.1v23.3
		c0,1.4,0.1,2.2,0.2,2.6c0.1,0.4,0.4,0.6,0.9,0.6c0.5,0,0.8-0.2,1-0.6c0.1-0.4,0.2-1.4,0.2-2.9v-22.9H162.7z"/>
	<path class="st0" d="M182.9,492.2h-7.5v-2.3c0-1.1-0.1-1.8-0.3-2.1c-0.2-0.3-0.5-0.4-1-0.4c-0.5,0-0.9,0.2-1.1,0.6s-0.4,1-0.4,1.8
		c0,1,0.1,1.8,0.4,2.3c0.3,0.5,1,1.2,2.3,1.9c3.6,2.1,5.9,3.9,6.8,5.3c0.9,1.4,1.4,3.6,1.4,6.6c0,2.2-0.3,3.8-0.8,4.9
		c-0.5,1-1.5,1.9-3,2.6c-1.5,0.7-3.2,1.1-5.2,1.1c-2.2,0-4-0.4-5.5-1.2c-1.5-0.8-2.5-1.9-3-3.1c-0.5-1.3-0.7-3.1-0.7-5.4v-2h7.5v3.8
		c0,1.2,0.1,1.9,0.3,2.2c0.2,0.3,0.6,0.5,1.1,0.5s0.9-0.2,1.2-0.6c0.3-0.4,0.4-1,0.4-1.9c0-1.8-0.2-3-0.7-3.6
		c-0.5-0.6-1.8-1.5-3.8-2.8c-2-1.3-3.3-2.3-4-2.9c-0.7-0.6-1.2-1.4-1.6-2.5c-0.4-1.1-0.6-2.4-0.6-4.1c0-2.4,0.3-4.1,0.9-5.2
		c0.6-1.1,1.6-2,2.9-2.6c1.4-0.6,3-0.9,4.9-0.9c2.1,0,3.9,0.3,5.4,1c1.5,0.7,2.5,1.5,2.9,2.6c0.5,1,0.7,2.8,0.7,5.2V492.2z"/>
	<path class="st0" d="M204.7,482.8v31.1h-8.1v-13h-2.4v13h-8.1v-31.1h8.1v11.1h2.4v-11.1H204.7z"/>
	<path class="st0" d="M226.3,482.8v20.8c0,2.4-0.1,4-0.2,5c-0.2,1-0.6,1.9-1.4,2.9c-0.8,1-1.7,1.8-3,2.3c-1.2,0.5-2.7,0.8-4.4,0.8
		c-1.9,0-3.5-0.3-4.9-0.9c-1.4-0.6-2.5-1.4-3.2-2.4c-0.7-1-1.1-2-1.2-3.1c-0.1-1.1-0.2-3.4-0.2-6.9v-18.4h8.1v23.3
		c0,1.4,0.1,2.2,0.2,2.6c0.1,0.4,0.4,0.6,0.9,0.6c0.5,0,0.8-0.2,1-0.6c0.1-0.4,0.2-1.4,0.2-2.9v-22.9H226.3z"/>
	<path class="st0" d="M247.4,482.8v31.1h-7.1l-4.2-14.1v14.1h-6.8v-31.1h6.8l4.5,14v-14H247.4z"/>
	<path class="st0" d="M258.8,482.8v31.1h-8.1v-31.1H258.8z"/>
	<path class="st0" d="M262,482.8h8.1c2.5,0,4.5,0.2,5.8,0.6c1.3,0.4,2.4,1.2,3.2,2.4c0.8,1.2,1.2,3.2,1.2,5.8c0,1.8-0.3,3.1-0.9,3.8
		c-0.6,0.7-1.7,1.3-3.4,1.6c1.9,0.4,3.1,1.1,3.8,2.1c0.7,1,1,2.5,1,4.5v2.9c0,2.1-0.2,3.7-0.7,4.7c-0.5,1-1.2,1.7-2.3,2.1
		s-3.2,0.6-6.4,0.6H262V482.8z M270.1,488.1v6.9c0.3,0,0.6,0,0.8,0c0.8,0,1.3-0.2,1.5-0.6c0.2-0.4,0.3-1.5,0.3-3.3
		c0-1-0.1-1.7-0.3-2c-0.2-0.4-0.4-0.6-0.7-0.7C271.5,488.2,270.9,488.1,270.1,488.1z M270.1,499.9v8.7c1.1,0,1.9-0.2,2.2-0.5
		c0.3-0.3,0.5-1.1,0.5-2.4v-2.9c0-1.3-0.1-2.1-0.4-2.4C272,500.1,271.3,499.9,270.1,499.9z"/>
</g>
</svg>
