<?xml version="1.0" encoding="utf-8"?>
<!-- Generator: Adobe Illustrator 19.2.1, SVG Export Plug-In . SVG Version: 6.00 Build 0)  -->
<svg version="1.1" id="Layer_1" xmlns="http://www.w3.org/2000/svg" xmlns:xlink="http://www.w3.org/1999/xlink" x="0px" y="0px"
	 width="300px" height="600px" viewBox="0 0 300 600" style="enable-background:new 0 0 300 600;" xml:space="preserve">
<style type="text/css">
	.st0{fill:#FFFFFF;}
</style>
<g>
	<path class="st0" d="M20.8,394.2h8.5l2.2-10.4h5.1l-2.2,10.4H44l2.2-10.4h5.1l-2.2,10.4h4.6v5.2h-5.6l-1.7,8.2h7.3v5.1h-8.4
		L43.2,423H38l2.1-10.3h-9.6L28.3,423h-5.2l2.2-10.3h-4.6v-5.1h5.7l1.7-8.2h-7.4v-5.2H20.8z M33.4,399.4l-1.7,8.2h9.6l1.7-8.2H33.4z
		"/>
	<path class="st0" d="M83.3,423.1v5.3h-8.7c-2.1,0-3.6-0.2-4.4-0.5c-0.9-0.3-1.4-0.8-1.7-1.4c-0.3-0.6-0.4-1.8-0.4-3.4
		c-2.6-0.1-4.8-0.8-6.7-2c-1.9-1.3-3.1-2.9-3.7-4.9c-0.6-2-0.9-5-0.9-8.9v-13.6c0-3,0.2-5.3,0.5-6.8c0.4-1.6,1.1-3,2.2-4.4
		c1.1-1.4,2.5-2.4,4.3-3.1c1.7-0.7,3.7-1.1,5.8-1.1c2.6,0,4.8,0.4,6.8,1.3s3.5,2,4.5,3.3s1.6,2.7,1.9,4.2c0.3,1.4,0.4,3.6,0.4,6.4
		v14.3c0,3.9-0.2,6.6-0.6,8s-1.1,2.5-2.2,3.3s-2.5,1.5-4.3,1.9c0.1,1,0.3,1.6,0.6,1.9c0.4,0.3,1.2,0.4,2.5,0.4h4.1V423.1z
		 M71.8,390.4c0-2.1-0.1-3.4-0.3-3.9c-0.2-0.6-0.7-0.9-1.4-0.9c-0.6,0-1.1,0.2-1.4,0.7s-0.5,1.8-0.5,4.1V411c0,2.6,0.1,4.1,0.3,4.7
		c0.2,0.6,0.7,0.9,1.5,0.9s1.3-0.3,1.5-1s0.3-2.3,0.3-4.9V390.4z"/>
	<path class="st0" d="M107.4,379l6.6,44.1h-11.7l-0.6-7.9h-4.1l-0.7,7.9h-12l5.8-44.1H107.4z M101.3,407.4c-0.6-5-1.2-11.2-1.7-18.5
		c-1.2,8.4-1.9,14.6-2.2,18.5H101.3z"/>
	<path class="st0" d="M115.9,379h8.1c5.4,0,9.1,0.2,11,0.6s3.5,1.5,4.7,3.2s1.8,4.5,1.8,8.2c0,3.4-0.4,5.7-1.3,6.9
		c-0.9,1.2-2.5,1.9-5,2.1c2.3,0.6,3.8,1.3,4.6,2.3c0.8,0.9,1.3,1.8,1.5,2.6c0.2,0.8,0.3,3,0.3,6.5V423H131v-14.6
		c0-2.4-0.2-3.8-0.6-4.4c-0.4-0.6-1.3-0.8-2.9-0.8v19.9H116L115.9,379L115.9,379z M127.3,386.6v9.8c1.3,0,2.2-0.2,2.7-0.5
		c0.5-0.4,0.8-1.5,0.8-3.4V390c0-1.4-0.2-2.3-0.7-2.7C129.6,386.8,128.6,386.6,127.3,386.6z"/>
	<path class="st0" d="M170.2,392.4h-10.6v-3.3c0-1.5-0.1-2.5-0.4-2.9c-0.3-0.4-0.7-0.6-1.4-0.6s-1.2,0.3-1.6,0.8
		c-0.4,0.6-0.5,1.4-0.5,2.6c0,1.5,0.2,2.6,0.6,3.3c0.4,0.7,1.5,1.6,3.2,2.7c5.1,3,8.3,5.5,9.6,7.5c1.3,1.9,2,5.1,2,9.4
		c0,3.1-0.4,5.5-1.1,6.9c-0.7,1.5-2.2,2.7-4.3,3.7s-4.6,1.5-7.4,1.5c-3.1,0-5.7-0.6-7.9-1.7c-2.2-1.2-3.6-2.6-4.3-4.4s-1-4.3-1-7.7
		v-2.9h10.6v5.4c0,1.7,0.1,2.7,0.4,3.2c0.3,0.5,0.8,0.7,1.6,0.7s1.3-0.3,1.7-0.9s0.6-1.5,0.6-2.7c0-2.6-0.4-4.3-1.1-5.1
		c-0.7-0.8-2.5-2.1-5.4-4c-2.8-1.9-4.7-3.3-5.7-4.1c-0.9-0.9-1.7-2-2.3-3.5s-0.9-3.4-0.9-5.8c0-3.4,0.4-5.8,1.3-7.4
		c0.9-1.6,2.3-2.8,4.2-3.7c1.9-0.9,4.2-1.3,7-1.3c3,0,5.5,0.5,7.6,1.4c2.1,1,3.5,2.2,4.2,3.6c0.7,1.5,1,3.9,1,7.4v1.9H170.2z"/>
	<path class="st0" d="M186.2,379v44.1h-11.5V379H186.2z"/>
	<path class="st0" d="M202.2,379v35.3h7v8.8h-18.4V379H202.2z"/>
	<path class="st0" d="M223.5,379v35.3h7v8.8H212V379H223.5z"/>
	<path class="st0" d="M254.4,379l6.6,44.1h-11.7l-0.6-7.9h-4.1l-0.7,7.9H232l5.8-44.1H254.4z M248.3,407.4c-0.6-5-1.2-11.2-1.7-18.5
		c-1.2,8.4-1.9,14.6-2.2,18.5H248.3z"/>
	<path class="st0" d="M282.9,379v8.8h-6.8v35.3h-11.5v-35.3h-6.8V379H282.9z"/>
</g>
</svg>
