<?xml version="1.0" encoding="utf-8"?>
<!-- Generator: Adobe Illustrator 19.2.1, SVG Export Plug-In . SVG Version: 6.00 Build 0)  -->
<svg version="1.1" id="Layer_2" xmlns="http://www.w3.org/2000/svg" xmlns:xlink="http://www.w3.org/1999/xlink" x="0px" y="0px"
	 width="728px" height="90px" viewBox="0 0 728 90" style="enable-background:new 0 0 728 90;" xml:space="preserve">
<style type="text/css">
	.st0{fill:#FFFFFF;}
</style>
<g>
	<path class="st0" d="M34,54.3l-3.2,24h-9.4l-3.6-24h6.5c0.7,6.6,1.3,12.2,1.7,16.8c0.3-4.7,0.6-8.7,1-12.3l0.4-4.5
		C27.3,54.3,34,54.3,34,54.3z"/>
	<path class="st0" d="M45.4,54.3l3.5,24h-6.4l-0.3-4.4h-2.3l-0.4,4.4h-6.4l3.2-24C36.3,54.3,45.4,54.3,45.4,54.3z M42.1,69.7
		c-0.3-2.7-0.6-6.1-0.9-10.1c-0.6,4.6-1,8-1.2,10.1H42.1z"/>
	<path class="st0" d="M69.8,54.3v24h-6.2V68.2h-1.9v10.1h-6.2v-24h6.2v8.6h1.9v-8.6H69.8z"/>
	<path class="st0" d="M83,54.3l3.5,24h-6.3l-0.3-4.4h-2.3l-0.4,4.4h-6.4l3.2-24H83z M79.7,69.7c-0.3-2.7-0.6-6.1-0.9-10.1
		c-0.6,4.6-1,8-1.2,10.1H79.7z"/>
	<path class="st0" d="M106.9,54.3v24h-5.5V62.1l-2.2,16.2h-3.8l-2.3-15.9v15.9h-5.5v-24h8.1c0.2,1.5,0.5,3.1,0.7,5.1l0.9,6.1
		l1.5-11.2H106.9z"/>
	<path class="st0" d="M128.7,54.3v24h-5.5V62.1L121,78.3h-3.8l-2.3-15.9v15.9h-5.5v-24h8.1c0.2,1.5,0.5,3.1,0.7,5.1l0.9,6.1
		l1.5-11.2H128.7z"/>
	<path class="st0" d="M142,54.3l3.5,24h-6.4l-0.3-4.4h-2.3l-0.4,4.4h-6.4l3.2-24C132.8,54.3,142,54.3,142,54.3z M138.6,69.7
		c-0.3-2.7-0.6-6.1-0.9-10.1c-0.6,4.6-1,8-1.2,10.1H138.6z"/>
	<path class="st0" d="M159.9,61.6h-5.8v-1.8c0-0.8-0.1-1.3-0.2-1.6c-0.1-0.2-0.4-0.3-0.7-0.3c-0.4,0-0.6,0.1-0.8,0.4
		c-0.2,0.3-0.3,0.7-0.3,1.3c0,0.8,0.1,1.5,0.3,1.8c0.2,0.4,0.8,0.9,1.8,1.5c2.8,1.7,4.6,3,5.3,4c0.7,1,1,2.8,1,5.1
		c0,1.7-0.2,3-0.6,3.7c-0.4,0.8-1.1,1.5-2.3,2.1c-1.1,0.5-2.5,0.8-4,0.8c-1.7,0-3.1-0.3-4.3-0.9s-2-1.5-2.3-2.4
		c-0.4-0.9-0.5-2.4-0.5-4.1v-1.6h5.8v2.9c0,0.9,0.1,1.5,0.2,1.8c0.1,0.3,0.4,0.4,0.8,0.4c0.4,0,0.7-0.2,0.9-0.5
		c0.2-0.3,0.3-0.8,0.3-1.5c0-1.5-0.2-2.4-0.6-2.8c-0.4-0.4-1.3-1.1-2.9-2.2c-1.6-1-2.6-1.8-3.1-2.3c-0.5-0.4-0.9-1.1-1.2-2
		c-0.3-0.8-0.5-1.9-0.5-3.1c0-1.9,0.2-3.2,0.7-4s1.2-1.6,2.3-2c1-0.5,2.3-0.7,3.8-0.7c1.7,0,3,0.3,4.1,0.8s1.9,1.1,2.3,2
		c0.4,0.8,0.5,2.2,0.5,4L159.9,61.6L159.9,61.6z"/>
	<path class="st0" d="M168.6,54.3v24h-6.2v-24H168.6z"/>
	<path class="st0" d="M185,54.3v24h-5.5l-3.2-10.9v10.9h-5.2v-24h5.2l3.5,10.8V54.3H185z"/>
	<path class="st0" d="M193.8,54.3v24h-6.2v-24H193.8z"/>
	<path class="st0" d="M215.9,68.3c0,2.4-0.1,4.1-0.2,5.1c-0.1,1-0.5,2-1,2.8c-0.6,0.8-1.5,1.5-2.4,1.9c-0.9,0.4-2.2,0.6-3.5,0.6
		c-1.2,0-2.5-0.2-3.4-0.6c-1-0.4-1.9-1-2.5-1.9c-0.6-0.8-1-1.8-1.1-2.7c-0.1-1-0.2-2.7-0.2-5.2v-4.1c0-2.4,0.1-4.1,0.2-5.1
		c0.1-1,0.5-2,1-2.8c0.5-0.8,1.5-1.5,2.4-1.9c1-0.4,2.2-0.6,3.5-0.6c1.2,0,2.5,0.2,3.4,0.6c1,0.4,1.9,1,2.5,1.9
		c0.6,0.8,1,1.8,1.1,2.7c0.1,0.9,0.2,2.7,0.2,5.2V68.3z M209.7,60.4c0-1.1-0.1-1.9-0.2-2.2c-0.1-0.3-0.4-0.5-0.7-0.5
		c-0.3,0-0.6,0.1-0.7,0.4c-0.2,0.2-0.3,1-0.3,2.3v11.2c0,1.3,0.1,2.3,0.2,2.6c0.1,0.3,0.4,0.5,0.8,0.5c0.4,0,0.7-0.2,0.8-0.5
		c0.1-0.4,0.2-1.2,0.2-2.7V60.4H209.7z"/>
	<path class="st0" d="M221.5,54.3v2.2c0,1.1-0.1,2.1-0.4,2.8s-0.7,1.3-1.3,1.9c-0.6,0.5-1.5,0.8-2.3,1v-1.8c0.6-0.3,0.9-0.7,1-1.3
		h-1v-4.7h4V54.3z"/>
	<path class="st0" d="M233.8,54.3v4.8l-4.7,14.4h4.7v4.8h-11.5v-3.5L227,59h-4.3v-4.8h11V54.3z"/>
	<path class="st0" d="M241.6,54.3v24h-6.2v-24H241.6z"/>
	<path class="st0" d="M258,54.3v24h-5.5l-3.2-10.9v10.9h-5.2v-24h5.2l3.5,10.8V54.3H258z"/>
	<path class="st0" d="M274.9,63.1h-6.2V61c0-1.3-0.1-2.3-0.2-2.6s-0.4-0.5-0.8-0.5c-0.4,0-0.6,0.1-0.8,0.4c-0.1,0.3-0.2,1-0.2,2.3
		v11.5c0,1,0.1,1.8,0.2,2.2c0.1,0.3,0.4,0.5,0.8,0.5c0.4,0,0.7-0.2,0.9-0.6c0.2-0.4,0.2-1.1,0.2-2.3V69h-1.2v-3.6h7.3v12.9h-3.9
		l-0.6-1.8c-0.4,0.7-0.9,1.3-1.7,1.7c-0.6,0.4-1.5,0.5-2.3,0.5c-1,0-2.1-0.2-2.9-0.7c-0.9-0.5-1.7-1.1-2.1-1.9
		c-0.5-0.7-0.7-1.6-0.9-2.4c-0.1-0.8-0.2-2.1-0.2-3.7v-7.1c0-2.3,0.1-3.9,0.4-5c0.2-1,0.9-2,2.2-2.9c1.1-0.8,2.7-1.3,4.6-1.3
		c1.9,0,3.3,0.4,4.6,1.1c1.2,0.7,2,1.7,2.4,2.7s0.5,2.5,0.5,4.5v1.1H274.9z"/>
	<path class="st0" d="M295.3,54.3v4.8h-3.7v19.2h-6.2V59.1h-3.7v-4.8H295.3z"/>
	<path class="st0" d="M310.8,54.3v16.1c0,1.9-0.1,3.1-0.2,3.8c-0.1,0.7-0.5,1.5-1,2.3c-0.6,0.7-1.3,1.3-2.3,1.8
		c-0.9,0.4-2.1,0.6-3.4,0.6c-1.5,0-2.7-0.2-3.8-0.7c-1.1-0.5-1.9-1.1-2.5-1.9c-0.5-0.7-0.8-1.6-0.9-2.4c-0.1-0.8-0.1-2.6-0.1-5.3
		V54.3h6.2v17.9c0,1,0.1,1.8,0.2,2c0.1,0.2,0.3,0.4,0.7,0.4s0.6-0.2,0.7-0.5s0.2-1,0.2-2.3V54.3H310.8z"/>
	<path class="st0" d="M326.5,61.6h-5.8v-1.8c0-0.8-0.1-1.3-0.2-1.6s-0.4-0.3-0.7-0.3c-0.4,0-0.6,0.1-0.8,0.4
		c-0.2,0.3-0.3,0.7-0.3,1.3c0,0.8,0.1,1.5,0.3,1.8c0.2,0.4,0.8,0.9,1.8,1.5c2.8,1.7,4.6,3,5.3,4s1,2.8,1,5.1c0,1.7-0.2,3-0.6,3.7
		c-0.4,0.8-1.1,1.5-2.3,2.1c-1.1,0.5-2.5,0.8-4,0.8c-1.7,0-3.1-0.3-4.3-0.9s-2-1.5-2.3-2.4c-0.4-0.9-0.5-2.4-0.5-4.1v-1.6h5.8v2.9
		c0,0.9,0.1,1.5,0.2,1.8s0.4,0.4,0.8,0.4c0.4,0,0.7-0.2,0.9-0.5c0.2-0.3,0.3-0.8,0.3-1.5c0-1.5-0.2-2.4-0.6-2.8
		c-0.4-0.4-1.3-1.1-2.9-2.2c-1.6-1-2.6-1.8-3.1-2.3c-0.5-0.4-0.9-1.1-1.2-2c-0.3-0.8-0.5-1.9-0.5-3.1c0-1.9,0.2-3.2,0.7-4
		c0.5-0.8,1.2-1.6,2.3-2c1-0.5,2.3-0.7,3.8-0.7c1.7,0,3,0.3,4.1,0.8s1.9,1.1,2.3,2c0.4,0.8,0.5,2.2,0.5,4V61.6z"/>
	<path class="st0" d="M343.3,54.3v24h-6.2V68.2h-1.9v10.1H329v-24h6.2v8.6h1.9v-8.6H343.3z"/>
	<path class="st0" d="M360,54.3v16.1c0,1.9-0.1,3.1-0.2,3.8c-0.1,0.7-0.5,1.5-1,2.3c-0.6,0.7-1.3,1.3-2.3,1.8
		c-0.9,0.4-2.1,0.6-3.4,0.6c-1.5,0-2.7-0.2-3.8-0.7c-1.1-0.5-1.9-1.1-2.5-1.9c-0.5-0.7-0.8-1.6-0.9-2.4c-0.1-0.8-0.1-2.6-0.1-5.3
		V54.3h6.2v17.9c0,1,0.1,1.8,0.2,2c0.1,0.2,0.3,0.4,0.7,0.4s0.6-0.2,0.7-0.5s0.2-1,0.2-2.3V54.3H360z"/>
	<path class="st0" d="M376.4,54.3v24h-5.5l-3.2-10.9v10.9h-5.2v-24h5.2l3.5,10.8V54.3H376.4z"/>
	<path class="st0" d="M385.1,54.3v24h-6.2v-24H385.1z"/>
	<path class="st0" d="M387.7,54.3h6.2c2,0,3.4,0.1,4.5,0.4c1,0.3,1.9,0.9,2.5,1.9c0.6,0.9,0.9,2.4,0.9,4.6c0,1.5-0.2,2.4-0.6,2.9
		c-0.4,0.5-1.3,0.9-2.6,1.2c1.5,0.3,2.4,0.8,2.9,1.7c0.5,0.7,0.7,1.9,0.7,3.5v2.2c0,1.7-0.2,2.8-0.5,3.6c-0.4,0.8-0.9,1.3-1.8,1.6
		c-0.8,0.2-2.5,0.4-5,0.4h-7.3L387.7,54.3L387.7,54.3z M393.9,58.4v5.3c0.3,0,0.5,0,0.6,0c0.6,0,1-0.1,1.1-0.4
		c0.2-0.3,0.2-1.1,0.2-2.6c0-0.7-0.1-1.2-0.2-1.6s-0.3-0.5-0.5-0.6C395,58.5,394.5,58.4,393.9,58.4z M393.9,67.5v6.7
		c0.8,0,1.5-0.2,1.7-0.4c0.2-0.2,0.3-0.8,0.3-1.9v-2.3c0-1-0.1-1.7-0.3-1.9C395.4,67.6,394.8,67.5,393.9,67.5z"/>
	<path class="st0" d="M423.1,54.3l-4.6,15.4v8.7h-5.8v-8.7l-4.4-15.4h5.7c0.9,4.7,1.5,7.9,1.6,9.4c0.3-2.6,0.9-5.7,1.8-9.4
		C417.4,54.3,423.1,54.3,423.1,54.3z"/>
	<path class="st0" d="M424.2,54.3h10.4v4.8h-4.1v4.6h3.9v4.6h-3.9v5.3h4.6v4.8h-10.8V54.3z"/>
	<path class="st0" d="M449,54.3v4.8h-3.7v19.2H439V59.1h-3.7v-4.8H449z"/>
	<path class="st0" d="M456.8,54.3l-0.9,18h-4.7l-0.9-18C450.2,54.3,456.8,54.3,456.8,54.3z M456.3,73.5v4.8h-5.6v-4.8H456.3z"/>
</g>
</svg>
