<?xml version="1.0" encoding="utf-8"?>
<!-- Generator: Adobe Illustrator 19.2.1, SVG Export Plug-In . SVG Version: 6.00 Build 0)  -->
<svg version="1.1" id="Layer_2" xmlns="http://www.w3.org/2000/svg" xmlns:xlink="http://www.w3.org/1999/xlink" x="0px" y="0px"
	 width="728px" height="90px" viewBox="0 0 728 90" style="enable-background:new 0 0 728 90;" xml:space="preserve">
<style type="text/css">
	.st0{fill:#FFFFFF;}
</style>
<g>
	<path class="st0" d="M24.8,23.1h6.4l1.6-7.8h3.9L35,23.1h7.2l1.6-7.8h3.9l-1.6,7.8h3.4v3.9h-4.2L44,33.1h5.5v3.9h-6.3l-1.6,7.7
		h-3.9l1.6-7.7h-7.2l-1.6,7.7h-3.9l1.6-7.7h-3.4v-3.9H29l1.3-6.2h-5.5V23.1z M34.2,26.9l-1.3,6.2h7.2l1.3-6.2H34.2z"/>
	<path class="st0" d="M71.6,44.7v4h-6.5c-1.6,0-2.7-0.1-3.3-0.4c-0.6-0.2-1.1-0.6-1.3-1.1c-0.2-0.5-0.3-1.3-0.3-2.6
		c-1.9-0.1-3.6-0.6-5-1.5c-1.4-1-2.3-2.2-2.8-3.7c-0.4-1.5-0.7-3.7-0.7-6.7V22.6c0-2.2,0.1-4,0.4-5.1s0.8-2.3,1.6-3.3
		c0.8-1,1.9-1.8,3.2-2.4c1.3-0.5,2.8-0.8,4.3-0.8c1.9,0,3.6,0.3,5.1,1c1.5,0.7,2.6,1.5,3.4,2.5c0.7,1,1.2,2,1.4,3.1
		c0.2,1.1,0.3,2.7,0.3,4.8v10.7c0,2.9-0.1,4.9-0.4,6c-0.3,1-0.8,1.9-1.6,2.5c-0.8,0.6-1.9,1.1-3.2,1.4c0,0.7,0.2,1.2,0.5,1.4
		c0.3,0.2,0.9,0.3,1.9,0.3H71.6z M62.9,20.2c0-1.5-0.1-2.5-0.3-2.9c-0.2-0.4-0.5-0.6-1.1-0.6c-0.4,0-0.8,0.2-1,0.5
		c-0.2,0.3-0.4,1.4-0.4,3.1v15.4c0,1.9,0.1,3.1,0.2,3.5c0.2,0.4,0.5,0.7,1.1,0.7c0.6,0,1-0.3,1.1-0.8c0.2-0.5,0.2-1.7,0.2-3.7V20.2z
		"/>
	<path class="st0" d="M89.6,11.7l4.9,33h-8.8l-0.5-5.9h-3.1l-0.5,5.9h-8.9l4.4-33H89.6z M85,32.9c-0.4-3.7-0.9-8.4-1.3-13.9
		c-0.9,6.3-1.4,10.9-1.6,13.9H85z"/>
	<path class="st0" d="M95.9,11.7h6.1c4.1,0,6.8,0.2,8.2,0.5c1.4,0.3,2.6,1.1,3.5,2.4c0.9,1.3,1.4,3.3,1.4,6.1c0,2.6-0.3,4.3-1,5.2
		c-0.6,0.9-1.9,1.4-3.8,1.6c1.7,0.4,2.8,1,3.4,1.7c0.6,0.7,0.9,1.4,1.1,1.9c0.1,0.6,0.2,2.2,0.2,4.9v8.7h-8v-11
		c0-1.8-0.1-2.9-0.4-3.3c-0.3-0.4-1-0.6-2.2-0.6v14.9h-8.6V11.7z M104.5,17.3v7.3c1,0,1.6-0.1,2-0.4c0.4-0.3,0.6-1.1,0.6-2.6v-1.8
		c0-1-0.2-1.7-0.6-2.1C106.2,17.5,105.5,17.3,104.5,17.3z"/>
	<path class="st0" d="M127,11.7v26.4h5.2v6.6h-13.8v-33H127z"/>
	<path class="st0" d="M142.9,11.7v33h-8.6v-33H142.9z"/>
	<path class="st0" d="M164.5,21.7h-8v-2.4c0-1.1-0.1-1.9-0.3-2.2c-0.2-0.3-0.5-0.5-1-0.5c-0.5,0-0.9,0.2-1.2,0.6
		c-0.3,0.4-0.4,1.1-0.4,1.9c0,1.1,0.1,1.9,0.4,2.5c0.3,0.6,1.1,1.2,2.4,2c3.8,2.3,6.2,4.1,7.2,5.6c1,1.5,1.5,3.8,1.5,7
		c0,2.4-0.3,4.1-0.8,5.2c-0.6,1.1-1.6,2-3.2,2.8c-1.6,0.8-3.4,1.1-5.5,1.1c-2.3,0-4.3-0.4-5.9-1.3c-1.6-0.9-2.7-2-3.2-3.3
		c-0.5-1.3-0.8-3.3-0.8-5.7v-2.2h8v4c0,1.2,0.1,2,0.3,2.4c0.2,0.4,0.6,0.5,1.2,0.5c0.6,0,1-0.2,1.3-0.7c0.3-0.4,0.4-1.1,0.4-2
		c0-1.9-0.3-3.2-0.8-3.8c-0.5-0.6-1.9-1.6-4-3c-2.1-1.4-3.5-2.4-4.2-3.1c-0.7-0.6-1.3-1.5-1.7-2.7c-0.5-1.1-0.7-2.6-0.7-4.3
		c0-2.5,0.3-4.4,1-5.5c0.6-1.2,1.7-2.1,3.1-2.7c1.4-0.7,3.2-1,5.2-1c2.2,0,4.1,0.4,5.7,1.1c1.6,0.7,2.6,1.6,3.1,2.7
		c0.5,1.1,0.8,3,0.8,5.6V21.7z"/>
	<path class="st0" d="M182.8,11.7l4.9,33h-8.8l-0.5-5.9h-3.1l-0.5,5.9H166l4.4-33H182.8z M178.2,32.9c-0.4-3.7-0.9-8.4-1.3-13.9
		c-0.9,6.3-1.4,10.9-1.6,13.9H178.2z"/>
	<path class="st0" d="M204.1,11.7v6.6H199v26.4h-8.6V18.3h-5.1v-6.6H204.1z"/>
</g>
</svg>
