<?xml version="1.0" encoding="utf-8"?>
<!-- Generator: Adobe Illustrator 19.2.1, SVG Export Plug-In . SVG Version: 6.00 Build 0)  -->
<svg version="1.1" id="Layer_2" xmlns="http://www.w3.org/2000/svg" xmlns:xlink="http://www.w3.org/1999/xlink" x="0px" y="0px"
	 width="728px" height="90px" viewBox="0 0 728 90" style="enable-background:new 0 0 728 90;" xml:space="preserve">
<style type="text/css">
	.st0{fill:#FFFFFF;}
</style>
<g>
	<path class="st0" d="M17.7,22.7h6.5l1.7-8h3.9l-1.7,8h7.4l1.7-8h3.9l-1.7,8H43v3.9h-4.4L37.3,33h5.6V37h-6.4l-1.7,7.9h-3.9l1.7-7.9
		h-7.4l-1.7,7.9h-3.9l1.7-7.9h-3.5V33h4.4l1.3-6.3h-5.7V22.7z M27.3,26.7L26,33h7.4l1.3-6.3H27.3z"/>
	<path class="st0" d="M65.5,44.8v4h-6.6c-1.6,0-2.7-0.1-3.4-0.4s-1.1-0.6-1.3-1.1c-0.2-0.5-0.3-1.3-0.3-2.6c-2-0.1-3.7-0.6-5.1-1.6
		c-1.5-1-2.4-2.3-2.8-3.7s-0.7-3.8-0.7-6.8V22.2c0-2.3,0.1-4,0.4-5.3c0.3-1.2,0.8-2.4,1.7-3.4c0.8-1,2-1.9,3.3-2.4s2.8-0.8,4.5-0.8
		c2,0,3.7,0.3,5.3,1c1.6,0.6,2.7,1.6,3.4,2.6s1.2,2.1,1.5,3.2c0.2,1.1,0.3,2.8,0.3,5v11c0,3-0.1,5.1-0.4,6.1s-0.8,2-1.7,2.6
		s-2,1.1-3.3,1.5c0,0.7,0.2,1.2,0.5,1.5c0.3,0.2,0.9,0.3,2,0.3h2.9V44.8z M56.7,19.8c0-1.6-0.1-2.6-0.3-3c-0.2-0.4-0.5-0.6-1-0.6
		c-0.4,0-0.8,0.2-1,0.5c-0.2,0.3-0.4,1.5-0.4,3.1v15.8c0,2,0.1,3.2,0.2,3.6c0.2,0.4,0.5,0.7,1.1,0.7s0.9-0.3,1.1-0.8
		c0.2-0.5,0.2-1.8,0.2-3.7V19.8H56.7z"/>
	<path class="st0" d="M84,11.1l5,33.8h-9l-0.5-6.1h-3.1l-0.5,6.1h-9l4.5-33.8C71.2,11.1,84,11.1,84,11.1z M79.3,32.8
		c-0.4-3.8-0.9-8.5-1.3-14.2c-0.8,6.5-1.5,11.2-1.7,14.2H79.3z"/>
	<path class="st0" d="M90.5,11.1h6.2c4.1,0,6.9,0.2,8.4,0.5c1.5,0.3,2.7,1.1,3.6,2.5s1.3,3.4,1.3,6.3c0,2.6-0.3,4.4-0.9,5.3
		c-0.6,0.9-2,1.5-3.8,1.7c1.8,0.4,2.9,1,3.5,1.8c0.6,0.7,0.9,1.3,1.1,2c0.1,0.6,0.2,2.3,0.2,5V45H102V33.6c0-1.8-0.1-2.9-0.4-3.3
		c-0.3-0.4-1-0.6-2.3-0.6v15.2h-8.8V11.1z M99.3,16.9v7.5c1,0,1.7-0.1,2.1-0.4s0.6-1.1,0.6-2.6v-1.9c0-1-0.2-1.8-0.6-2.1
		S100.3,16.9,99.3,16.9z"/>
	<path class="st0" d="M132.1,21.3h-8.2v-2.5c0-1.1-0.1-1.9-0.3-2.3c-0.2-0.3-0.5-0.5-1-0.5c-0.5,0-0.9,0.2-1.2,0.6
		c-0.3,0.4-0.4,1-0.4,2c0,1.1,0.1,2,0.4,2.6c0.3,0.5,1.1,1.2,2.5,2.1c3.9,2.3,6.3,4.3,7.4,5.7c1,1.5,1.6,3.8,1.6,7.2
		c0,2.4-0.3,4.1-0.8,5.3c-0.5,1.1-1.7,2.1-3.2,2.9c-1.6,0.8-3.5,1.1-5.6,1.1c-2.4,0-4.4-0.4-6-1.3c-1.7-0.9-2.8-2.1-3.2-3.4
		c-0.5-1.3-0.7-3.3-0.7-5.9v-2h8.2V37c0,1.2,0.1,2.1,0.3,2.5c0.2,0.3,0.6,0.5,1.2,0.5s1-0.2,1.3-0.7c0.3-0.5,0.4-1.1,0.4-2.1
		c0-2-0.3-3.3-0.8-3.9c-0.5-0.6-2-1.7-4.1-3.1c-2.2-1.5-3.6-2.5-4.4-3.1c-0.7-0.6-1.3-1.6-1.8-2.7c-0.4-1.1-0.7-2.6-0.7-4.5
		c0-2.6,0.3-4.5,1-5.7c0.6-1.2,1.8-2.2,3.2-2.8c1.5-0.6,3.2-1,5.3-1c2.3,0,4.3,0.4,5.8,1.1c1.6,0.7,2.7,1.7,3.2,2.8
		c0.5,1.1,0.8,3,0.8,5.7v1.3H132.1z"/>
	<path class="st0" d="M144.3,11.1v33.8h-8.8V11.1H144.3z"/>
	<path class="st0" d="M156.7,11.1v27h5.3v6.7h-14.1V11.1H156.7z"/>
	<path class="st0" d="M173,11.1v27h5.3v6.7h-14.1V11.1H173z"/>
	<path class="st0" d="M196.6,11.1l5,33.8h-9l-0.5-6.1H189l-0.5,6.1h-9.1l4.5-33.8C183.8,11.1,196.6,11.1,196.6,11.1z M192,32.8
		c-0.4-3.8-0.9-8.5-1.3-14.2c-0.9,6.4-1.5,11.2-1.7,14.2H192z"/>
	<path class="st0" d="M218.5,11.1v6.7h-5.2v27h-8.8v-27h-5.2v-6.7C199.3,11.1,218.5,11.1,218.5,11.1z"/>
</g>
</svg>
