<?xml version="1.0" encoding="utf-8"?>
<!-- Generator: Adobe Illustrator 19.2.1, SVG Export Plug-In . SVG Version: 6.00 Build 0)  -->
<svg version="1.1" id="Layer_1" xmlns="http://www.w3.org/2000/svg" xmlns:xlink="http://www.w3.org/1999/xlink" x="0px" y="0px"
	 width="300px" height="600px" viewBox="0 0 300 600" style="enable-background:new 0 0 300 600;" xml:space="preserve">
<style type="text/css">
	.st0{fill:#FFFFFF;}
</style>
<g>
	<path class="st0" d="M44.7,426.2L40,462.1H25.8l-5.3-35.9h9.9c1.1,9.9,2,18.2,2.5,25.1c0.5-6.9,1-13.1,1.5-18.4l0.6-6.7H44.7z"/>
	<path class="st0" d="M61.9,426.2l5.3,35.9h-9.6l-0.5-6.5h-3.3l-0.5,6.5h-9.7l4.7-35.9H61.9z M56.9,449.4c-0.5-4.1-0.9-9.1-1.4-15.1
		c-0.9,6.9-1.5,11.9-1.7,15.1H56.9z"/>
	<path class="st0" d="M98.3,426.2v35.9h-9.4V447h-2.8v15.1h-9.4v-35.9h9.4v12.9h2.8v-12.9H98.3z"/>
	<path class="st0" d="M118.1,426.2l5.3,35.9h-9.6l-0.5-6.5h-3.3l-0.5,6.5h-9.7l4.7-35.9H118.1z M113.2,449.4
		c-0.5-4.1-0.9-9.1-1.4-15.1c-0.9,6.9-1.5,11.9-1.7,15.1H113.2z"/>
	<path class="st0" d="M153.8,426.2v35.9h-8.1v-24.3l-3.3,24.3h-5.8l-3.4-23.7v23.7h-8.1v-35.9h12c0.3,2.2,0.7,4.7,1.1,7.6l1.3,9.2
		l2.2-16.8H153.8z"/>
	<path class="st0" d="M186.4,426.2v35.9h-8.1v-24.3l-3.3,24.3h-5.9l-3.4-23.7v23.7h-8.1v-35.9h12c0.3,2.2,0.7,4.7,1.1,7.6l1.3,9.2
		l2.2-16.8H186.4z"/>
	<path class="st0" d="M206.3,426.2l5.3,35.9h-9.6l-0.5-6.5h-3.3l-0.5,6.5h-9.7l4.7-35.9H206.3z M201.3,449.4
		c-0.5-4.1-0.9-9.1-1.4-15.1c-0.9,6.9-1.5,11.9-1.7,15.1H201.3z"/>
	<path class="st0" d="M233,437.1h-8.6v-2.7c0-1.2-0.1-2.1-0.3-2.4s-0.6-0.5-1.1-0.5s-1,0.2-1.2,0.7c-0.3,0.4-0.4,1.1-0.4,2.1
		c0,1.2,0.2,2.1,0.5,2.7c0.3,0.6,1.2,1.3,2.7,2.2c4.1,2.5,6.8,4.5,7.8,6.1c1,1.5,1.6,4.1,1.6,7.6c0,2.6-0.3,4.4-0.9,5.7
		s-1.7,2.3-3.5,3.1s-3.7,1.2-6,1.2c-2.5,0-4.6-0.5-6.4-1.4c-1.7-0.9-2.9-2.2-3.5-3.6c-0.5-1.4-0.8-3.5-0.8-6.3v-2.3h8.6v4.3
		c0,1.3,0.1,2.2,0.4,2.6c0.2,0.4,0.7,0.6,1.3,0.6c0.6,0,1.1-0.2,1.3-0.7c0.3-0.5,0.4-1.2,0.4-2.2c0-2.2-0.3-3.5-0.8-4.1
		c-0.6-0.6-2.1-1.7-4.3-3.3c-2.4-1.5-3.9-2.7-4.6-3.4c-0.7-0.7-1.3-1.6-1.9-2.9c-0.5-1.2-0.7-2.8-0.7-4.7c0-2.8,0.3-4.7,1-6.1
		c0.7-1.2,1.9-2.3,3.4-3s3.5-1,5.7-1c2.5,0,4.5,0.4,6.2,1.1c1.7,0.8,2.9,1.7,3.4,3c0.5,1.2,0.8,3.2,0.8,6.1v1.5H233z"/>
	<path class="st0" d="M246,426.2v35.9h-9.4v-35.9H246z"/>
	<path class="st0" d="M270.7,426.2v35.9h-8.2l-4.8-16.4v16.4h-7.8v-35.9h7.8l5.2,16.1v-16.1H270.7z"/>
	<path class="st0" d="M283.7,426.2v35.9h-9.4v-35.9H283.7z"/>
</g>
</svg>
