<?xml version="1.0" encoding="utf-8"?>
<!-- Generator: Adobe Illustrator 19.2.1, SVG Export Plug-In . SVG Version: 6.00 Build 0)  -->
<svg version="1.1" id="Layer_1" xmlns="http://www.w3.org/2000/svg" xmlns:xlink="http://www.w3.org/1999/xlink" x="0px" y="0px"
	 width="300px" height="600px" viewBox="0 0 300 600" style="enable-background:new 0 0 300 600;" xml:space="preserve">
<style type="text/css">
	.st0{fill:#FFFFFF;}
</style>
<g>
	<path class="st0" d="M20.8,383.7h8.7l2.3-10.7h5.2l-2.3,10.7h9.9L47,373h5.2l-2.3,10.7h4.7v5.3h-5.8l-1.7,8.4h7.5v5.2H46l-2.2,10.6
		h-5.3l2.2-10.6h-9.9l-2.3,10.6h-5.3l2.3-10.6h-4.7v-5.2h5.9l1.7-8.4h-7.6v-5.3L20.8,383.7L20.8,383.7z M33.8,389l-1.7,8.4h9.9
		l1.7-8.4H33.8z"/>
	<path class="st0" d="M85.1,413.4v5.5h-8.9c-2.2,0-3.7-0.2-4.5-0.5c-0.9-0.3-1.4-0.8-1.7-1.4c-0.3-0.6-0.4-1.9-0.4-3.5
		c-2.7-0.1-4.9-0.8-6.9-2.1c-2-1.3-3.2-3-3.8-5c-0.6-2.1-0.9-5.1-0.9-9.2v-14c0-3.1,0.2-5.5,0.5-7c0.4-1.6,1.1-3.1,2.3-4.5
		s2.6-2.5,4.4-3.2c1.7-0.7,3.8-1.1,6-1.1c2.7,0,4.9,0.4,7,1.3s3.6,2.1,4.6,3.4c1,1.3,1.6,2.8,2,4.3c0.3,1.4,0.4,3.7,0.4,6.6v14.7
		c0,4-0.2,6.8-0.6,8.2c-0.4,1.4-1.1,2.6-2.3,3.4s-2.6,1.5-4.4,2c0.1,1,0.3,1.6,0.6,2c0.4,0.3,1.2,0.4,2.6,0.4h4.2
		C85.1,413.6,85.1,413.4,85.1,413.4z M73.3,379.8c0-2.2-0.1-3.5-0.3-4c-0.2-0.6-0.7-0.9-1.4-0.9c-0.6,0-1.1,0.2-1.4,0.7
		c-0.3,0.5-0.5,1.9-0.5,4.2v21.2c0,2.7,0.1,4.2,0.3,4.8c0.2,0.6,0.7,0.9,1.5,0.9c0.8,0,1.3-0.3,1.5-1c0.2-0.7,0.3-2.4,0.3-5V379.8z"
		/>
	<path class="st0" d="M109.9,368l6.8,45.4h-12l-0.6-8.1h-4.2l-0.7,8.1H86.8l6-45.4H109.9z M103.6,397.2c-0.6-5.1-1.2-11.5-1.7-19
		c-1.2,8.6-2,15-2.3,19H103.6z"/>
	<path class="st0" d="M118.6,368h8.3c5.6,0,9.4,0.2,11.3,0.6c2,0.4,3.6,1.5,4.8,3.3c1.2,1.7,1.9,4.6,1.9,8.4c0,3.5-0.4,5.9-1.3,7.1
		c-0.9,1.2-2.6,2-5.1,2.2c2.4,0.6,3.9,1.3,4.7,2.4c0.8,0.9,1.3,1.9,1.5,2.7c0.2,0.8,0.3,3.1,0.3,6.7v11.9h-10.9v-15
		c0-2.5-0.2-3.9-0.6-4.5c-0.4-0.6-1.3-0.8-3-0.8v20.5h-11.8L118.6,368L118.6,368z M130.4,375.8v10.1c1.3,0,2.3-0.2,2.8-0.5
		c0.5-0.4,0.8-1.5,0.8-3.5v-2.6c0-1.4-0.2-2.4-0.7-2.8C132.7,376,131.7,375.8,130.4,375.8z"/>
	<path class="st0" d="M174.5,381.8h-10.9v-3.4c0-1.5-0.1-2.6-0.4-3c-0.3-0.4-0.7-0.6-1.4-0.6c-0.7,0-1.2,0.3-1.6,0.8
		c-0.4,0.6-0.5,1.4-0.5,2.7c0,1.5,0.2,2.7,0.6,3.4c0.4,0.7,1.5,1.6,3.3,2.8c5.2,3.1,8.5,5.7,9.9,7.7c1.3,2,2.1,5.2,2.1,9.7
		c0,3.2-0.4,5.7-1.1,7.1c-0.7,1.5-2.3,2.8-4.4,3.8c-2.2,1-4.7,1.5-7.6,1.5c-3.2,0-5.9-0.6-8.1-1.7c-2.3-1.2-3.7-2.7-4.4-4.5
		c-0.7-1.9-1-4.4-1-7.9v-3h10.9v5.6c0,1.7,0.1,2.8,0.4,3.3s0.8,0.7,1.6,0.7s1.3-0.3,1.7-0.9c0.4-0.6,0.6-1.5,0.6-2.8
		c0-2.7-0.4-4.4-1.1-5.2c-0.7-0.8-2.6-2.2-5.6-4.1c-2.9-2-4.8-3.4-5.9-4.2c-0.9-0.9-1.7-2.1-2.4-3.6s-0.9-3.5-0.9-6
		c0-3.5,0.4-6,1.3-7.6c0.9-1.6,2.4-2.9,4.3-3.8c2-0.9,4.3-1.3,7.2-1.3c3.1,0,5.7,0.5,7.8,1.4c2.2,1,3.6,2.3,4.3,3.7
		c0.7,1.5,1,4,1,7.6v2H174.5z"/>
	<path class="st0" d="M190.9,368v45.4h-11.8V368H190.9z"/>
	<path class="st0" d="M207.4,368v36.3h7.2v9.1h-18.9V368H207.4z"/>
	<path class="st0" d="M229.3,368v36.3h7.2v9.1h-19V368H229.3z"/>
	<path class="st0" d="M261.1,368l6.8,45.4h-12l-0.6-8.1H251l-0.7,8.1h-12.2l6-45.4H261.1z M254.8,397.2c-0.6-5.1-1.2-11.5-1.7-19
		c-1.2,8.6-2,15-2.3,19H254.8z"/>
	<path class="st0" d="M290.4,368v9.1h-7v36.3h-11.8v-36.3h-7V368H290.4z"/>
</g>
</svg>
