<?xml version="1.0" encoding="utf-8"?>
<!-- Generator: Adobe Illustrator 19.2.1, SVG Export Plug-In . SVG Version: 6.00 Build 0)  -->
<svg version="1.1" id="Layer_1" xmlns="http://www.w3.org/2000/svg" xmlns:xlink="http://www.w3.org/1999/xlink" x="0px" y="0px"
	 width="300px" height="600px" viewBox="0 0 300 600" style="enable-background:new 0 0 300 600;" xml:space="preserve">
<style type="text/css">
	.st0{fill:#FFFFFF;}
</style>
<g>
	<path class="st0" d="M35.2,490.5c0,2.6-0.1,4.4-0.2,5.6c-0.1,1.1-0.5,2.1-1.1,3c-0.6,0.9-1.5,1.5-2.7,2.1c-1.1,0.5-2.4,0.7-3.9,0.7
		c-1.4,0-2.7-0.2-3.8-0.7c-1.1-0.5-2-1.1-2.7-2.1c-0.7-0.9-1-2-1.2-3c-0.1-1-0.2-3-0.2-5.7V486c0-2.6,0.1-4.4,0.2-5.6
		c0.1-1.1,0.5-2.1,1.1-3c0.6-0.9,1.5-1.5,2.7-2.1c1.1-0.5,2.4-0.7,3.9-0.7c1.4,0,2.7,0.2,3.8,0.7c1.1,0.5,2,1.1,2.7,2.1
		c0.7,0.9,1,2,1.2,3c0.1,1,0.2,3,0.2,5.7V490.5z M28.5,482c0-1.2-0.1-2-0.2-2.4c-0.1-0.3-0.4-0.5-0.8-0.5c-0.3,0-0.6,0.1-0.8,0.4
		c-0.2,0.3-0.3,1.1-0.3,2.5v12.1c0,1.5,0.1,2.5,0.2,2.8c0.1,0.3,0.4,0.5,0.8,0.5s0.7-0.2,0.9-0.6c0.1-0.4,0.2-1.3,0.2-2.9
		C28.5,493.9,28.5,482,28.5,482z"/>
	<path class="st0" d="M41.4,475.3v2.4c0,1.2-0.1,2.3-0.4,3c-0.3,0.7-0.8,1.4-1.5,2c-0.7,0.5-1.5,0.9-2.5,1.1v-1.9
		c0.6-0.3,1-0.8,1.1-1.4H37v-5.1H41.4z"/>
	<path class="st0" d="M54.7,475.3v5.2l-5,15.5h5v5.2H42.1v-3.8l5.2-17.1h-4.6v-5.2h11.9C54.7,475.2,54.7,475.3,54.7,475.3z"/>
	<path class="st0" d="M63.1,475.3v26h-6.8v-26H63.1z"/>
	<path class="st0" d="M81,475.3v26h-6l-3.5-11.8v11.8h-5.7v-26h5.7l3.8,11.7v-11.7H81z"/>
	<path class="st0" d="M99.2,484.8h-6.8v-2.4c0-1.4-0.1-2.5-0.2-2.8c-0.1-0.4-0.4-0.5-0.9-0.5c-0.4,0-0.7,0.2-0.8,0.5
		s-0.2,1.1-0.2,2.5v12.5c0,1.1,0.1,2,0.2,2.3c0.1,0.4,0.4,0.5,0.9,0.5c0.5,0,0.8-0.2,1-0.6s0.3-1.2,0.3-2.5v-3.1h-1.3v-3.9h7.8v14
		H95l-0.6-1.9c-0.4,0.8-1,1.4-1.7,1.9c-0.7,0.4-1.5,0.6-2.5,0.6c-1.1,0-2.2-0.3-3.2-0.8s-1.7-1.2-2.3-2.1c-0.5-0.8-0.8-1.6-0.9-2.6
		c-0.1-0.9-0.2-2.3-0.2-4v-7.7c0-2.5,0.1-4.3,0.4-5.5c0.3-1.1,1-2.2,2.3-3.1c1.2-0.9,2.9-1.4,4.9-1.4c2,0,3.6,0.4,4.9,1.2
		c1.3,0.8,2.2,1.7,2.6,2.9c0.4,1.1,0.6,2.8,0.6,4.8v1L99.2,484.8L99.2,484.8z"/>
	<path class="st0" d="M121.3,475.3v5.2h-4v20.9h-6.8v-20.9h-4v-5.2H121.3L121.3,475.3z"/>
	<path class="st0" d="M138.3,475.3v17.4c0,2-0.1,3.4-0.2,4.1c-0.1,0.8-0.5,1.6-1.1,2.5c-0.6,0.8-1.4,1.4-2.5,2
		c-1,0.4-2.3,0.6-3.7,0.6c-1.5,0-2.9-0.2-4.1-0.8c-1.2-0.5-2.1-1.2-2.7-2.1c-0.6-0.8-0.9-1.7-1-2.6c-0.1-0.9-0.2-2.9-0.2-5.8v-15.4
		h6.8v19.5c0,1.1,0.1,1.9,0.2,2.2c0.1,0.3,0.4,0.5,0.7,0.5c0.4,0,0.7-0.2,0.8-0.5c0.1-0.3,0.2-1.1,0.2-2.5v-19.2h6.8V475.3z"/>
	<path class="st0" d="M155.3,483.1H149v-2c0-0.9-0.1-1.4-0.2-1.7c-0.2-0.2-0.4-0.4-0.8-0.4c-0.4,0-0.7,0.2-0.9,0.5
		c-0.2,0.3-0.3,0.8-0.3,1.5c0,0.8,0.1,1.5,0.3,2c0.2,0.4,0.8,0.9,2,1.5c3,1.7,4.9,3.3,5.7,4.4c0.8,1.1,1.1,3,1.1,5.6
		c0,1.9-0.2,3.2-0.6,4.1c-0.4,0.9-1.2,1.6-2.5,2.3c-1.2,0.6-2.7,0.9-4.3,0.9c-1.9,0-3.4-0.3-4.6-1s-2.2-1.5-2.5-2.6
		c-0.4-1-0.6-2.6-0.6-4.5v-1.7h6.3v3.2c0,0.9,0.1,1.6,0.3,1.9c0.2,0.3,0.5,0.4,0.9,0.4s0.8-0.2,1-0.5c0.2-0.3,0.3-0.9,0.3-1.5
		c0-1.5-0.2-2.6-0.6-3c-0.4-0.5-1.4-1.2-3.2-2.4c-1.6-1.1-2.8-2-3.4-2.5c-0.5-0.5-1-1.2-1.3-2.1c-0.3-0.9-0.5-2.1-0.5-3.4
		c0-2,0.2-3.5,0.7-4.4c0.5-0.9,1.3-1.6,2.5-2.2c1.1-0.5,2.5-0.8,4.1-0.8c1.7,0,3.3,0.3,4.5,0.8c1.2,0.6,2.1,1.2,2.5,2.2
		c0.4,0.8,0.6,2.4,0.6,4.4L155.3,483.1L155.3,483.1z"/>
	<path class="st0" d="M173.5,475.3v26h-6.8v-10.9h-2.1v10.9h-6.8v-26h6.8v9.4h2.1v-9.4H173.5z"/>
	<path class="st0" d="M191.6,475.3v17.4c0,2-0.1,3.4-0.2,4.1c-0.1,0.7-0.5,1.6-1.1,2.5s-1.4,1.4-2.5,2c-1,0.4-2.3,0.6-3.7,0.6
		c-1.5,0-2.9-0.2-4.1-0.8c-1.2-0.5-2.1-1.2-2.7-2.1c-0.6-0.8-0.9-1.7-1-2.6c-0.1-0.9-0.2-2.9-0.2-5.8v-15.4h6.8v19.5
		c0,1.1,0.1,1.9,0.2,2.2c0.1,0.3,0.4,0.5,0.7,0.5c0.4,0,0.7-0.2,0.8-0.5c0.1-0.3,0.2-1.1,0.2-2.5v-19.2h6.8V475.3z"/>
	<path class="st0" d="M209.4,475.3v26h-6l-3.5-11.8v11.8h-5.7v-26h5.7l3.8,11.7v-11.7H209.4z"/>
	<path class="st0" d="M218.8,475.3v26H212v-26H218.8z"/>
	<path class="st0" d="M221.5,475.3h6.8c2.2,0,3.7,0.2,4.8,0.5c1.1,0.3,2,1,2.7,2.1c0.7,1,1,2.7,1,4.9c0,1.5-0.2,2.6-0.7,3.2
		c-0.5,0.6-1.4,1-2.8,1.3c1.5,0.3,2.7,0.9,3.2,1.7c0.5,0.8,0.8,2.1,0.8,3.8v2.4c0,1.7-0.2,3.1-0.6,3.9c-0.4,0.8-1,1.4-2,1.7
		c-0.9,0.3-2.7,0.5-5.5,0.5h-7.8L221.5,475.3L221.5,475.3z M228.3,479.7v5.8c0.3,0,0.5,0,0.7,0c0.6,0,1.1-0.2,1.2-0.5
		c0.2-0.3,0.3-1.2,0.3-2.8c0-0.8-0.1-1.3-0.2-1.7c-0.1-0.3-0.3-0.5-0.6-0.6C229.5,479.8,229,479.7,228.3,479.7z M228.3,489.6v7.3
		c0.9,0,1.5-0.2,1.9-0.4c0.3-0.3,0.4-0.9,0.4-2v-2.6c0-1.1-0.1-1.7-0.3-2.1C229.9,489.7,229.3,489.6,228.3,489.6z"/>
	<path class="st0" d="M260,475.3l-4.9,16.7v9.5h-6.3v-9.5l-4.7-16.7h6.2c0.9,5,1.5,8.5,1.6,10.3c0.4-2.8,1-6.2,1.9-10.3H260z"/>
	<path class="st0" d="M261.1,475.3h11.3v5.2h-4.5v4.9h4.2v4.9h-4.2v5.8h4.9v5.2h-11.7V475.3z"/>
	<path class="st0" d="M288,475.3v5.2h-4v20.9h-6.8v-20.9h-4v-5.2H288L288,475.3z"/>
</g>
</svg>
