<?xml version="1.0" encoding="utf-8"?>
<!-- Generator: Adobe Illustrator 19.2.1, SVG Export Plug-In . SVG Version: 6.00 Build 0)  -->
<svg version="1.1" id="Layer_1" xmlns="http://www.w3.org/2000/svg" xmlns:xlink="http://www.w3.org/1999/xlink" x="0px" y="0px"
	 width="445px" height="140px" viewBox="0 0 445 140" style="enable-background:new 0 0 445 140;" xml:space="preserve">
<style type="text/css">
	.st0{fill:#FFF200;}
	.st1{fill:#FFFFFF;}
</style>
<g>
	<path class="st0" d="M0,20.7h10.4L13.1,8h6.3l-2.6,12.8h11.8L31.1,8h6.3l-2.6,12.8h5.6v6.3h-6.9l-2.1,10.1h9v6.3H30.1l-2.6,12.7
		h-6.3l2.6-12.7H12L9.3,56.1H3l2.7-12.7H0v-6.3h7l2.1-10.1H0V20.7z M15.4,27.1l-2.1,10.1h11.8l2.1-10.1H15.4z"/>
	<path class="st0" d="M76.7,56.1H62.6V12.9h-4.2v43.2H44.4v-54h32.3V56.1z"/>
	<path class="st0" d="M114.4,33.7c0,5.4-0.1,9.3-0.4,11.5c-0.3,2.3-1.1,4.3-2.4,6.2c-1.4,1.9-3.2,3.3-5.5,4.3c-2.3,1-5,1.5-8,1.5
		c-2.9,0-5.5-0.5-7.8-1.4c-2.3-0.9-4.2-2.4-5.6-4.2c-1.4-1.9-2.2-4-2.5-6.2c-0.3-2.2-0.4-6.1-0.4-11.7v-9.2c0-5.4,0.1-9.3,0.4-11.5
		c0.2-2.3,1.1-4.3,2.4-6.2c1.4-1.9,3.2-3.3,5.5-4.3s5-1.5,8-1.5c2.9,0,5.5,0.5,7.8,1.4c2.3,0.9,4.1,2.4,5.5,4.2s2.2,3.9,2.5,6.2
		s0.4,6.1,0.4,11.7V33.7z M100.3,16c0-2.5-0.1-4.1-0.4-4.8s-0.8-1.1-1.7-1.1c-0.7,0-1.3,0.3-1.7,0.8c-0.4,0.6-0.6,2.2-0.6,5v25.2
		c0,3.1,0.1,5.1,0.4,5.8c0.2,0.7,0.8,1.1,1.8,1.1c1,0,1.6-0.4,1.8-1.3c0.3-0.8,0.4-2.9,0.4-6V16z"/>
	<path class="st0" d="M148.1,2.1L143.2,26l7.4,30.1h-13c-1.6-5.4-3-11.9-4.3-19.7c-0.3,3.4-0.8,7-1.5,10.9l-1.3,8.8h-13.7L122,26
		l-5.1-23.9h13.6c0.2,1.5,0.7,4,1.5,7.4c0.6,2.6,1.1,5.1,1.4,7.3l3-14.7H148.1z"/>
	<path class="st0" d="M152.6,2.1h14.2c3.8,0,6.8,0.3,8.8,0.9c2,0.6,3.6,1.5,4.6,2.6c1,1.1,1.7,2.5,2.1,4.1c0.4,1.6,0.5,4.1,0.5,7.5
		v4.7c0,3.4-0.4,6-1.1,7.5c-0.7,1.6-2,2.8-3.9,3.6c-1.9,0.8-4.4,1.3-7.4,1.3h-3.8v21.7h-14.1V2.1z M166.6,11.4v13.7c0.4,0,0.7,0,1,0
		c1.3,0,2.2-0.3,2.7-1c0.5-0.6,0.7-2,0.7-4v-4.4c0-1.9-0.3-3.1-0.8-3.6C169.6,11.6,168.4,11.4,166.6,11.4z"/>
	<path class="st0" d="M214.7,2.1l-3.8,35.8c-0.6,5.7-1.3,9.6-1.9,11.9c-0.7,2.3-2,3.9-4,4.9c-2,1-5.2,1.5-9.8,1.5h-8.2v-7h0.8
		c1.8,0,3-0.2,3.4-0.5c0.4-0.3,0.7-0.8,0.7-1.4c0-0.1-0.3-1.6-0.8-4.6l-7.4-40.7h12.2l4.5,33.6l2.1-33.6H214.7z"/>
	<path class="st0" d="M250.3,25.6h-14v-9.4c0-2.7-0.1-4.4-0.4-5.1c-0.3-0.7-1-1-2-1c-1.2,0-1.9,0.4-2.2,1.2
		c-0.3,0.8-0.5,2.6-0.5,5.3v25.1c0,2.6,0.1,4.3,0.5,5.1c0.3,0.8,1,1.2,2.1,1.2c1,0,1.7-0.4,2-1.2c0.3-0.8,0.5-2.7,0.5-5.7v-6.8h14
		v2.1c0,5.6-0.4,9.6-1.2,11.9c-0.8,2.3-2.5,4.4-5.2,6.1c-2.7,1.8-6,2.6-10,2.6c-4.1,0-7.5-0.7-10.2-2.2c-2.7-1.5-4.4-3.5-5.3-6.2
		c-0.9-2.6-1.3-6.6-1.3-11.9V21.2c0-3.9,0.1-6.8,0.4-8.7c0.3-1.9,1.1-3.8,2.4-5.6c1.3-1.8,3.2-3.2,5.5-4.2c2.3-1,5.1-1.5,8.1-1.5
		c4.1,0,7.5,0.8,10.2,2.4c2.7,1.6,4.5,3.6,5.3,6c0.8,2.4,1.3,6.1,1.3,11.1V25.6z"/>
	<path class="st0" d="M283.6,2.1v10.8h-8.4v43.2h-14V12.9h-8.3V2.1H283.6z"/>
	<path class="st0" d="M318.1,56.1h-11.7V31.5l-7.3,24.6h-12.3v-54h11.8v24.4l7.9-24.4h11.7V56.1z"/>
	<path class="st1" d="M33,138.1H21.2v-24.6l-7.3,24.6H1.6v-54h11.8v24.4l7.9-24.4H33V138.1z"/>
	<path class="st1" d="M50.6,84.1h14c4.4,0,7.8,0.3,10.1,1c2.3,0.7,4.1,2.1,5.5,4.2c1.4,2.1,2.1,5.5,2.1,10.1c0,3.2-0.5,5.4-1.5,6.6
		c-1,1.2-2.9,2.2-5.8,2.9c3.2,0.7,5.4,2,6.6,3.7c1.2,1.7,1.7,4.3,1.7,7.8v5c0,3.7-0.4,6.4-1.3,8.1c-0.8,1.8-2.2,3-4,3.6
		c-1.8,0.6-5.5,1-11.2,1H50.6V84.1z M64.6,93.3v12c0.6,0,1.1,0,1.4,0c1.4,0,2.2-0.3,2.6-1c0.4-0.7,0.6-2.6,0.6-5.8
		c0-1.7-0.2-2.9-0.5-3.5c-0.3-0.7-0.7-1.1-1.2-1.3C67.1,93.5,66.1,93.4,64.6,93.3z M64.6,113.7v15.1c2-0.1,3.2-0.4,3.8-0.9
		c0.5-0.5,0.8-1.9,0.8-4.1v-5c0-2.3-0.2-3.7-0.7-4.2C68,114.1,66.7,113.8,64.6,113.7z"/>
	<path class="st1" d="M121.1,107.6h-14v-9.4c0-2.7-0.1-4.4-0.4-5.1c-0.3-0.7-1-1-2-1c-1.2,0-1.9,0.4-2.2,1.2
		c-0.3,0.8-0.5,2.6-0.5,5.3v25.1c0,2.6,0.1,4.3,0.5,5.1c0.3,0.8,1,1.2,2.1,1.2c1,0,1.7-0.4,2-1.2c0.3-0.8,0.5-2.7,0.5-5.6v-6.8h14
		v2.1c0,5.6-0.4,9.5-1.2,11.9c-0.8,2.3-2.5,4.4-5.2,6.1c-2.7,1.8-6,2.6-10,2.6c-4.1,0-7.5-0.7-10.2-2.2c-2.7-1.5-4.4-3.6-5.3-6.2
		c-0.9-2.6-1.3-6.6-1.3-11.9v-15.8c0-3.9,0.1-6.8,0.4-8.8c0.3-1.9,1.1-3.8,2.4-5.6c1.3-1.8,3.2-3.2,5.5-4.3c2.3-1,5.1-1.5,8.1-1.5
		c4.1,0,7.5,0.8,10.2,2.4c2.7,1.6,4.5,3.6,5.3,6c0.8,2.4,1.3,6.1,1.3,11.1V107.6z"/>
	<path class="st1" d="M126.1,84.1h23.4v10.8h-9.4v10.2h8.8v10.3h-8.8v11.9h10.3v10.8h-24.4V84.1z"/>
	<path class="st1" d="M198.9,138.1h-14.1V94.9h-4.2v43.2h-14.1v-54h32.3V138.1z"/>
	<path class="st1" d="M236.6,115.7c0,5.4-0.1,9.3-0.4,11.5c-0.3,2.3-1.1,4.3-2.4,6.2c-1.4,1.9-3.2,3.3-5.5,4.3c-2.3,1-5,1.5-8,1.5
		c-2.9,0-5.5-0.5-7.8-1.4c-2.3-1-4.2-2.4-5.6-4.2c-1.4-1.9-2.2-3.9-2.5-6.2c-0.3-2.2-0.4-6.1-0.4-11.7v-9.2c0-5.4,0.1-9.3,0.4-11.5
		c0.2-2.2,1.1-4.3,2.4-6.2c1.4-1.9,3.2-3.3,5.5-4.3c2.3-1,5-1.5,8-1.5c2.9,0,5.5,0.5,7.8,1.4c2.3,1,4.1,2.4,5.5,4.2
		c1.4,1.9,2.2,3.9,2.5,6.2s0.4,6.1,0.4,11.7V115.7z M222.5,98c0-2.5-0.1-4.1-0.4-4.8c-0.3-0.7-0.8-1.1-1.7-1.1
		c-0.7,0-1.3,0.3-1.7,0.9c-0.4,0.6-0.6,2.2-0.6,5v25.2c0,3.1,0.1,5.1,0.4,5.8c0.2,0.7,0.8,1.1,1.8,1.1c1,0,1.6-0.4,1.8-1.3
		c0.3-0.8,0.4-2.9,0.4-6V98z"/>
	<path class="st1" d="M273.1,138.1h-11.7v-24.6l-7.3,24.6h-12.3v-54h11.8v24.4l7.9-24.4h11.7V138.1z M261.2,72.3h5.7
		c-0.1,3-1,5.5-2.6,7.3c-1.6,1.8-3.9,2.8-6.8,2.8c-2.9,0-5.2-0.9-6.8-2.8s-2.5-4.3-2.6-7.3h5.7c0.3,3.1,1.5,4.6,3.8,4.6
		C259.7,76.9,260.9,75.4,261.2,72.3z"/>
	<path class="st1" d="M322,84.1v54h-12.3v-36.4l-4.9,36.4h-8.7l-5.2-35.6l0,35.6h-12.3v-54h18.2c0.5,3.2,1.1,7.1,1.7,11.5l2,13.7
		l3.2-25.2H322z"/>
	<path class="st1" d="M327.7,84.1h23.4v10.8h-9.4v10.2h8.8v10.3h-8.8v11.9H352v10.8h-24.4V84.1z M337.2,73.7v8.7h-8.7v-8.7H337.2z
		 M351.8,73.7v8.7h-8.7v-8.7H351.8z"/>
	<path class="st1" d="M406.7,138.1h-50.6v-54h14.1v43.2h4.2V84.1h14.1v43.2h4.2V84.1h14.1V138.1z"/>
	<path class="st1" d="M445,125.4c0,4-0.5,6.9-1.6,8.7c-1,1.8-2.6,2.9-4.8,3.3c-2.1,0.4-5.5,0.7-10.2,0.7h-16.2v-54h14.1v18.5h2.2
		c4.3,0,7.6,0.3,9.9,0.8s3.9,1.6,5,3.4c1.1,1.8,1.7,4.5,1.7,8.2V125.4z M430.9,123.8V116c0-2.3-0.2-3.7-0.7-4.1
		c-0.4-0.5-1.7-0.8-3.9-0.8v17.7c1.8,0,3-0.2,3.6-0.7C430.6,127.6,430.9,126.2,430.9,123.8z"/>
</g>
</svg>
