<?xml version="1.0" encoding="utf-8"?>
<!-- Generator: Adobe Illustrator 19.2.1, SVG Export Plug-In . SVG Version: 6.00 Build 0)  -->
<svg version="1.1" id="Layer_1" xmlns="http://www.w3.org/2000/svg" xmlns:xlink="http://www.w3.org/1999/xlink" x="0px" y="0px"
	 width="445px" height="160px" viewBox="0 0 445 160" style="enable-background:new 0 0 445 160;" xml:space="preserve">
<style type="text/css">
	.st0{fill:#FFFFFF;}
</style>
<g>
	<path class="st0" d="M0,30.7h10.4L13.1,18h6.3l-2.6,12.8h11.8L31.1,18h6.3l-2.6,12.8h5.6v6.3h-6.9l-2.1,10.1h9v6.3H30.1l-2.6,12.7
		h-6.3l2.6-12.7H12L9.3,66.1H3l2.7-12.7H0v-6.3h7L9.1,37H0V30.7z M15.4,37.1l-2.1,10.1h11.8l2.1-10.1H15.4z"/>
	<path class="st0" d="M76.7,66.1H62.6V22.9h-4.2v43.2h-14v-54h32.3V66.1z"/>
	<path class="st0" d="M114.4,43.7c0,5.4-0.1,9.3-0.4,11.5c-0.3,2.3-1.1,4.3-2.4,6.2c-1.4,1.9-3.2,3.3-5.5,4.3s-5,1.5-8,1.5
		c-2.9,0-5.5-0.5-7.8-1.4c-2.3-0.9-4.2-2.4-5.6-4.2c-1.4-1.9-2.2-4-2.5-6.2s-0.4-6.1-0.4-11.7v-9.2c0-5.4,0.1-9.3,0.4-11.5
		c0.2-2.3,1.1-4.3,2.4-6.2c1.4-1.9,3.2-3.3,5.5-4.3s5-1.5,8-1.5c2.9,0,5.5,0.5,7.8,1.4c2.3,0.9,4.1,2.4,5.5,4.2s2.2,3.9,2.5,6.2
		s0.4,6.1,0.4,11.7L114.4,43.7L114.4,43.7z M100.3,26c0-2.5-0.1-4.1-0.4-4.8c-0.3-0.7-0.8-1.1-1.7-1.1c-0.7,0-1.3,0.3-1.7,0.8
		c-0.4,0.6-0.6,2.2-0.6,5v25.2c0,3.1,0.1,5.1,0.4,5.8c0.2,0.7,0.8,1.1,1.8,1.1s1.6-0.4,1.8-1.3c0.3-0.8,0.4-2.9,0.4-6L100.3,26
		L100.3,26z"/>
	<path class="st0" d="M148.1,12.1L143.2,36l7.4,30.1h-13c-1.6-5.4-3-11.9-4.3-19.7c-0.3,3.4-0.8,7-1.5,10.9l-1.3,8.8h-13.7L122,36
		l-5.1-23.9h13.6c0.2,1.5,0.7,4,1.5,7.4c0.6,2.6,1.1,5.1,1.4,7.3l3-14.7C136.4,12.1,148.1,12.1,148.1,12.1z"/>
	<path class="st0" d="M152.6,12.1h14.2c3.8,0,6.8,0.3,8.8,0.9s3.6,1.5,4.6,2.6s1.7,2.5,2.1,4.1c0.4,1.6,0.5,4.1,0.5,7.5v4.7
		c0,3.4-0.4,6-1.1,7.5c-0.7,1.6-2,2.8-3.9,3.6s-4.4,1.3-7.4,1.3h-3.8V66h-14.1L152.6,12.1L152.6,12.1z M166.6,21.4v13.7
		c0.4,0,0.7,0,1,0c1.3,0,2.2-0.3,2.7-1c0.5-0.6,0.7-2,0.7-4v-4.4c0-1.9-0.3-3.1-0.8-3.6C169.6,21.6,168.4,21.4,166.6,21.4z"/>
	<path class="st0" d="M214.7,12.1l-3.8,35.8c-0.6,5.7-1.3,9.6-1.9,11.9c-0.7,2.3-2,3.9-4,4.9s-5.2,1.5-9.8,1.5H187v-7h0.8
		c1.8,0,3-0.2,3.4-0.5s0.7-0.8,0.7-1.4c0-0.1-0.3-1.6-0.8-4.6L183.7,12h12.2l4.5,33.6l2.1-33.6h12.2V12.1z"/>
	<path class="st0" d="M250.3,35.6h-14v-9.4c0-2.7-0.1-4.4-0.4-5.1c-0.3-0.7-1-1-2-1c-1.2,0-1.9,0.4-2.2,1.2
		c-0.3,0.8-0.5,2.6-0.5,5.3v25.1c0,2.6,0.1,4.3,0.5,5.1c0.3,0.8,1,1.2,2.1,1.2c1,0,1.7-0.4,2-1.2s0.5-2.7,0.5-5.7v-6.8h14v2.1
		c0,5.6-0.4,9.6-1.2,11.9c-0.8,2.3-2.5,4.4-5.2,6.1c-2.7,1.8-6,2.6-10,2.6c-4.1,0-7.5-0.7-10.2-2.2c-2.7-1.5-4.4-3.5-5.3-6.2
		c-0.9-2.6-1.3-6.6-1.3-11.9V31.2c0-3.9,0.1-6.8,0.4-8.7c0.3-1.9,1.1-3.8,2.4-5.6c1.3-1.8,3.2-3.2,5.5-4.2s5.1-1.5,8.1-1.5
		c4.1,0,7.5,0.8,10.2,2.4s4.5,3.6,5.3,6s1.3,6.1,1.3,11.1L250.3,35.6L250.3,35.6z"/>
	<path class="st0" d="M283.6,12.1v10.8h-8.4v43.2h-14V22.9h-8.3V12.1H283.6z"/>
	<path class="st0" d="M318.1,66.1h-11.7V41.5l-7.3,24.6h-12.3v-54h11.8v24.4l7.9-24.4h11.7v54H318.1z"/>
	<path class="st0" d="M33,148.1H21.2v-24.6l-7.3,24.6H1.6v-54h11.8v24.4l7.9-24.4H33V148.1z"/>
	<path class="st0" d="M50.6,94.1h14c4.4,0,7.8,0.3,10.1,1c2.3,0.7,4.1,2.1,5.5,4.2s2.1,5.5,2.1,10.1c0,3.2-0.5,5.4-1.5,6.6
		s-2.9,2.2-5.8,2.9c3.2,0.7,5.4,2,6.6,3.7s1.7,4.3,1.7,7.8v5c0,3.7-0.4,6.4-1.3,8.1c-0.8,1.8-2.2,3-4,3.6s-5.5,1-11.2,1H50.6V94.1z
		 M64.6,103.3v12c0.6,0,1.1,0,1.4,0c1.4,0,2.2-0.3,2.6-1s0.6-2.6,0.6-5.8c0-1.7-0.2-2.9-0.5-3.5c-0.3-0.7-0.7-1.1-1.2-1.3
		C67.1,103.5,66.1,103.4,64.6,103.3z M64.6,123.7v15.1c2-0.1,3.2-0.4,3.8-0.9c0.5-0.5,0.8-1.9,0.8-4.1v-5c0-2.3-0.2-3.7-0.7-4.2
		C68,124.1,66.7,123.8,64.6,123.7z"/>
	<path class="st0" d="M121.1,117.6h-14v-9.4c0-2.7-0.1-4.4-0.4-5.1s-1-1-2-1c-1.2,0-1.9,0.4-2.2,1.2c-0.3,0.8-0.5,2.6-0.5,5.3v25.1
		c0,2.6,0.1,4.3,0.5,5.1c0.3,0.8,1,1.2,2.1,1.2c1,0,1.7-0.4,2-1.2s0.5-2.7,0.5-5.6v-6.8h14v2.1c0,5.6-0.4,9.5-1.2,11.9
		c-0.8,2.3-2.5,4.4-5.2,6.1c-2.7,1.8-6,2.6-10,2.6c-4.1,0-7.5-0.7-10.2-2.2s-4.4-3.6-5.3-6.2c-0.9-2.6-1.3-6.6-1.3-11.9V113
		c0-3.9,0.1-6.8,0.4-8.8c0.3-1.9,1.1-3.8,2.4-5.6c1.3-1.8,3.2-3.2,5.5-4.3c2.3-1,5.1-1.5,8.1-1.5c4.1,0,7.5,0.8,10.2,2.4
		s4.5,3.6,5.3,6s1.3,6.1,1.3,11.1C121.1,112.3,121.1,117.6,121.1,117.6z"/>
	<path class="st0" d="M126.1,94.1h23.4v10.8h-9.4v10.2h8.8v10.3h-8.8v11.9h10.3v10.8H126L126.1,94.1L126.1,94.1z"/>
	<path class="st0" d="M198.9,148.1h-14.1v-43.2h-4.2v43.2h-14.1v-54h32.3v54H198.9z"/>
	<path class="st0" d="M236.6,125.7c0,5.4-0.1,9.3-0.4,11.5c-0.3,2.3-1.1,4.3-2.4,6.2c-1.4,1.9-3.2,3.3-5.5,4.3s-5,1.5-8,1.5
		c-2.9,0-5.5-0.5-7.8-1.4c-2.3-1-4.2-2.4-5.6-4.2c-1.4-1.9-2.2-3.9-2.5-6.2c-0.3-2.2-0.4-6.1-0.4-11.7v-9.2c0-5.4,0.1-9.3,0.4-11.5
		c0.2-2.2,1.1-4.3,2.4-6.2c1.4-1.9,3.2-3.3,5.5-4.3s5-1.5,8-1.5c2.9,0,5.5,0.5,7.8,1.4c2.3,1,4.1,2.4,5.5,4.2
		c1.4,1.9,2.2,3.9,2.5,6.2s0.4,6.1,0.4,11.7v9.2H236.6z M222.5,108c0-2.5-0.1-4.1-0.4-4.8c-0.3-0.7-0.8-1.1-1.7-1.1
		c-0.7,0-1.3,0.3-1.7,0.9s-0.6,2.2-0.6,5v25.2c0,3.1,0.1,5.1,0.4,5.8c0.2,0.7,0.8,1.1,1.8,1.1s1.6-0.4,1.8-1.3
		c0.3-0.8,0.4-2.9,0.4-6V108z"/>
	<path class="st0" d="M273.1,148.1h-11.7v-24.6l-7.3,24.6h-12.3v-54h11.8v24.4l7.9-24.4h11.7v54H273.1z M261.2,82.3h5.7
		c-0.1,3-1,5.5-2.6,7.3s-3.9,2.8-6.8,2.8s-5.2-0.9-6.8-2.8s-2.5-4.3-2.6-7.3h5.7c0.3,3.1,1.5,4.6,3.8,4.6
		C259.7,86.9,260.9,85.4,261.2,82.3z"/>
	<path class="st0" d="M322,94.1v54h-12.3v-36.4l-4.9,36.4h-8.7l-5.2-35.6v35.6h-12.3v-54h18.2c0.5,3.2,1.1,7.1,1.7,11.5l2,13.7
		l3.2-25.2C303.7,94.1,322,94.1,322,94.1z"/>
	<path class="st0" d="M327.7,94.1h23.4v10.8h-9.4v10.2h8.8v10.3h-8.8v11.9H352v10.8h-24.4v-54H327.7z M337.2,83.7v8.7h-8.7v-8.7
		H337.2z M351.8,83.7v8.7h-8.7v-8.7H351.8z"/>
	<path class="st0" d="M406.7,148.1h-50.6v-54h14.1v43.2h4.2V94.1h14.1v43.2h4.2V94.1h14.1v54H406.7z"/>
	<path class="st0" d="M445,135.4c0,4-0.5,6.9-1.6,8.7c-1,1.8-2.6,2.9-4.8,3.3c-2.1,0.4-5.5,0.7-10.2,0.7h-16.2v-54h14.1v18.5h2.2
		c4.3,0,7.6,0.3,9.9,0.8s3.9,1.6,5,3.4s1.7,4.5,1.7,8.2v10.4H445z M430.9,133.8V126c0-2.3-0.2-3.7-0.7-4.1c-0.4-0.5-1.7-0.8-3.9-0.8
		v17.7c1.8,0,3-0.2,3.6-0.7C430.6,137.6,430.9,136.2,430.9,133.8z"/>
</g>
</svg>
