<?xml version="1.0" encoding="utf-8"?>
<!-- Generator: Adobe Illustrator 19.2.1, SVG Export Plug-In . SVG Version: 6.00 Build 0)  -->
<svg version="1.1" id="Layer_1" xmlns="http://www.w3.org/2000/svg" xmlns:xlink="http://www.w3.org/1999/xlink" x="0px" y="0px"
	 width="445px" height="140px" viewBox="0 0 445 140" style="enable-background:new 0 0 445 140;" xml:space="preserve">
<style type="text/css">
	.st0{fill:#FFFFFF;}
</style>
<g>
	<path class="st0" d="M0,1.3h23.5v10.8h-9.4v10.3h8.8v10.3h-8.8v11.9h10.3v10.8H0V1.3z"/>
	<path class="st0" d="M81.8,64.8h-9.7v-9.3H28.5V1.3h14.1v43.3h4V1.3h14.1v43.3h4.2V1.3H79v43.3h2.9V64.8z"/>
	<path class="st0" d="M86,1.3h23.5v10.8H100v10.3h8.8v10.3H100v11.9h10.3v10.8H86V1.3z"/>
	<path class="st0" d="M32.4,83.5v54.1H18.3v-22.7h-4.2v22.7H0V83.5h14.1v19.4h4.2V83.5H32.4z"/>
	<path class="st0" d="M38,83.5h23.5v10.8h-9.4v10.3h8.8v10.3h-8.8v11.9h10.3v10.8H38V83.5z"/>
	<path class="st0" d="M110.9,137.6H96.8V94.3h-4.2v43.3H78.5V83.4h32.4V137.6z"/>
	<path class="st0" d="M116.6,83.5h14.2c3.8,0,6.8,0.3,8.8,0.9c2.1,0.6,3.6,1.5,4.6,2.6c1,1.1,1.7,2.5,2.1,4.1
		c0.4,1.6,0.6,4.1,0.6,7.5v4.7c0,3.5-0.4,6-1.1,7.6c-0.7,1.6-2,2.8-3.9,3.6c-1.9,0.8-4.4,1.3-7.5,1.3h-3.8v21.8h-14.1V83.5z
		 M130.6,92.7v13.8c0.4,0,0.7,0,1,0c1.3,0,2.2-0.3,2.7-1c0.5-0.6,0.8-2,0.8-4v-4.4c0-1.8-0.3-3.1-0.9-3.6
		C133.7,93,132.5,92.7,130.6,92.7z"/>
	<path class="st0" d="M183.1,115.2c0,5.4-0.1,9.3-0.4,11.6c-0.3,2.3-1.1,4.3-2.4,6.2c-1.3,1.9-3.2,3.3-5.5,4.3c-2.3,1-5,1.5-8,1.5
		c-2.9,0-5.5-0.5-7.8-1.4c-2.3-0.9-4.2-2.4-5.6-4.3c-1.4-1.9-2.2-4-2.5-6.2c-0.3-2.2-0.4-6.1-0.4-11.7v-9.3c0-5.4,0.1-9.3,0.4-11.6
		c0.3-2.3,1.1-4.3,2.4-6.2c1.3-1.9,3.2-3.3,5.5-4.3c2.3-1,5-1.5,8-1.5c2.9,0,5.5,0.5,7.8,1.4c2.3,0.9,4.2,2.4,5.6,4.3
		c1.4,1.9,2.2,4,2.5,6.2c0.3,2.2,0.4,6.1,0.4,11.7V115.2z M169,97.4c0-2.5-0.1-4.1-0.4-4.8c-0.3-0.7-0.9-1.1-1.7-1.1
		c-0.7,0-1.3,0.3-1.7,0.9c-0.4,0.6-0.6,2.2-0.6,5v25.3c0,3.1,0.1,5.1,0.4,5.8c0.3,0.7,0.9,1.1,1.8,1.1c1,0,1.6-0.4,1.8-1.3
		c0.3-0.8,0.4-2.9,0.4-6.1V97.4z"/>
	<path class="st0" d="M221.1,124.9c0,4-0.5,6.9-1.6,8.7c-1,1.8-2.6,2.9-4.8,3.3c-2.1,0.4-5.5,0.7-10.2,0.7h-16.3V83.4h27.6v9.4
		h-13.5v9.2h2.2c4.3,0,7.6,0.3,9.9,0.8c2.2,0.5,3.9,1.6,5,3.4c1.1,1.8,1.7,4.5,1.7,8.2V124.9z M207,123.3v-7.8
		c0-2.3-0.2-3.7-0.7-4.1s-1.8-0.8-3.9-0.8v17.8c1.8,0,3-0.2,3.6-0.7C206.7,127.1,207,125.7,207,123.3z"/>
	<path class="st0" d="M258.3,115.2c0,5.4-0.1,9.3-0.4,11.6c-0.3,2.3-1.1,4.3-2.4,6.2c-1.3,1.9-3.2,3.3-5.5,4.3c-2.3,1-5,1.5-8,1.5
		c-2.9,0-5.5-0.5-7.8-1.4c-2.3-0.9-4.2-2.4-5.6-4.3c-1.4-1.9-2.2-4-2.5-6.2c-0.3-2.2-0.4-6.1-0.4-11.7v-9.3c0-5.4,0.1-9.3,0.4-11.6
		c0.3-2.3,1.1-4.3,2.4-6.2c1.3-1.9,3.2-3.3,5.5-4.3c2.3-1,5-1.5,8-1.5c2.9,0,5.5,0.5,7.8,1.4c2.3,0.9,4.2,2.4,5.6,4.3
		c1.4,1.9,2.2,4,2.5,6.2c0.3,2.2,0.4,6.1,0.4,11.7V115.2z M244.2,97.4c0-2.5-0.1-4.1-0.4-4.8c-0.3-0.7-0.9-1.1-1.7-1.1
		c-0.7,0-1.3,0.3-1.7,0.9c-0.4,0.6-0.6,2.2-0.6,5v25.3c0,3.1,0.1,5.1,0.4,5.8c0.3,0.7,0.9,1.1,1.8,1.1c1,0,1.6-0.4,1.8-1.3
		c0.3-0.8,0.4-2.9,0.4-6.1V97.4z"/>
	<path class="st0" d="M263.5,83.5h14c4.4,0,7.8,0.3,10.1,1c2.3,0.7,4.1,2.1,5.5,4.2c1.4,2.1,2.1,5.5,2.1,10.2c0,3.2-0.5,5.4-1.5,6.6
		c-1,1.2-2.9,2.2-5.9,2.9c3.3,0.7,5.5,2,6.6,3.7c1.2,1.7,1.7,4.3,1.7,7.8v5c0,3.7-0.4,6.4-1.3,8.1c-0.8,1.8-2.2,3-4,3.6
		c-1.8,0.6-5.6,1-11.2,1h-16.3V83.5z M277.6,92.7v12c0.6,0,1.1,0,1.4,0c1.4,0,2.3-0.3,2.6-1s0.6-2.6,0.6-5.8c0-1.7-0.2-2.9-0.5-3.6
		c-0.3-0.7-0.7-1.1-1.2-1.3S279.1,92.8,277.6,92.7z M277.6,113.2v15.1c2-0.1,3.2-0.4,3.8-0.9c0.5-0.6,0.8-1.9,0.8-4.1v-5
		c0-2.3-0.2-3.7-0.7-4.2C281,113.5,279.7,113.3,277.6,113.2z"/>
	<path class="st0" d="M325.7,83.5l8,54.1h-14.4l-0.8-9.7h-5l-0.8,9.7h-14.6l7.2-54.1H325.7z M318.2,118.3
		c-0.7-6.1-1.4-13.7-2.1-22.7c-1.4,10.4-2.3,17.9-2.7,22.7H318.2z"/>
	<path class="st0" d="M370.5,137.6h-14.1V94.3h-4.1v30.7c0,4-0.5,6.9-1.6,8.7c-1,1.8-2.6,2.9-4.7,3.3c-2.1,0.4-5.5,0.7-10.1,0.7
		h-2.2v-9.3c1.7,0,2.9-0.2,3.5-0.6c0.6-0.4,1-1.9,1-4.3V83.4h32.3V137.6z"/>
	<path class="st0" d="M389.6,100.9h-13.5c0-4.7,0.4-8.2,1.2-10.4s2.4-4.1,4.9-5.7c2.5-1.6,5.8-2.5,9.7-2.5c2.8,0,5.3,0.4,7.4,1.3
		c2.1,0.9,3.8,2.1,5,3.7c1.2,1.6,2.2,3.3,2.7,5.2c0.6,1.9,0.9,4.7,0.9,8.7v6.6c0,3-0.3,5.4-0.8,7.3c-0.6,1.8-1.8,3.4-3.6,4.8
		c-1.9,1.4-4.1,2.1-6.6,2.1c-3.3,0-5.7-1.3-7.3-3.8v5.8H377v-14.9h12.3c0,2.1,0.8,3.1,2.2,3.1c1.1,0,1.8-0.5,2.1-1.4
		c0.3-0.9,0.5-3.1,0.5-6.6v-9c0-2-0.1-3.3-0.4-4c-0.3-0.7-0.8-1-1.7-1c-1,0-1.7,0.5-2,1.4c-0.3,0.9-0.4,2.9-0.4,6.1V100.9z
		 M389.6,126.8v10.8H377v-10.8H389.6z"/>
</g>
</svg>
