<?xml version="1.0" encoding="utf-8"?>
<!-- Generator: Adobe Illustrator 19.2.1, SVG Export Plug-In . SVG Version: 6.00 Build 0)  -->
<svg version="1.1" id="Layer_1" xmlns="http://www.w3.org/2000/svg" xmlns:xlink="http://www.w3.org/1999/xlink" x="0px" y="0px"
	 width="445px" height="160px" viewBox="0 0 445 160" style="enable-background:new 0 0 445 160;" xml:space="preserve">
<style type="text/css">
	.st0{fill:#FFFFFF;}
</style>
<g>
	<g>
		<path class="st0" d="M0,11.3h23.5v10.8h-9.4v10.3h8.8v10.3h-8.8v11.9h10.3v10.8H0V11.3z"/>
		<path class="st0" d="M81.8,74.8h-9.7v-9.3H28.5V11.3h14.1v43.3h4V11.3h14.1v43.3h4.2V11.3H79v43.3h2.9L81.8,74.8L81.8,74.8z"/>
		<path class="st0" d="M32.4,93.5v54.1H18.3v-22.7h-4.2v22.7H0V93.5h14.1v19.4h4.2V93.5H32.4z"/>
		<path class="st0" d="M38,93.5h23.5v10.8h-9.4v10.3h8.8v10.3h-8.8v11.9h10.3v10.8H38V93.5z"/>
		<path class="st0" d="M110.9,147.6H96.8v-43.3h-4.2v43.3H78.5V93.4h32.4V147.6z"/>
		<path class="st0" d="M116.6,93.5h14.2c3.8,0,6.8,0.3,8.8,0.9c2.1,0.6,3.6,1.5,4.6,2.6s1.7,2.5,2.1,4.1c0.4,1.6,0.6,4.1,0.6,7.5
			v4.7c0,3.5-0.4,6-1.1,7.6c-0.7,1.6-2,2.8-3.9,3.6c-1.9,0.8-4.4,1.3-7.5,1.3h-3.8v21.8h-14.1L116.6,93.5L116.6,93.5z M130.6,102.7
			v13.8c0.4,0,0.7,0,1,0c1.3,0,2.2-0.3,2.7-1c0.5-0.6,0.8-2,0.8-4v-4.4c0-1.8-0.3-3.1-0.9-3.6C133.7,103,132.5,102.7,130.6,102.7z"
			/>
		<path class="st0" d="M183.1,125.2c0,5.4-0.1,9.3-0.4,11.6c-0.3,2.3-1.1,4.3-2.4,6.2c-1.3,1.9-3.2,3.3-5.5,4.3s-5,1.5-8,1.5
			c-2.9,0-5.5-0.5-7.8-1.4s-4.2-2.4-5.6-4.3c-1.4-1.9-2.2-4-2.5-6.2s-0.4-6.1-0.4-11.7v-9.3c0-5.4,0.1-9.3,0.4-11.6
			c0.3-2.3,1.1-4.3,2.4-6.2c1.3-1.9,3.2-3.3,5.5-4.3s5-1.5,8-1.5c2.9,0,5.5,0.5,7.8,1.4s4.2,2.4,5.6,4.3c1.4,1.9,2.2,4,2.5,6.2
			s0.4,6.1,0.4,11.7V125.2z M169,107.4c0-2.5-0.1-4.1-0.4-4.8c-0.3-0.7-0.9-1.1-1.7-1.1c-0.7,0-1.3,0.3-1.7,0.9s-0.6,2.2-0.6,5v25.3
			c0,3.1,0.1,5.1,0.4,5.8c0.3,0.7,0.9,1.1,1.8,1.1c1,0,1.6-0.4,1.8-1.3c0.3-0.8,0.4-2.9,0.4-6.1V107.4z"/>
		<path class="st0" d="M221.1,134.9c0,4-0.5,6.9-1.6,8.7c-1,1.8-2.6,2.9-4.8,3.3c-2.1,0.4-5.5,0.7-10.2,0.7h-16.3V93.4h27.6v9.4
			h-13.5v9.2h2.2c4.3,0,7.6,0.3,9.9,0.8c2.2,0.5,3.9,1.6,5,3.4s1.7,4.5,1.7,8.2L221.1,134.9L221.1,134.9z M207,133.3v-7.8
			c0-2.3-0.2-3.7-0.7-4.1s-1.8-0.8-3.9-0.8v17.8c1.8,0,3-0.2,3.6-0.7C206.7,137.1,207,135.7,207,133.3z"/>
		<path class="st0" d="M258.3,125.2c0,5.4-0.1,9.3-0.4,11.6c-0.3,2.3-1.1,4.3-2.4,6.2c-1.3,1.9-3.2,3.3-5.5,4.3s-5,1.5-8,1.5
			c-2.9,0-5.5-0.5-7.8-1.4s-4.2-2.4-5.6-4.3c-1.4-1.9-2.2-4-2.5-6.2s-0.4-6.1-0.4-11.7v-9.3c0-5.4,0.1-9.3,0.4-11.6
			c0.3-2.3,1.1-4.3,2.4-6.2c1.3-1.9,3.2-3.3,5.5-4.3s5-1.5,8-1.5c2.9,0,5.5,0.5,7.8,1.4s4.2,2.4,5.6,4.3c1.4,1.9,2.2,4,2.5,6.2
			s0.4,6.1,0.4,11.7V125.2z M244.2,107.4c0-2.5-0.1-4.1-0.4-4.8c-0.3-0.7-0.9-1.1-1.7-1.1c-0.7,0-1.3,0.3-1.7,0.9s-0.6,2.2-0.6,5
			v25.3c0,3.1,0.1,5.1,0.4,5.8c0.3,0.7,0.9,1.1,1.8,1.1c1,0,1.6-0.4,1.8-1.3c0.3-0.8,0.4-2.9,0.4-6.1V107.4z"/>
		<path class="st0" d="M263.5,93.5h14c4.4,0,7.8,0.3,10.1,1c2.3,0.7,4.1,2.1,5.5,4.2s2.1,5.5,2.1,10.2c0,3.2-0.5,5.4-1.5,6.6
			s-2.9,2.2-5.9,2.9c3.3,0.7,5.5,2,6.6,3.7c1.2,1.7,1.7,4.3,1.7,7.8v5c0,3.7-0.4,6.4-1.3,8.1c-0.8,1.8-2.2,3-4,3.6s-5.6,1-11.2,1
			h-16.3V93.5H263.5z M277.6,102.7v12c0.6,0,1.1,0,1.4,0c1.4,0,2.3-0.3,2.6-1s0.6-2.6,0.6-5.8c0-1.7-0.2-2.9-0.5-3.6
			s-0.7-1.1-1.2-1.3S279.1,102.8,277.6,102.7z M277.6,123.2v15.1c2-0.1,3.2-0.4,3.8-0.9c0.5-0.6,0.8-1.9,0.8-4.1v-5
			c0-2.3-0.2-3.7-0.7-4.2C281,123.5,279.7,123.3,277.6,123.2z"/>
		<path class="st0" d="M325.7,93.5l8,54.1h-14.4l-0.8-9.7h-5l-0.8,9.7h-14.6l7.2-54.1C305.3,93.5,325.7,93.5,325.7,93.5z
			 M318.2,128.3c-0.7-6.1-1.4-13.7-2.1-22.7c-1.4,10.4-2.3,17.9-2.7,22.7H318.2z"/>
		<path class="st0" d="M370.5,147.6h-14.1v-43.3h-4.1V135c0,4-0.5,6.9-1.6,8.7c-1,1.8-2.6,2.9-4.7,3.3c-2.1,0.4-5.5,0.7-10.1,0.7
			h-2.2v-9.3c1.7,0,2.9-0.2,3.5-0.6c0.6-0.4,1-1.9,1-4.3V93.4h32.3L370.5,147.6L370.5,147.6z"/>
		<path class="st0" d="M389.6,110.9h-13.5c0-4.7,0.4-8.2,1.2-10.4s2.4-4.1,4.9-5.7s5.8-2.5,9.7-2.5c2.8,0,5.3,0.4,7.4,1.3
			s3.8,2.1,5,3.7s2.2,3.3,2.7,5.2c0.6,1.9,0.9,4.7,0.9,8.7v6.6c0,3-0.3,5.4-0.8,7.3c-0.6,1.8-1.8,3.4-3.6,4.8
			c-1.9,1.4-4.1,2.1-6.6,2.1c-3.3,0-5.7-1.3-7.3-3.8v5.8H377v-14.9h12.3c0,2.1,0.8,3.1,2.2,3.1c1.1,0,1.8-0.5,2.1-1.4
			c0.3-0.9,0.5-3.1,0.5-6.6v-9c0-2-0.1-3.3-0.4-4s-0.8-1-1.7-1c-1,0-1.7,0.5-2,1.4s-0.4,2.9-0.4,6.1V110.9z M389.6,136.8v10.8H377
			v-10.8H389.6z"/>
	</g>
	<path class="st0" d="M86.1,11.3h23.4v10.8h-9.4v10.2h8.8v10.3h-8.8v11.9h10.3v10.8H86V11.3H86.1z M95.6,0.9v8.7h-8.7V0.9H95.6z
		 M110.2,0.9v8.7h-8.7V0.9H110.2z"/>
</g>
</svg>
