<?xml version="1.0" encoding="utf-8"?>
<!-- Generator: Adobe Illustrator 19.2.1, SVG Export Plug-In . SVG Version: 6.00 Build 0)  -->
<svg version="1.1" id="Layer_1" xmlns="http://www.w3.org/2000/svg" xmlns:xlink="http://www.w3.org/1999/xlink" x="0px" y="0px"
	 width="300px" height="600px" viewBox="0 0 300 600" style="enable-background:new 0 0 300 600;" xml:space="preserve">
<style type="text/css">
	.st0{fill:#FFFFFF;}
</style>
<g>
	<path class="st0" d="M9.2,391.9h9.3l2.4-11.3h5.6L24,391.9h10.5l2.4-11.3h5.6L40,391.9h5v5.7h-6.1l-1.9,8.9h8v5.6h-9.2l-2.3,11.2
		h-5.7l2.3-11.2H19.7l-2.4,11.2h-5.7l2.4-11.2H9v-5.6h6.2l1.9-8.9H9v-5.7L9.2,391.9L9.2,391.9z M22.9,397.6l-1.9,8.9h10.5l1.9-8.9
		H22.9z"/>
	<path class="st0" d="M77.2,423.4v5.8h-9.5c-2.3,0-3.9-0.2-4.8-0.5c-1-0.3-1.5-0.9-1.9-1.5c-0.3-0.7-0.4-2-0.4-3.7
		c-2.8-0.1-5.2-0.9-7.3-2.2c-2.1-1.4-3.4-3.2-4-5.3c-0.7-2.2-1-5.4-1-9.7v-14.8c0-3.3,0.2-5.8,0.5-7.4c0.4-1.7,1.2-3.3,2.4-4.8
		s2.7-2.6,4.7-3.4c1.9-0.8,4-1.2,6.3-1.2c2.8,0,5.2,0.4,7.4,1.4c2.2,1,3.8,2.2,4.9,3.6c1.1,1.4,1.7,2.9,2.1,4.6
		c0.3,1.5,0.4,3.9,0.4,7v15.6c0,4.2-0.2,7.2-0.7,8.7c-0.4,1.5-1.2,2.7-2.4,3.6c-1.2,0.9-2.7,1.6-4.7,2.1c0.1,1.1,0.3,1.7,0.7,2.1
		c0.4,0.3,1.3,0.4,2.7,0.4h4.5C77.2,423.6,77.2,423.4,77.2,423.4z M64.7,387.8c0-2.3-0.1-3.7-0.3-4.2c-0.2-0.7-0.8-1-1.5-1
		c-0.7,0-1.2,0.2-1.5,0.8s-0.5,2-0.5,4.5v22.4c0,2.8,0.1,4.5,0.3,5.1c0.2,0.7,0.8,1,1.6,1s1.4-0.3,1.6-1.1c0.2-0.8,0.3-2.5,0.3-5.3
		V387.8z"/>
	<path class="st0" d="M103.5,375.4l7.2,48H97.9l-0.7-8.6h-4.5l-0.8,8.6H79l6.3-48H103.5z M96.8,406.3c-0.7-5.4-1.3-12.2-1.9-20.2
		c-1.3,9.2-2.1,15.9-2.4,20.2H96.8z"/>
	<path class="st0" d="M112.8,375.4h8.8c5.9,0,9.9,0.2,12,0.7c2.1,0.4,3.8,1.6,5.1,3.5c1.3,1.9,2,4.9,2,8.9c0,3.7-0.4,6.2-1.4,7.5
		c-1,1.3-2.7,2.1-5.4,2.3c2.5,0.7,4.1,1.4,5,2.5c0.9,1,1.4,2,1.6,2.8c0.2,0.9,0.3,3.3,0.3,7.1v12.6h-11.5v-15.9
		c0-2.6-0.2-4.1-0.7-4.8c-0.4-0.7-1.4-0.9-3.2-0.9v21.7h-12.5L112.8,375.4L112.8,375.4z M125.2,383.6v10.7c1.4,0,2.4-0.2,2.9-0.5
		c0.5-0.4,0.9-1.6,0.9-3.7v-2.7c0-1.5-0.2-2.5-0.8-2.9C127.7,383.9,126.6,383.6,125.2,383.6z"/>
	<path class="st0" d="M171.9,390h-11.5v-3.6c0-1.6-0.1-2.7-0.4-3.2c-0.3-0.4-0.8-0.7-1.5-0.7s-1.3,0.3-1.7,0.9
		c-0.4,0.7-0.5,1.5-0.5,2.8c0,1.6,0.2,2.8,0.7,3.6c0.4,0.8,1.6,1.7,3.5,2.9c5.6,3.3,9,6,10.5,8.2c1.4,2.1,2.2,5.6,2.2,10.2
		c0,3.4-0.4,6-1.2,7.5c-0.8,1.6-2.4,2.9-4.7,4c-2.3,1.1-5,1.6-8.1,1.6c-3.4,0-6.2-0.7-8.6-1.9c-2.4-1.3-3.9-2.8-4.7-4.8
		c-0.8-2-1.1-4.7-1.1-8.4v-3.2h11.5v5.9c0,1.9,0.1,2.9,0.4,3.5c0.3,0.5,0.9,0.8,1.7,0.8c0.9,0,1.4-0.3,1.9-1s0.7-1.6,0.7-2.9
		c0-2.8-0.4-4.7-1.2-5.6c-0.8-0.9-2.7-2.3-5.9-4.4c-3.1-2.1-5.1-3.6-6.2-4.5c-1-1-1.9-2.2-2.5-3.8s-1-3.7-1-6.3
		c0-3.7,0.4-6.3,1.4-8.1c1-1.7,2.5-3.1,4.6-4c2.1-1,4.6-1.4,7.6-1.4c3.3,0,6,0.5,8.3,1.5c2.3,1.1,3.8,2.4,4.6,3.9
		c0.8,1.6,1.1,4.2,1.1,8.1v2.1H171.9z"/>
	<path class="st0" d="M189.3,375.4v48h-12.5v-48H189.3z"/>
	<path class="st0" d="M206.8,375.4v38.5h7.6v9.6h-20v-48H206.8z"/>
	<path class="st0" d="M230,375.4v38.5h7.6v9.6h-20.2v-48H230z"/>
	<path class="st0" d="M263.6,375.4l7.2,48h-12.7l-0.7-8.6h-4.5l-0.8,8.6h-13l6.3-48H263.6z M257,406.3c-0.7-5.4-1.3-12.2-1.9-20.2
		c-1.3,9.2-2.1,15.9-2.4,20.2H257z"/>
	<path class="st0" d="M294.7,375.4v9.6h-7.4v38.5h-12.5v-38.5h-7.4v-9.6H294.7z"/>
</g>
</svg>
