<?xml version="1.0" encoding="utf-8"?>
<!-- Generator: Adobe Illustrator 19.2.1, SVG Export Plug-In . SVG Version: 6.00 Build 0)  -->
<svg version="1.1" id="Layer_1" xmlns="http://www.w3.org/2000/svg" xmlns:xlink="http://www.w3.org/1999/xlink" x="0px" y="0px"
	 width="230px" height="210px" viewBox="0 0 230 210" style="enable-background:new 0 0 230 210;" xml:space="preserve">
<style type="text/css">
	.st0{fill:#FFF200;}
</style>
<g>
	<polygon class="st0" points="70.2,165 21.4,185.3 25.4,191.8 	"/>
	<polygon class="st0" points="228.3,81.3 227.1,78.3 194.7,90.7 	"/>
	<polygon class="st0" points="214.4,64 211.4,60.5 174.7,91.7 	"/>
	<polygon class="st0" points="213.9,149.3 214.8,145.5 169.9,133.6 	"/>
	<polygon class="st0" points="214.5,161.4 215.8,159.3 172.1,140.5 	"/>
	<polygon class="st0" points="3.2,161.1 9.4,168.5 58.2,155.9 	"/>
	<polygon class="st0" points="30.6,77 29.3,80.6 63.7,99.4 	"/>
	<polygon class="st0" points="67,18 85,50.3 72,16.6 	"/>
	<polygon class="st0" points="80.7,2 76.7,4.3 92.6,45.6 	"/>
	<polygon class="st0" points="224,136.2 224.6,134.3 175.6,126.9 	"/>
	<path class="st0" d="M91.8,139.1c-0.5,2-1.1,4-1.8,6c-1.3,4.1-2.8,8.1-4.4,12.2c-1.5,4.1-3.2,8.1-4.9,12.2l-5,12.2L67,203.3
		l14-18.2l0,0c2.4-2.6,4.9-5.1,7.4-7.6c2.5-2.5,5-4.9,7.6-7.3c2.6-2.3,5.3-4.6,8-6.7c1.4-1,2.7-2,4.1-2.9c1.4-0.9,2.8-1.6,4.1-2.1
		c0.6-0.2,1.2-0.4,1.7-0.4c0.2,0,0.4,0,0.4,0l0.6,0.1c0.1,0,0.1,0.1,0.2,0.1c0.9,0.3,2.1,1.1,3.2,2.1c2.2,2,4.2,4.8,5.9,7.7
		c1.8,2.9,3.5,6,5,9.1l2.4,4.8c0.8,1.6,1.6,3.2,2.6,4.9l6,10.3l-0.1-11.8l0,0c0.2-3.6,0-6.8-0.1-10.2l-0.4-9.9
		c-0.1-3.3-0.2-6.6-0.3-9.8c0-1.6,0-3.2,0.1-4.8c0.1-1.4,0.2-2.9,0.4-4c1.1,0,2.6,0.3,3.9,0.5c3.1,0.6,6.2,1.5,9.3,2.3
		c6.3,1.7,12.6,3.8,18.8,5.7l27.4,8.7l-24.6-14.2l0,0c-5.1-4.4-10.3-8.7-15.1-13.1c-2.4-2.2-4.7-4.5-6.5-6.7
		c-0.4-0.4-0.7-0.9-0.9-1.3c1-0.6,2.2-1.3,3.6-1.9c1.4-0.6,2.9-1.2,4.4-1.8c3-1.2,6.2-2.2,9.4-3.3l19.3-6.1l13.8-4.4l-13.7-1.7l0,0
		l-8.4-2.8c-2.8-0.9-5.6-1.9-8.3-2.9c-2.7-1-5.4-2.1-7.9-3.3c-1.2-0.6-2.3-1.2-3.2-1.8c0.3-0.8,0.8-1.8,1.3-2.7
		c0.6-1.2,1.3-2.5,2.1-3.7c1.5-2.5,3-5,4.6-7.5c3.2-5,6.4-10,9.6-15L189.5,53l-15.1,12.4l0,0c-2.8,1.7-5.7,3.5-8.6,5.1
		c-2.9,1.6-5.8,3.2-8.7,4.7c-2.9,1.4-5.9,2.8-8.8,3.7c-1.5,0.5-2.9,0.8-4.2,1c-1.3,0.2-2.4,0-2.6-0.2l0,0c0,0,0,0,0,0l0,0l0,0
		l-0.2-0.2l0,0c0,0-0.2-0.2-0.3-0.4c-0.3-0.4-0.6-0.9-0.8-1.5c-0.5-1.2-1-2.6-1.3-4.1c-0.7-3-1-6.2-1.3-9.5
		c-0.3-3.3-0.4-6.6-0.5-9.9c-0.1-3.3-0.1-6.7,0-9.9l0.1-10.1l-6,8.4c-2.4,3.4-5,6.9-7.6,10.2c-2.6,3.3-5.3,6.5-8.2,9.4
		c-1.4,1.4-2.9,2.7-4.4,3.9c-1.5,1.1-3.1,2-4.5,2.5c-0.7,0.3-1.3,0.3-1.9,0.4l-1.5,0l-1.4-0.1c-1.9-0.2-4-0.5-6-1
		c-4.1-0.9-8.2-2-12.3-3.2c-4.1-1.3-8.2-2.6-12.2-4.1c-8.2-2.8-16.3-6-24.4-9.1l-10.4-4l8.6,6.6l0,0c3.1,3.1,6.2,6.2,9.2,9.4
		c3,3.2,6.1,6.3,9.1,9.6c3,3.2,5.9,6.5,8.7,9.8c2.8,3.3,5.6,6.7,8,10.1c0.6,0.9,1.2,1.7,1.7,2.6l0.8,1.3l0.1,0.2l0,0l0.2,0.4
		c0,0.1,0-0.1,0,0.1c0,0.2,0,0.4-0.2,0.9c-0.2,0.5-0.8,1.1-1.4,1.7c-1.2,1.2-2.9,2.4-4.7,3.5c-1.8,1.1-3.6,2-5.5,3
		c-3.8,1.9-7.8,3.6-11.8,5.1l-6.1,2.3l-6.1,2.1l-13.3,4.7l13.7,1.4l0,0l12.9,2.7c4.3,0.9,8.6,1.8,12.8,2.8c4.2,1,8.4,2.1,12.5,3.3
		c2,0.6,4,1.3,5.7,2.1c0.6,0.3,1.1,0.6,1.5,0.8C92.7,135,92.3,137.2,91.8,139.1z M151.7,127.8C151.7,127.7,151.7,127.7,151.7,127.8
		C151.7,127.8,151.7,127.8,151.7,127.8z M161,99.5C161,99.5,161,99.5,161,99.5L161,99.5z M47.9,118.9c0,0,44-12.8,37.7-23.7
		c-8.7-15.1-39.5-42.6-39.5-42.6s40.4,19.9,58.3,20.2c13.1,0.2,29.4-28.8,29.4-28.8s-2.5,33.4,5.4,38.9c7.8,5.5,37-14.9,37-14.9
		s-19.6,26.6-19.3,31.7c0.3,5.1,31.4,13,31.4,13s-40.7,8.2-41.5,15.1c-0.9,6.9,26.4,24.8,26.4,24.8s-32.2-12-35.8-9
		c-3.6,3.1-0.1,32.6-0.2,41.9c-3.7-6.6-12.4-29.8-22.4-30.9s-36,28.5-36,28.5s22.1-45.6,17.8-51.7C92.1,125.2,47.9,118.9,47.9,118.9
		z"/>
</g>
</svg>
