<?xml version="1.0" encoding="utf-8"?>
<!-- Generator: Adobe Illustrator 19.2.1, SVG Export Plug-In . SVG Version: 6.00 Build 0)  -->
<svg version="1.1" id="Layer_1" xmlns="http://www.w3.org/2000/svg" xmlns:xlink="http://www.w3.org/1999/xlink" x="0px" y="0px"
	 width="300px" height="600px" viewBox="0 0 300 600" style="enable-background:new 0 0 300 600;" xml:space="preserve">
<style type="text/css">
	.st0{fill:#FFFFFF;}
</style>
<g>
	<path class="st0" d="M21.2,388.3h9.3l2.4-11.4h5.6l-2.4,11.4h10.5l2.4-11.4h5.6l-2.4,11.4h5v5.7H51l-1.9,9h8v5.6H48l-2.3,11.3H40
		l2.3-11.3H31.9l-2.4,11.3h-5.7l2.4-11.3h-5V403h6.2l1.9-9h-8.1V388.3z M34.9,394l-1.9,9h10.5l1.9-9H34.9z"/>
	<path class="st0" d="M89.4,419.9v5.8H80c-2.3,0-3.9-0.2-4.8-0.5c-0.9-0.4-1.6-0.9-1.9-1.6s-0.5-1.9-0.5-3.7
		c-2.8-0.1-5.3-0.8-7.3-2.2c-2-1.4-3.4-3.2-4-5.4s-1-5.4-1-9.7v-14.9c0-3.3,0.2-5.8,0.6-7.5c0.4-1.7,1.2-3.3,2.4-4.8
		c1.2-1.5,2.8-2.7,4.7-3.4s4-1.2,6.3-1.2c2.8,0,5.3,0.5,7.5,1.4c2.2,1,3.8,2.2,4.9,3.6c1.1,1.5,1.8,3,2.1,4.6c0.3,1.6,0.5,3.9,0.5,7
		V403c0,4.3-0.2,7.2-0.6,8.7s-1.2,2.7-2.4,3.6c-1.2,0.9-2.8,1.6-4.7,2.1c0.1,1.1,0.3,1.8,0.7,2s1.3,0.4,2.8,0.4H89.4z M76.9,384.1
		c0-2.2-0.1-3.7-0.4-4.3s-0.8-0.9-1.5-0.9c-0.7,0-1.2,0.3-1.5,0.8c-0.3,0.5-0.5,2-0.5,4.5v22.5c0,2.8,0.1,4.5,0.3,5.2
		c0.2,0.7,0.8,1,1.6,1c0.9,0,1.4-0.4,1.6-1.1s0.4-2.5,0.4-5.4V384.1z"/>
	<path class="st0" d="M115.7,371.7l7.2,48.2h-12.8l-0.7-8.7h-4.5l-0.8,8.7H91.2l6.4-48.2H115.7z M109.1,402.7
		c-0.6-5.5-1.3-12.2-1.9-20.2c-1.3,9.2-2.1,16-2.4,20.2H109.1z"/>
	<path class="st0" d="M125,371.7h8.9c5.9,0,9.9,0.2,12,0.7c2.1,0.5,3.8,1.6,5.1,3.5c1.3,1.9,2,4.9,2,9c0,3.7-0.5,6.3-1.4,7.6
		c-0.9,1.3-2.8,2.1-5.5,2.3c2.5,0.6,4.1,1.4,5,2.5c0.9,1,1.4,2,1.6,2.8c0.2,0.9,0.3,3.2,0.3,7.1v12.7h-11.6v-16
		c0-2.6-0.2-4.2-0.6-4.8c-0.4-0.6-1.5-0.9-3.2-0.9v21.7H125V371.7z M137.5,380v10.7c1.4,0,2.4-0.2,3-0.6c0.6-0.4,0.8-1.6,0.8-3.8
		v-2.6c0-1.5-0.3-2.5-0.8-3C140,380.2,139,380,137.5,380z"/>
	<path class="st0" d="M170.3,371.7v38.5h7.6v9.6h-20.1v-48.2H170.3z"/>
	<path class="st0" d="M193.5,371.7v48.2H181v-48.2H193.5z"/>
	<path class="st0" d="M225.1,386.3h-11.6v-3.6c0-1.7-0.1-2.7-0.4-3.2s-0.8-0.7-1.5-0.7c-0.8,0-1.3,0.3-1.7,0.9s-0.6,1.5-0.6,2.8
		c0,1.6,0.2,2.8,0.7,3.6c0.4,0.8,1.6,1.8,3.5,2.9c5.6,3.3,9.1,6,10.5,8.1c1.4,2.1,2.2,5.5,2.2,10.3c0,3.4-0.4,6-1.2,7.6
		s-2.4,3-4.7,4.1c-2.3,1.1-5,1.7-8,1.7c-3.4,0-6.2-0.6-8.6-1.9c-2.4-1.3-3.9-2.9-4.7-4.8c-0.7-2-1.1-4.7-1.1-8.4v-3.2h11.6v5.9
		c0,1.8,0.2,3,0.5,3.5c0.3,0.5,0.9,0.8,1.7,0.8s1.5-0.3,1.9-1c0.4-0.7,0.6-1.6,0.6-2.9c0-2.8-0.4-4.7-1.2-5.6
		c-0.8-0.9-2.7-2.3-5.9-4.4c-3.1-2.1-5.2-3.6-6.2-4.5c-1-0.9-1.8-2.2-2.5-3.9c-0.7-1.6-1-3.7-1-6.3c0-3.7,0.5-6.4,1.4-8.1
		c0.9-1.7,2.5-3,4.6-4c2.1-1,4.6-1.4,7.6-1.4c3.3,0,6,0.5,8.3,1.6c2.3,1.1,3.8,2.4,4.6,4c0.7,1.6,1.1,4.3,1.1,8.1V386.3z"/>
	<path class="st0" d="M251.7,371.7l7.2,48.2H246l-0.7-8.7h-4.5l-0.8,8.7h-12.9l6.4-48.2H251.7z M245,402.7
		c-0.6-5.5-1.3-12.2-1.9-20.2c-1.3,9.2-2.1,16-2.4,20.2H245z"/>
	<path class="st0" d="M282.8,371.7v9.6h-7.4v38.5h-12.5v-38.5h-7.4v-9.6H282.8z"/>
</g>
</svg>
