<?xml version="1.0" encoding="utf-8"?>
<!-- Generator: Adobe Illustrator 19.2.1, SVG Export Plug-In . SVG Version: 6.00 Build 0)  -->
<svg version="1.1" id="Layer_2" xmlns="http://www.w3.org/2000/svg" xmlns:xlink="http://www.w3.org/1999/xlink" x="0px" y="0px"
	 width="728px" height="90px" viewBox="0 0 728 90" style="enable-background:new 0 0 728 90;" xml:space="preserve">
<style type="text/css">
	.st0{fill:#FFFFFF;}
</style>
<g>
	<path class="st0" d="M17.7,23.3H24l1.6-7.7h3.8l-1.6,7.7h7.1l1.6-7.7h3.8l-1.6,7.7h3.4v3.8h-4.2l-1.3,6.1h5.4V37h-6.2l-1.6,7.6
		h-3.8L32,37h-7.1l-1.6,7.6h-3.8l1.6-7.6h-3.4v-3.8h4.2l1.3-6.1h-5.5V23.3z M27,27.1l-1.3,6.1h7.1l1.3-6.1H27z"/>
	<path class="st0" d="M63.8,44.6v3.9h-6.4c-1.5,0-2.6-0.1-3.3-0.4s-1.1-0.6-1.3-1.1s-0.3-1.3-0.3-2.5c-1.9-0.1-3.6-0.6-4.9-1.5
		c-1.4-1-2.3-2.2-2.7-3.6s-0.7-3.7-0.7-6.6V22.8c0-2.2,0.1-3.9,0.4-5.1c0.3-1.2,0.8-2.3,1.6-3.3c0.8-1,1.9-1.8,3.2-2.3
		s2.7-0.8,4.3-0.8c1.9,0,3.6,0.3,5.1,1c1.5,0.6,2.6,1.5,3.3,2.5s1.2,2,1.4,3.1c0.2,1.1,0.3,2.7,0.3,4.8v10.6c0,2.9-0.1,4.9-0.4,5.9
		c-0.3,1-0.8,1.9-1.6,2.5c-0.8,0.6-1.9,1.1-3.2,1.4c0,0.7,0.2,1.2,0.5,1.4c0.3,0.2,0.9,0.3,1.9,0.3H63.8z M55.3,20.5
		c0-1.5-0.1-2.5-0.3-2.9c-0.2-0.4-0.5-0.6-1-0.6c-0.4,0-0.8,0.2-1,0.5s-0.4,1.4-0.4,3v15.2c0,1.9,0.1,3.1,0.2,3.5
		c0.2,0.4,0.5,0.7,1.1,0.7c0.6,0,0.9-0.3,1.1-0.8c0.2-0.5,0.2-1.7,0.2-3.6V20.5z"/>
	<path class="st0" d="M81.6,12.1l4.8,32.6h-8.7l-0.5-5.9h-3l-0.5,5.9H65l4.3-32.6H81.6z M77.1,33c-0.4-3.7-0.9-8.2-1.3-13.7
		C75,25.6,74.4,30.1,74.2,33H77.1z"/>
	<path class="st0" d="M87.9,12.1h6c4,0,6.7,0.2,8.1,0.5c1.4,0.3,2.6,1.1,3.5,2.4c0.9,1.3,1.3,3.3,1.3,6.1c0,2.5-0.3,4.2-0.9,5.1
		s-1.9,1.4-3.7,1.6c1.7,0.4,2.8,1,3.4,1.7c0.6,0.7,0.9,1.3,1.1,1.9c0.1,0.6,0.2,2.2,0.2,4.8v8.6h-7.9V33.8c0-1.7-0.1-2.8-0.4-3.2
		c-0.3-0.4-1-0.6-2.2-0.6v14.7h-8.5V12.1z M96.4,17.7v7.2c1,0,1.6-0.1,2-0.4c0.4-0.3,0.6-1.1,0.6-2.5v-1.8c0-1-0.2-1.7-0.6-2
		S97.3,17.7,96.4,17.7z"/>
	<path class="st0" d="M128,21.9h-7.9v-2.4c0-1.1-0.1-1.8-0.3-2.2c-0.2-0.3-0.5-0.5-1-0.5c-0.5,0-0.9,0.2-1.2,0.6
		c-0.3,0.4-0.4,1-0.4,1.9c0,1.1,0.1,1.9,0.4,2.5c0.3,0.5,1.1,1.2,2.4,2c3.8,2.2,6.1,4.1,7.1,5.5c1,1.4,1.5,3.7,1.5,6.9
		c0,2.3-0.3,4-0.8,5.1c-0.5,1.1-1.6,2-3.1,2.8s-3.4,1.1-5.4,1.1c-2.3,0-4.2-0.4-5.8-1.3c-1.6-0.9-2.7-2-3.1-3.3
		c-0.5-1.3-0.7-3.2-0.7-5.7V33h7.9v4c0,1.2,0.1,2,0.3,2.4c0.2,0.3,0.6,0.5,1.2,0.5s1-0.2,1.3-0.7s0.4-1.1,0.4-2
		c0-1.9-0.3-3.2-0.8-3.8c-0.5-0.6-1.9-1.6-4-3c-2.1-1.4-3.5-2.4-4.2-3c-0.7-0.6-1.3-1.5-1.7-2.6c-0.4-1.1-0.7-2.5-0.7-4.3
		c0-2.5,0.3-4.3,1-5.5c0.6-1.2,1.7-2.1,3.1-2.7c1.4-0.6,3.1-1,5.1-1c2.2,0,4.1,0.4,5.6,1.1c1.5,0.7,2.6,1.6,3.1,2.7
		c0.5,1.1,0.8,2.9,0.8,5.5V21.9z"/>
	<path class="st0" d="M139.8,12.1v32.6h-8.5V12.1H139.8z"/>
	<path class="st0" d="M151.7,12.1v26h5.1v6.5h-13.6V12.1H151.7z"/>
	<path class="st0" d="M167.4,12.1v26h5.1v6.5h-13.6V12.1H167.4z"/>
	<path class="st0" d="M190.2,12.1l4.8,32.6h-8.7l-0.5-5.9h-3l-0.5,5.9h-8.8l4.3-32.6H190.2z M185.7,33c-0.4-3.7-0.9-8.2-1.3-13.7
		c-0.9,6.2-1.4,10.8-1.6,13.7H185.7z"/>
	<path class="st0" d="M211.3,12.1v6.5h-5v26h-8.5v-26h-5v-6.5H211.3z"/>
</g>
</svg>
