<?xml version="1.0" encoding="utf-8"?>
<!-- Generator: Adobe Illustrator 19.2.1, SVG Export Plug-In . SVG Version: 6.00 Build 0)  -->
<svg version="1.1" id="Layer_2" xmlns="http://www.w3.org/2000/svg" xmlns:xlink="http://www.w3.org/1999/xlink" x="0px" y="0px"
	 width="728px" height="90px" viewBox="0 0 728 90" style="enable-background:new 0 0 728 90;" xml:space="preserve">
<style type="text/css">
	.st0{fill:#FFFFFF;}
</style>
<g>
	<path class="st0" d="M33.4,54.7l-3.1,23.1h-9.1l-3.5-23.1H24c0.7,6.4,1.3,11.8,1.6,16.2c0.3-4.5,0.6-8.4,1-11.9l0.4-4.3H33.4z"/>
	<path class="st0" d="M44.4,54.7l3.4,23.1h-6.2l-0.3-4.2h-2.2l-0.4,4.2h-6.2l3.1-23.1H44.4z M41.2,69.5c-0.3-2.6-0.6-5.9-0.9-9.7
		c-0.6,4.4-1,7.7-1.2,9.7H41.2z"/>
	<path class="st0" d="M67.9,54.7v23.1h-6v-9.7h-1.8v9.7h-6V54.7h6v8.3h1.8v-8.3H67.9z"/>
	<path class="st0" d="M80.7,54.7l3.4,23.1H78l-0.3-4.2h-2.2l-0.4,4.2h-6.2L72,54.7H80.7z M77.5,69.5c-0.3-2.6-0.6-5.9-0.9-9.7
		c-0.6,4.4-1,7.7-1.2,9.7H77.5z"/>
	<path class="st0" d="M103.7,54.7v23.1h-5.3l0-15.6l-2.1,15.6h-3.7l-2.2-15.3l0,15.3h-5.3V54.7h7.8c0.2,1.4,0.5,3,0.7,4.9l0.9,5.9
		l1.4-10.8H103.7z"/>
	<path class="st0" d="M124.7,54.7v23.1h-5.3l0-15.6l-2.1,15.6h-3.7l-2.2-15.3l0,15.3h-5.3V54.7h7.8c0.2,1.4,0.5,3,0.7,4.9l0.9,5.9
		l1.4-10.8H124.7z"/>
	<path class="st0" d="M137.5,54.7l3.4,23.1h-6.2l-0.3-4.2h-2.2l-0.4,4.2h-6.2l3.1-23.1H137.5z M134.3,69.5c-0.3-2.6-0.6-5.9-0.9-9.7
		c-0.6,4.4-1,7.7-1.2,9.7H134.3z"/>
	<path class="st0" d="M154.8,61.7h-5.6V60c0-0.8-0.1-1.3-0.2-1.5c-0.1-0.2-0.4-0.3-0.7-0.3c-0.4,0-0.6,0.1-0.8,0.4
		c-0.2,0.3-0.3,0.7-0.3,1.3c0,0.8,0.1,1.4,0.3,1.7c0.2,0.4,0.8,0.9,1.7,1.4c2.7,1.6,4.4,2.9,5.1,3.9c0.7,1,1,2.7,1,4.9
		c0,1.6-0.2,2.9-0.6,3.6c-0.4,0.8-1.1,1.4-2.2,2c-1.1,0.5-2.4,0.8-3.9,0.8c-1.6,0-3-0.3-4.1-0.9c-1.1-0.6-1.9-1.4-2.2-2.3
		c-0.4-0.9-0.5-2.3-0.5-4v-1.5h5.6v2.8c0,0.9,0.1,1.4,0.2,1.7s0.4,0.4,0.8,0.4c0.4,0,0.7-0.2,0.9-0.5s0.3-0.8,0.3-1.4
		c0-1.4-0.2-2.3-0.6-2.7c-0.4-0.4-1.3-1.1-2.8-2.1c-1.5-1-2.5-1.7-3-2.2c-0.5-0.4-0.9-1.1-1.2-1.9c-0.3-0.8-0.5-1.8-0.5-3
		c0-1.8,0.2-3.1,0.7-3.9c0.5-0.8,1.2-1.5,2.2-1.9c1-0.5,2.2-0.7,3.7-0.7c1.6,0,2.9,0.3,4,0.8c1.1,0.5,1.8,1.1,2.2,1.9
		s0.5,2.1,0.5,3.9V61.7z"/>
	<path class="st0" d="M163.2,54.7v23.1h-6V54.7H163.2z"/>
	<path class="st0" d="M179,54.7v23.1h-5.3l-3.1-10.5v10.5h-5V54.7h5l3.4,10.4V54.7H179z"/>
	<path class="st0" d="M187.5,54.7v23.1h-6V54.7H187.5z"/>
	<path class="st0" d="M208.8,68.2c0,2.3-0.1,4-0.2,4.9c-0.1,1-0.5,1.9-1,2.7c-0.6,0.8-1.4,1.4-2.3,1.8s-2.1,0.6-3.4,0.6
		c-1.2,0-2.4-0.2-3.3-0.6c-1-0.4-1.8-1-2.4-1.8c-0.6-0.8-1-1.7-1.1-2.6c-0.1-1-0.2-2.6-0.2-5v-4c0-2.3,0.1-4,0.2-4.9
		c0.1-1,0.5-1.9,1-2.7s1.4-1.4,2.3-1.8c1-0.4,2.1-0.6,3.4-0.6c1.2,0,2.4,0.2,3.3,0.6c1,0.4,1.8,1,2.4,1.8c0.6,0.8,1,1.7,1.1,2.6
		s0.2,2.6,0.2,5V68.2z M202.8,60.6c0-1.1-0.1-1.8-0.2-2.1c-0.1-0.3-0.4-0.5-0.7-0.5c-0.3,0-0.6,0.1-0.7,0.4c-0.2,0.2-0.3,1-0.3,2.2
		v10.8c0,1.3,0.1,2.2,0.2,2.5c0.1,0.3,0.4,0.5,0.8,0.5c0.4,0,0.7-0.2,0.8-0.5c0.1-0.4,0.2-1.2,0.2-2.6V60.6z"/>
	<path class="st0" d="M214.2,54.7v2.1c0,1.1-0.1,2-0.4,2.7c-0.3,0.7-0.7,1.3-1.3,1.8c-0.6,0.5-1.4,0.8-2.2,1v-1.7
		c0.6-0.3,0.9-0.7,1-1.3h-1v-4.5H214.2z"/>
	<path class="st0" d="M226,54.7v4.6l-4.5,13.9h4.5v4.6h-11.1v-3.4l4.6-15.2h-4.1v-4.6H226z"/>
	<path class="st0" d="M233.6,54.7v23.1h-6V54.7H233.6z"/>
	<path class="st0" d="M249.4,54.7v23.1h-5.3L241,67.3v10.5h-5V54.7h5l3.4,10.4V54.7H249.4z"/>
	<path class="st0" d="M265.7,63.2h-6v-2.1c0-1.3-0.1-2.2-0.2-2.5c-0.1-0.3-0.4-0.5-0.8-0.5c-0.4,0-0.6,0.1-0.8,0.4
		c-0.1,0.3-0.2,1-0.2,2.2v11.1c0,1,0.1,1.7,0.2,2.1c0.1,0.3,0.4,0.5,0.8,0.5c0.4,0,0.7-0.2,0.9-0.6c0.2-0.4,0.2-1.1,0.2-2.2v-2.7
		h-1.2v-3.5h7v12.4h-3.8l-0.6-1.7c-0.4,0.7-0.9,1.3-1.6,1.6c-0.6,0.4-1.4,0.5-2.2,0.5c-1,0-2-0.2-2.8-0.7c-0.9-0.5-1.6-1.1-2-1.8
		c-0.5-0.7-0.7-1.5-0.9-2.3c-0.1-0.8-0.2-2-0.2-3.6V63c0-2.2,0.1-3.8,0.4-4.8c0.2-1,0.9-1.9,2.1-2.8c1.1-0.8,2.6-1.3,4.4-1.3
		c1.8,0,3.2,0.4,4.4,1.1c1.2,0.7,1.9,1.6,2.3,2.6s0.5,2.4,0.5,4.3V63.2z"/>
	<path class="st0" d="M285.3,54.7v4.6h-3.6v18.5h-6V59.3h-3.6v-4.6H285.3z"/>
	<path class="st0" d="M300.3,54.7v15.5c0,1.8-0.1,3-0.2,3.7c-0.1,0.7-0.5,1.4-1,2.2c-0.6,0.7-1.3,1.3-2.2,1.7
		c-0.9,0.4-2,0.6-3.3,0.6c-1.4,0-2.6-0.2-3.7-0.7c-1.1-0.5-1.8-1.1-2.4-1.8c-0.5-0.7-0.8-1.5-0.9-2.3c-0.1-0.8-0.1-2.5-0.1-5.1V54.7
		h6V72c0,1,0.1,1.7,0.2,1.9s0.3,0.4,0.7,0.4c0.4,0,0.6-0.2,0.7-0.5c0.1-0.3,0.2-1,0.2-2.2V54.7H300.3z"/>
	<path class="st0" d="M315.4,61.7h-5.6V60c0-0.8-0.1-1.3-0.2-1.5c-0.1-0.2-0.4-0.3-0.7-0.3c-0.4,0-0.6,0.1-0.8,0.4
		c-0.2,0.3-0.3,0.7-0.3,1.3c0,0.8,0.1,1.4,0.3,1.7c0.2,0.4,0.8,0.9,1.7,1.4c2.7,1.6,4.4,2.9,5.1,3.9c0.7,1,1,2.7,1,4.9
		c0,1.6-0.2,2.9-0.6,3.6c-0.4,0.8-1.1,1.4-2.2,2c-1.1,0.5-2.4,0.8-3.9,0.8c-1.6,0-3-0.3-4.1-0.9c-1.1-0.6-1.9-1.4-2.2-2.3
		c-0.4-0.9-0.5-2.3-0.5-4v-1.5h5.6v2.8c0,0.9,0.1,1.4,0.2,1.7s0.4,0.4,0.8,0.4c0.4,0,0.7-0.2,0.9-0.5s0.3-0.8,0.3-1.4
		c0-1.4-0.2-2.3-0.6-2.7c-0.4-0.4-1.3-1.1-2.8-2.1c-1.5-1-2.5-1.7-3-2.2c-0.5-0.4-0.9-1.1-1.2-1.9c-0.3-0.8-0.5-1.8-0.5-3
		c0-1.8,0.2-3.1,0.7-3.9c0.5-0.8,1.2-1.5,2.2-1.9c1-0.5,2.2-0.7,3.7-0.7c1.6,0,2.9,0.3,4,0.8c1.1,0.5,1.8,1.1,2.2,1.9
		s0.5,2.1,0.5,3.9V61.7z"/>
	<path class="st0" d="M331.6,54.7v23.1h-6v-9.7h-1.8v9.7h-6V54.7h6v8.3h1.8v-8.3H331.6z"/>
	<path class="st0" d="M347.7,54.7v15.5c0,1.8-0.1,3-0.2,3.7c-0.1,0.7-0.5,1.4-1,2.2c-0.6,0.7-1.3,1.3-2.2,1.7
		c-0.9,0.4-2,0.6-3.3,0.6c-1.4,0-2.6-0.2-3.7-0.7c-1.1-0.5-1.8-1.1-2.4-1.8c-0.5-0.7-0.8-1.5-0.9-2.3c-0.1-0.8-0.1-2.5-0.1-5.1V54.7
		h6V72c0,1,0.1,1.7,0.2,1.9s0.3,0.4,0.7,0.4c0.4,0,0.6-0.2,0.7-0.5c0.1-0.3,0.2-1,0.2-2.2V54.7H347.7z"/>
	<path class="st0" d="M363.5,54.7v23.1h-5.3l-3.1-10.5v10.5h-5V54.7h5l3.4,10.4V54.7H363.5z"/>
	<path class="st0" d="M371.9,54.7v23.1h-6V54.7H371.9z"/>
	<path class="st0" d="M374.4,54.7h6c1.9,0,3.3,0.1,4.3,0.4c1,0.3,1.8,0.9,2.4,1.8s0.9,2.3,0.9,4.4c0,1.4-0.2,2.3-0.6,2.8
		c-0.4,0.5-1.3,0.9-2.5,1.2c1.4,0.3,2.3,0.8,2.8,1.6c0.5,0.7,0.7,1.8,0.7,3.4v2.1c0,1.6-0.2,2.7-0.5,3.5c-0.4,0.8-0.9,1.3-1.7,1.5
		s-2.4,0.4-4.8,0.4h-7V54.7z M380.4,58.6v5.1c0.3,0,0.5,0,0.6,0c0.6,0,1-0.1,1.1-0.4c0.2-0.3,0.2-1.1,0.2-2.5c0-0.7-0.1-1.2-0.2-1.5
		c-0.1-0.3-0.3-0.5-0.5-0.6C381.4,58.7,381,58.6,380.4,58.6z M380.4,67.4v6.5c0.8,0,1.4-0.2,1.6-0.4c0.2-0.2,0.3-0.8,0.3-1.8v-2.2
		c0-1-0.1-1.6-0.3-1.8S381.3,67.4,380.4,67.4z"/>
	<path class="st0" d="M408.5,54.7l-4.4,14.8v8.4h-5.6v-8.4l-4.2-14.8h5.5c0.9,4.5,1.4,7.6,1.5,9.1c0.3-2.5,0.9-5.5,1.7-9.1H408.5z"
		/>
	<path class="st0" d="M409.6,54.7h10v4.6h-4v4.4h3.8v4.4h-3.8v5.1h4.4v4.6h-10.4V54.7z"/>
	<path class="st0" d="M433.5,54.7v4.6h-3.6v18.5h-6V59.3h-3.6v-4.6H433.5z"/>
	<path class="st0" d="M441,54.7l-0.9,17.4h-4.5l-0.9-17.4H441z M440.5,73.2v4.6h-5.4v-4.6H440.5z"/>
</g>
</svg>
