<?xml version="1.0" encoding="utf-8"?>
<!-- Generator: Adobe Illustrator 19.2.1, SVG Export Plug-In . SVG Version: 6.00 Build 0)  -->
<svg version="1.1" id="Layer_2" xmlns="http://www.w3.org/2000/svg" xmlns:xlink="http://www.w3.org/1999/xlink" x="0px" y="0px"
	 width="728px" height="90px" viewBox="0 0 728 90" style="enable-background:new 0 0 728 90;" xml:space="preserve">
<style type="text/css">
	.st0{fill:#FFFFFF;}
</style>
<g>
	<path class="st0" d="M42.4,52.5l-3.4,26H28.7l-3.9-26h7.1c0.8,7.2,1.4,13.2,1.8,18.2c0.3-5,0.7-9.5,1.1-13.3l0.5-4.8H42.4z"/>
	<path class="st0" d="M54.8,52.5l3.9,26h-6.9l-0.4-4.7h-2.4l-0.4,4.7h-7l3.4-26H54.8z M51.2,69.2c-0.3-2.9-0.7-6.6-1-10.9
		c-0.7,5-1.1,8.6-1.3,10.9H51.2z"/>
	<path class="st0" d="M81.1,52.5v26h-6.8V67.6h-2v10.9h-6.8v-26h6.8v9.3h2v-9.3H81.1z"/>
	<path class="st0" d="M95.5,52.5l3.9,26h-6.9l-0.4-4.7h-2.4l-0.4,4.7h-7l3.4-26H95.5z M91.9,69.2c-0.3-2.9-0.7-6.6-1-10.9
		c-0.7,5-1.1,8.6-1.3,10.9H91.9z"/>
	<path class="st0" d="M121.3,52.5v26h-5.9l0-17.5l-2.4,17.5h-4.2l-2.5-17.1l0,17.1h-5.9v-26h8.7c0.3,1.6,0.5,3.4,0.8,5.5l1,6.6
		l1.6-12.1H121.3z"/>
	<path class="st0" d="M144.9,52.5v26H139l0-17.5l-2.4,17.5h-4.2L130,61.3l0,17.1h-5.9v-26h8.7c0.3,1.6,0.5,3.4,0.8,5.5l1,6.6
		l1.6-12.1H144.9z"/>
	<path class="st0" d="M159.3,52.5l3.9,26h-6.9l-0.4-4.7h-2.4l-0.4,4.7h-7l3.4-26H159.3z M155.7,69.2c-0.3-2.9-0.7-6.6-1-10.9
		c-0.7,5-1.1,8.6-1.3,10.9H155.7z"/>
	<path class="st0" d="M178.6,60.4h-6.3v-1.9c0-0.9-0.1-1.5-0.2-1.7c-0.2-0.2-0.4-0.4-0.8-0.4c-0.4,0-0.7,0.2-0.9,0.5
		c-0.2,0.3-0.3,0.8-0.3,1.5c0,0.9,0.1,1.5,0.4,2c0.2,0.4,0.9,1,1.9,1.6c3,1.8,4.9,3.2,5.7,4.4c0.8,1.1,1.2,3,1.2,5.5
		c0,1.9-0.2,3.2-0.6,4.1c-0.4,0.9-1.3,1.6-2.5,2.2c-1.2,0.6-2.7,0.9-4.3,0.9c-1.8,0-3.4-0.3-4.6-1c-1.3-0.7-2.1-1.6-2.5-2.6
		c-0.4-1.1-0.6-2.6-0.6-4.5v-1.7h6.3v3.2c0,1,0.1,1.6,0.3,1.9c0.2,0.3,0.5,0.4,0.9,0.4c0.4,0,0.8-0.2,1-0.5c0.2-0.4,0.3-0.9,0.3-1.6
		c0-1.5-0.2-2.5-0.6-3c-0.4-0.5-1.5-1.3-3.2-2.4c-1.7-1.1-2.8-1.9-3.3-2.4c-0.5-0.5-1-1.2-1.4-2.1c-0.4-0.9-0.5-2-0.5-3.4
		c0-2,0.3-3.4,0.8-4.4c0.5-0.9,1.3-1.6,2.5-2.2c1.1-0.5,2.5-0.8,4.1-0.8c1.8,0,3.2,0.3,4.5,0.9c1.2,0.6,2.1,1.3,2.5,2.1
		c0.4,0.9,0.6,2.3,0.6,4.4V60.4z"/>
	<path class="st0" d="M188.1,52.5v26h-6.8v-26H188.1z"/>
	<path class="st0" d="M205.8,52.5v26h-5.9l-3.5-11.8v11.8h-5.6v-26h5.6l3.8,11.7V52.5H205.8z"/>
	<path class="st0" d="M215.3,52.5v26h-6.8v-26H215.3z"/>
	<path class="st0" d="M239.3,67.7c0,2.6-0.1,4.5-0.2,5.5c-0.1,1.1-0.5,2.1-1.2,3c-0.6,0.9-1.5,1.6-2.6,2.1c-1.1,0.5-2.4,0.7-3.9,0.7
		c-1.4,0-2.6-0.2-3.7-0.7c-1.1-0.5-2-1.1-2.7-2c-0.7-0.9-1.1-1.9-1.2-3c-0.1-1.1-0.2-2.9-0.2-5.6v-4.4c0-2.6,0.1-4.5,0.2-5.5
		c0.1-1.1,0.5-2.1,1.2-3c0.6-0.9,1.5-1.6,2.6-2.1c1.1-0.5,2.4-0.7,3.9-0.7c1.4,0,2.6,0.2,3.7,0.7c1.1,0.5,2,1.1,2.7,2
		c0.7,0.9,1.1,1.9,1.2,3c0.1,1.1,0.2,2.9,0.2,5.6V67.7z M232.5,59.2c0-1.2-0.1-2-0.2-2.3c-0.1-0.3-0.4-0.5-0.8-0.5
		c-0.4,0-0.6,0.1-0.8,0.4c-0.2,0.3-0.3,1.1-0.3,2.4v12.1c0,1.5,0.1,2.4,0.2,2.8c0.1,0.4,0.4,0.5,0.9,0.5c0.5,0,0.8-0.2,0.9-0.6
		c0.1-0.4,0.2-1.4,0.2-2.9V59.2z"/>
	<path class="st0" d="M245.4,52.5v2.3c0,1.2-0.1,2.2-0.4,3c-0.3,0.8-0.8,1.4-1.5,2c-0.7,0.5-1.5,0.9-2.4,1.1V59
		c0.6-0.4,1-0.8,1.1-1.4H241v-5.1H245.4z"/>
	<path class="st0" d="M258.6,52.5v5.2l-5,15.6h5v5.2h-12.5v-3.8l5.2-17h-4.6v-5.2H258.6z"/>
	<path class="st0" d="M267.1,52.5v26h-6.8v-26H267.1z"/>
	<path class="st0" d="M284.9,52.5v26H279l-3.5-11.8v11.8h-5.6v-26h5.6l3.8,11.7V52.5H284.9z"/>
	<path class="st0" d="M303.1,62.1h-6.8v-2.4c0-1.5-0.1-2.4-0.2-2.8c-0.1-0.4-0.4-0.6-0.9-0.6c-0.4,0-0.7,0.2-0.9,0.5
		c-0.1,0.3-0.2,1.1-0.2,2.5v12.5c0,1.2,0.1,1.9,0.2,2.3c0.1,0.4,0.4,0.6,0.9,0.6c0.5,0,0.8-0.2,1-0.6c0.2-0.4,0.3-1.2,0.3-2.4v-3.1
		h-1.4v-3.9h7.9v13.9h-4.2l-0.6-1.9c-0.5,0.8-1,1.4-1.7,1.8c-0.7,0.4-1.5,0.6-2.5,0.6c-1.1,0-2.2-0.3-3.2-0.8c-1-0.6-1.7-1.2-2.3-2
		c-0.5-0.8-0.8-1.7-1-2.6c-0.1-0.9-0.2-2.2-0.2-4v-7.7c0-2.5,0.1-4.3,0.4-5.4s1-2.2,2.3-3.1c1.3-0.9,2.9-1.4,4.9-1.4
		c2,0,3.6,0.4,4.9,1.2c1.3,0.8,2.2,1.8,2.6,2.9c0.4,1.1,0.6,2.7,0.6,4.9V62.1z"/>
	<path class="st0" d="M325.1,52.5v5.2h-4v20.8h-6.8V57.7h-4v-5.2H325.1z"/>
	<path class="st0" d="M342,52.5v17.4c0,2-0.1,3.4-0.2,4.1c-0.1,0.8-0.5,1.6-1.1,2.5c-0.6,0.8-1.5,1.5-2.5,1.9
		c-1,0.4-2.2,0.6-3.7,0.6c-1.6,0-2.9-0.3-4.1-0.8c-1.2-0.5-2.1-1.2-2.7-2s-0.9-1.7-1-2.6c-0.1-0.9-0.2-2.8-0.2-5.8V52.5h6.8V72
		c0,1.1,0.1,1.9,0.2,2.2c0.1,0.3,0.4,0.5,0.7,0.5c0.4,0,0.7-0.2,0.8-0.5c0.1-0.3,0.2-1.2,0.2-2.5V52.5H342z"/>
	<path class="st0" d="M359,60.4h-6.3v-1.9c0-0.9-0.1-1.5-0.2-1.7c-0.2-0.2-0.4-0.4-0.8-0.4c-0.4,0-0.7,0.2-0.9,0.5
		c-0.2,0.3-0.3,0.8-0.3,1.5c0,0.9,0.1,1.5,0.4,2c0.2,0.4,0.9,1,1.9,1.6c3,1.8,4.9,3.2,5.7,4.4c0.8,1.1,1.2,3,1.2,5.5
		c0,1.9-0.2,3.2-0.6,4.1c-0.4,0.9-1.3,1.6-2.5,2.2c-1.2,0.6-2.7,0.9-4.3,0.9c-1.8,0-3.4-0.3-4.6-1c-1.3-0.7-2.1-1.6-2.5-2.6
		c-0.4-1.1-0.6-2.6-0.6-4.5v-1.7h6.3v3.2c0,1,0.1,1.6,0.3,1.9s0.5,0.4,0.9,0.4c0.4,0,0.8-0.2,1-0.5c0.2-0.4,0.3-0.9,0.3-1.6
		c0-1.5-0.2-2.5-0.6-3c-0.4-0.5-1.5-1.3-3.2-2.4c-1.7-1.1-2.8-1.9-3.3-2.4c-0.5-0.5-1-1.2-1.4-2.1c-0.4-0.9-0.5-2-0.5-3.4
		c0-2,0.3-3.4,0.8-4.4c0.5-0.9,1.3-1.6,2.5-2.2c1.1-0.5,2.5-0.8,4.1-0.8c1.8,0,3.2,0.3,4.5,0.9c1.2,0.6,2.1,1.3,2.5,2.1
		c0.4,0.9,0.6,2.3,0.6,4.4V60.4z"/>
	<path class="st0" d="M377.2,52.5v26h-6.8V67.6h-2v10.9h-6.8v-26h6.8v9.3h2v-9.3H377.2z"/>
	<path class="st0" d="M395.2,52.5v17.4c0,2-0.1,3.4-0.2,4.1c-0.1,0.8-0.5,1.6-1.1,2.5c-0.6,0.8-1.5,1.5-2.5,1.9
		c-1,0.4-2.2,0.6-3.7,0.6c-1.6,0-2.9-0.3-4.1-0.8c-1.2-0.5-2.1-1.2-2.7-2s-0.9-1.7-1-2.6c-0.1-0.9-0.2-2.8-0.2-5.8V52.5h6.8V72
		c0,1.1,0.1,1.9,0.2,2.2c0.1,0.3,0.4,0.5,0.7,0.5c0.4,0,0.7-0.2,0.8-0.5c0.1-0.3,0.2-1.2,0.2-2.5V52.5H395.2z"/>
	<path class="st0" d="M412.9,52.5v26H407l-3.5-11.8v11.8h-5.6v-26h5.6l3.8,11.7V52.5H412.9z"/>
	<path class="st0" d="M422.4,52.5v26h-6.8v-26H422.4z"/>
	<path class="st0" d="M425.1,52.5h6.7c2.1,0,3.7,0.2,4.8,0.5c1.1,0.3,2,1,2.7,2c0.7,1,1,2.6,1,4.9c0,1.5-0.2,2.6-0.7,3.2
		s-1.4,1.1-2.8,1.4c1.6,0.4,2.6,0.9,3.2,1.8c0.6,0.8,0.8,2.1,0.8,3.8v2.4c0,1.8-0.2,3.1-0.6,3.9c-0.4,0.8-1,1.4-1.9,1.7
		c-0.9,0.3-2.7,0.5-5.4,0.5h-7.8V52.5z M431.9,56.9v5.8c0.3,0,0.5,0,0.7,0c0.7,0,1.1-0.2,1.3-0.5c0.2-0.3,0.3-1.3,0.3-2.8
		c0-0.8-0.1-1.4-0.2-1.7c-0.2-0.3-0.3-0.5-0.6-0.6C433,57,432.6,57,431.9,56.9z M431.9,66.8V74c1,0,1.6-0.2,1.8-0.4
		c0.3-0.3,0.4-0.9,0.4-2v-2.4c0-1.1-0.1-1.8-0.4-2C433.5,66.9,432.9,66.8,431.9,66.8z"/>
</g>
</svg>
