<?xml version="1.0" encoding="utf-8"?>
<!-- Generator: Adobe Illustrator 19.2.1, SVG Export Plug-In . SVG Version: 6.00 Build 0)  -->
<svg version="1.1" id="Layer_1" xmlns="http://www.w3.org/2000/svg" xmlns:xlink="http://www.w3.org/1999/xlink" x="0px" y="0px"
	 width="300px" height="600px" viewBox="0 0 300 600" style="enable-background:new 0 0 300 600;" xml:space="preserve">
<style type="text/css">
	.st0{fill:#FFFFFF;}
</style>
<g>
	<path class="st0" d="M44.8,434.6l-4.6,34.9H26.4l-5.2-34.9h9.6c1.1,9.6,1.9,17.8,2.4,24.4c0.5-6.7,1-12.7,1.5-17.9l0.6-6.5H44.8z"
		/>
	<path class="st0" d="M61.5,434.6l5.2,34.9h-9.3l-0.5-6.3h-3.2l-0.5,6.3h-9.4l4.6-34.9H61.5z M56.7,457c-0.5-4-0.9-8.8-1.4-14.7
		c-0.9,6.7-1.5,11.6-1.7,14.7H56.7z"/>
	<path class="st0" d="M96.9,434.6v34.9h-9.1v-14.7h-2.7v14.7H76v-34.9h9.1V447h2.7v-12.5H96.9z"/>
	<path class="st0" d="M116.2,434.6l5.2,34.9h-9.3l-0.5-6.3h-3.2l-0.5,6.3h-9.4l4.6-34.9H116.2z M111.4,457c-0.5-4-0.9-8.8-1.4-14.7
		c-0.9,6.7-1.5,11.6-1.7,14.7H111.4z"/>
	<path class="st0" d="M151,434.6v34.9h-7.9l0-23.6l-3.2,23.6h-5.6l-3.3-23l0,23H123v-34.9h11.8c0.3,2.1,0.7,4.6,1.1,7.4l1.3,8.9
		l2.1-16.3H151z"/>
	<path class="st0" d="M182.7,434.6v34.9h-7.9l0-23.6l-3.2,23.6h-5.6l-3.3-23l0,23h-7.9v-34.9h11.8c0.3,2.1,0.7,4.6,1.1,7.4l1.3,8.9
		l2.1-16.3H182.7z"/>
	<path class="st0" d="M202,434.6l5.2,34.9h-9.3l-0.5-6.3h-3.2l-0.5,6.3h-9.4l4.6-34.9H202z M197.2,457c-0.5-4-0.9-8.8-1.4-14.7
		c-0.9,6.7-1.5,11.6-1.7,14.7H197.2z"/>
	<path class="st0" d="M228,445.1h-8.4v-2.6c0-1.2-0.1-2-0.3-2.3c-0.2-0.3-0.6-0.5-1.1-0.5c-0.5,0-1,0.2-1.2,0.7s-0.4,1.1-0.4,2
		c0,1.2,0.2,2,0.5,2.6c0.3,0.6,1.2,1.3,2.6,2.1c4,2.4,6.6,4.4,7.6,5.9c1,1.5,1.6,4,1.6,7.4c0,2.5-0.3,4.3-0.9,5.5
		c-0.6,1.2-1.7,2.2-3.4,3c-1.7,0.8-3.6,1.2-5.8,1.2c-2.4,0-4.5-0.5-6.2-1.4c-1.7-0.9-2.8-2.1-3.4-3.5s-0.8-3.4-0.8-6.1V457h8.4v4.2
		c0,1.3,0.1,2.2,0.4,2.5s0.7,0.6,1.3,0.6c0.6,0,1.1-0.2,1.3-0.7s0.4-1.2,0.4-2.1c0-2.1-0.3-3.4-0.8-4c-0.6-0.6-2-1.7-4.3-3.2
		c-2.3-1.5-3.8-2.6-4.5-3.3s-1.3-1.6-1.8-2.8c-0.5-1.2-0.7-2.7-0.7-4.6c0-2.7,0.3-4.6,1-5.9c0.7-1.2,1.8-2.2,3.3-2.9
		c1.5-0.7,3.4-1,5.5-1c2.4,0,4.4,0.4,6,1.1c1.7,0.8,2.8,1.7,3.3,2.9c0.5,1.2,0.8,3.1,0.8,5.9V445.1z"/>
	<path class="st0" d="M240.7,434.6v34.9h-9.1v-34.9H240.7z"/>
	<path class="st0" d="M264.6,434.6v34.9h-8l-4.7-15.9v15.9h-7.6v-34.9h7.6l5.1,15.7v-15.7H264.6z"/>
	<path class="st0" d="M277.3,434.6v34.9h-9.1v-34.9H277.3z"/>
</g>
</svg>
