<?xml version="1.0" encoding="utf-8"?>
<!-- Generator: Adobe Illustrator 19.2.1, SVG Export Plug-In . SVG Version: 6.00 Build 0)  -->
<svg version="1.1" id="Layer_1" xmlns="http://www.w3.org/2000/svg" xmlns:xlink="http://www.w3.org/1999/xlink" x="0px" y="0px"
	 width="300px" height="300px" viewBox="0 0 300 300" style="enable-background:new 0 0 300 300;" xml:space="preserve">
<style type="text/css">
	.st0{fill:#FFFFFF;}
</style>
<g>
	<path class="st0" d="M56.7,235.7h6l1.6-7.4h3.7l-1.5,7.4h6.9l1.5-7.4h3.7l-1.5,7.4h3.2v3.7h-4l-1.2,5.9h5.2v3.7h-6l-1.5,7.4H69
		l1.5-7.4h-6.9l-1.5,7.4h-3.7l1.5-7.4h-3.3v-3.7h4l1.2-5.9h-5.3V235.7z M65.6,239.3l-1.2,5.9h6.9l1.2-5.9H65.6z"/>
	<path class="st0" d="M101.1,256.2v3.8H95c-1.5,0-2.5-0.1-3.1-0.3c-0.6-0.2-1-0.6-1.2-1c-0.2-0.5-0.3-1.3-0.3-2.4
		c-1.8-0.1-3.4-0.5-4.8-1.5c-1.3-0.9-2.2-2.1-2.6-3.5c-0.4-1.4-0.6-3.5-0.6-6.4v-9.7c0-2.1,0.1-3.8,0.4-4.9c0.3-1.1,0.8-2.2,1.6-3.2
		c0.8-1,1.8-1.7,3-2.2s2.6-0.8,4.1-0.8c1.8,0,3.4,0.3,4.9,0.9c1.4,0.6,2.5,1.4,3.2,2.4c0.7,1,1.2,1.9,1.4,3c0.2,1,0.3,2.6,0.3,4.6
		v10.2c0,2.8-0.1,4.7-0.4,5.7c-0.3,1-0.8,1.8-1.6,2.4c-0.8,0.6-1.8,1-3.1,1.3c0,0.7,0.2,1.1,0.4,1.3c0.3,0.2,0.8,0.3,1.8,0.3H101.1z
		 M93,232.9c0-1.5-0.1-2.4-0.2-2.8c-0.2-0.4-0.5-0.6-1-0.6c-0.4,0-0.8,0.2-1,0.5c-0.2,0.3-0.3,1.3-0.3,2.9v14.7
		c0,1.8,0.1,2.9,0.2,3.4c0.1,0.4,0.5,0.6,1,0.6c0.6,0,0.9-0.2,1.1-0.7c0.2-0.5,0.2-1.7,0.2-3.5V232.9z"/>
	<path class="st0" d="M118.3,224.8l4.7,31.4h-8.3l-0.4-5.6h-2.9l-0.5,5.6h-8.4l4.2-31.4H118.3z M114,245c-0.4-3.6-0.8-8-1.2-13.2
		c-0.8,6-1.4,10.4-1.6,13.2H114z"/>
	<path class="st0" d="M124.3,224.8h5.8c3.9,0,6.5,0.1,7.8,0.4c1.4,0.3,2.5,1.1,3.3,2.3c0.9,1.2,1.3,3.2,1.3,5.8
		c0,2.4-0.3,4.1-0.9,4.9s-1.8,1.3-3.6,1.5c1.6,0.4,2.7,0.9,3.3,1.6c0.6,0.7,0.9,1.3,1,1.9c0.1,0.6,0.2,2.1,0.2,4.6v8.3H135v-10.4
		c0-1.7-0.1-2.7-0.4-3.1c-0.3-0.4-1-0.6-2.1-0.6v14.2h-8.2V224.8z M132.5,230.2v7c0.9,0,1.6-0.1,1.9-0.4c0.4-0.3,0.6-1.1,0.6-2.5
		v-1.7c0-1-0.2-1.6-0.5-2C134.1,230.4,133.4,230.2,132.5,230.2z"/>
	<path class="st0" d="M163,234.3h-7.6V232c0-1.1-0.1-1.8-0.3-2.1c-0.2-0.3-0.5-0.4-1-0.4c-0.5,0-0.9,0.2-1.1,0.6
		c-0.3,0.4-0.4,1-0.4,1.8c0,1,0.1,1.8,0.4,2.4c0.3,0.5,1,1.2,2.3,1.9c3.6,2.2,5.9,3.9,6.9,5.3c0.9,1.4,1.4,3.6,1.4,6.7
		c0,2.2-0.3,3.9-0.8,4.9c-0.5,1.1-1.5,1.9-3,2.7c-1.5,0.7-3.2,1.1-5.2,1.1c-2.2,0-4.1-0.4-5.6-1.2c-1.5-0.8-2.6-1.9-3-3.2
		c-0.5-1.3-0.7-3.1-0.7-5.4V245h7.6v3.8c0,1.2,0.1,1.9,0.3,2.3c0.2,0.3,0.6,0.5,1.1,0.5c0.5,0,0.9-0.2,1.2-0.6
		c0.3-0.4,0.4-1.1,0.4-1.9c0-1.8-0.3-3.1-0.8-3.6c-0.5-0.6-1.8-1.5-3.8-2.9c-2-1.3-3.4-2.3-4-2.9c-0.7-0.6-1.2-1.4-1.6-2.5
		c-0.4-1.1-0.6-2.4-0.6-4.1c0-2.4,0.3-4.2,0.9-5.3c0.6-1.1,1.6-2,3-2.6c1.4-0.6,3-0.9,5-0.9c2.1,0,3.9,0.3,5.4,1
		c1.5,0.7,2.5,1.5,3,2.6c0.5,1,0.7,2.8,0.7,5.3V234.3z"/>
	<path class="st0" d="M174.4,224.8v31.4h-8.2v-31.4H174.4z"/>
	<path class="st0" d="M185.9,224.8V250h5v6.3h-13.1v-31.4H185.9z"/>
	<path class="st0" d="M201,224.8V250h5v6.3h-13.1v-31.4H201z"/>
	<path class="st0" d="M223,224.8l4.7,31.4h-8.3l-0.4-5.6H216l-0.5,5.6h-8.4l4.2-31.4H223z M218.7,245c-0.4-3.6-0.8-8-1.2-13.2
		c-0.8,6-1.4,10.4-1.6,13.2H218.7z"/>
	<path class="st0" d="M243.3,224.8v6.3h-4.8v25.1h-8.2v-25.1h-4.8v-6.3H243.3z"/>
</g>
</svg>
