<?xml version="1.0" encoding="utf-8"?>
<!-- Generator: Adobe Illustrator 19.2.1, SVG Export Plug-In . SVG Version: 6.00 Build 0)  -->
<svg version="1.1" id="Layer_1" xmlns="http://www.w3.org/2000/svg" xmlns:xlink="http://www.w3.org/1999/xlink" x="0px" y="0px"
	 width="300px" height="300px" viewBox="0 0 300 300" style="enable-background:new 0 0 300 300;" xml:space="preserve">
<style type="text/css">
	.st0{fill:#FFFFFF;}
</style>
<g>
	<path class="st0" d="M20.1,266.2l-2,15.3H12l-2.3-15.3h4.2c0.5,4.2,0.8,7.8,1,10.7c0.2-3,0.4-5.6,0.7-7.9l0.3-2.9H20.1z"/>
	<path class="st0" d="M27.4,266.2l2.3,15.3h-4.1l-0.2-2.8h-1.4l-0.2,2.8h-4.1l2-15.3H27.4z M25.3,276c-0.2-1.7-0.4-3.9-0.6-6.4
		c-0.4,2.9-0.7,5.1-0.8,6.4H25.3z"/>
	<path class="st0" d="M42.9,266.2v15.3h-4v-6.4h-1.2v6.4h-4v-15.3h4v5.5h1.2v-5.5H42.9z"/>
	<path class="st0" d="M51.4,266.2l2.3,15.3h-4.1l-0.2-2.8H48l-0.2,2.8h-4.1l2-15.3H51.4z M49.3,276c-0.2-1.7-0.4-3.9-0.6-6.4
		c-0.4,2.9-0.7,5.1-0.8,6.4H49.3z"/>
	<path class="st0" d="M66.7,266.2v15.3h-3.5l0-10.4l-1.4,10.4h-2.5l-1.5-10.1l0,10.1h-3.5v-15.3h5.2c0.2,0.9,0.3,2,0.5,3.3l0.6,3.9
		l0.9-7.2H66.7z"/>
	<path class="st0" d="M80.6,266.2v15.3h-3.5l0-10.4l-1.4,10.4h-2.5l-1.5-10.1l0,10.1h-3.5v-15.3h5.2c0.2,0.9,0.3,2,0.5,3.3l0.6,3.9
		l0.9-7.2H80.6z"/>
	<path class="st0" d="M89.1,266.2l2.3,15.3h-4.1l-0.2-2.8h-1.4l-0.2,2.8h-4.1l2-15.3H89.1z M87,276c-0.2-1.7-0.4-3.9-0.6-6.4
		c-0.4,2.9-0.7,5.1-0.8,6.4H87z"/>
	<path class="st0" d="M100.5,270.8h-3.7v-1.1c0-0.5,0-0.9-0.1-1c-0.1-0.1-0.3-0.2-0.5-0.2c-0.2,0-0.4,0.1-0.5,0.3
		c-0.1,0.2-0.2,0.5-0.2,0.9c0,0.5,0.1,0.9,0.2,1.2c0.1,0.3,0.5,0.6,1.1,0.9c1.8,1.1,2.9,1.9,3.4,2.6c0.5,0.7,0.7,1.8,0.7,3.3
		c0,1.1-0.1,1.9-0.4,2.4c-0.3,0.5-0.8,1-1.5,1.3c-0.7,0.4-1.6,0.5-2.6,0.5c-1.1,0-2-0.2-2.7-0.6c-0.8-0.4-1.2-0.9-1.5-1.5
		c-0.2-0.6-0.4-1.5-0.4-2.7v-1h3.7v1.9c0,0.6,0.1,0.9,0.2,1.1c0.1,0.2,0.3,0.2,0.6,0.2c0.3,0,0.5-0.1,0.6-0.3s0.2-0.5,0.2-0.9
		c0-0.9-0.1-1.5-0.4-1.8c-0.3-0.3-0.9-0.7-1.9-1.4c-1-0.7-1.6-1.1-2-1.4c-0.3-0.3-0.6-0.7-0.8-1.2c-0.2-0.5-0.3-1.2-0.3-2
		c0-1.2,0.1-2,0.5-2.6c0.3-0.5,0.8-1,1.5-1.3c0.7-0.3,1.5-0.5,2.4-0.5c1,0,1.9,0.2,2.6,0.5c0.7,0.3,1.2,0.8,1.5,1.3s0.4,1.4,0.4,2.6
		V270.8z"/>
	<path class="st0" d="M106.1,266.2v15.3h-4v-15.3H106.1z"/>
	<path class="st0" d="M116.6,266.2v15.3h-3.5l-2.1-7v7h-3.3v-15.3h3.3l2.2,6.9v-6.9H116.6z"/>
	<path class="st0" d="M122.2,266.2v15.3h-4v-15.3H122.2z"/>
	<path class="st0" d="M136.4,275.2c0,1.5,0,2.6-0.1,3.3c-0.1,0.6-0.3,1.2-0.7,1.8c-0.4,0.5-0.9,0.9-1.5,1.2
		c-0.7,0.3-1.4,0.4-2.3,0.4c-0.8,0-1.6-0.1-2.2-0.4c-0.7-0.3-1.2-0.7-1.6-1.2c-0.4-0.5-0.6-1.1-0.7-1.8c-0.1-0.6-0.1-1.7-0.1-3.3
		v-2.6c0-1.5,0-2.6,0.1-3.3c0.1-0.6,0.3-1.2,0.7-1.8c0.4-0.5,0.9-0.9,1.5-1.2c0.7-0.3,1.4-0.4,2.3-0.4c0.8,0,1.6,0.1,2.2,0.4
		c0.7,0.3,1.2,0.7,1.6,1.2c0.4,0.5,0.6,1.1,0.7,1.8c0.1,0.6,0.1,1.7,0.1,3.3V275.2z M132.4,270.1c0-0.7,0-1.2-0.1-1.4
		c-0.1-0.2-0.2-0.3-0.5-0.3c-0.2,0-0.4,0.1-0.5,0.2c-0.1,0.2-0.2,0.6-0.2,1.4v7.2c0,0.9,0,1.4,0.1,1.6c0.1,0.2,0.2,0.3,0.5,0.3
		c0.3,0,0.4-0.1,0.5-0.4c0.1-0.2,0.1-0.8,0.1-1.7V270.1z"/>
	<path class="st0" d="M140,266.2v1.4c0,0.7-0.1,1.3-0.3,1.8c-0.2,0.5-0.5,0.9-0.9,1.2c-0.4,0.3-0.9,0.5-1.4,0.6V270
		c0.4-0.2,0.6-0.5,0.6-0.9h-0.6v-3H140z"/>
	<path class="st0" d="M147.8,266.2v3.1l-3,9.2h3v3.1h-7.4v-2.2l3.1-10h-2.7v-3.1H147.8z"/>
	<path class="st0" d="M152.8,266.2v15.3h-4v-15.3H152.8z"/>
	<path class="st0" d="M163.3,266.2v15.3h-3.5l-2.1-7v7h-3.3v-15.3h3.3l2.2,6.9v-6.9H163.3z"/>
	<path class="st0" d="M174.1,271.8h-4v-1.4c0-0.9,0-1.4-0.1-1.6c-0.1-0.2-0.3-0.3-0.5-0.3c-0.2,0-0.4,0.1-0.5,0.3
		c-0.1,0.2-0.1,0.7-0.1,1.5v7.4c0,0.7,0,1.1,0.1,1.4c0.1,0.2,0.3,0.3,0.5,0.3c0.3,0,0.5-0.1,0.6-0.4c0.1-0.2,0.2-0.7,0.2-1.4v-1.8
		h-0.8v-2.3h4.7v8.2h-2.5l-0.4-1.1c-0.3,0.5-0.6,0.8-1,1.1c-0.4,0.2-0.9,0.4-1.5,0.4c-0.7,0-1.3-0.2-1.9-0.5c-0.6-0.3-1-0.7-1.3-1.2
		c-0.3-0.5-0.5-1-0.6-1.5c-0.1-0.5-0.1-1.3-0.1-2.4v-4.6c0-1.5,0.1-2.5,0.2-3.2c0.2-0.7,0.6-1.3,1.4-1.8c0.7-0.6,1.7-0.8,2.9-0.8
		c1.2,0,2.1,0.2,2.9,0.7c0.8,0.5,1.3,1.1,1.5,1.7c0.2,0.7,0.4,1.6,0.4,2.9V271.8z"/>
	<path class="st0" d="M187.1,266.2v3.1h-2.4v12.3h-4v-12.3h-2.4v-3.1H187.1z"/>
	<path class="st0" d="M197.1,266.2v10.3c0,1.2,0,2-0.1,2.5c-0.1,0.5-0.3,1-0.7,1.5c-0.4,0.5-0.9,0.9-1.5,1.1
		c-0.6,0.3-1.3,0.4-2.2,0.4c-0.9,0-1.7-0.2-2.4-0.5c-0.7-0.3-1.2-0.7-1.6-1.2c-0.3-0.5-0.6-1-0.6-1.5c-0.1-0.5-0.1-1.7-0.1-3.4v-9.1
		h4v11.5c0,0.7,0,1.1,0.1,1.3c0.1,0.2,0.2,0.3,0.4,0.3c0.3,0,0.4-0.1,0.5-0.3c0.1-0.2,0.1-0.7,0.1-1.5v-11.3H197.1z"/>
	<path class="st0" d="M207.1,270.8h-3.7v-1.1c0-0.5,0-0.9-0.1-1c-0.1-0.1-0.3-0.2-0.5-0.2c-0.2,0-0.4,0.1-0.5,0.3
		c-0.1,0.2-0.2,0.5-0.2,0.9c0,0.5,0.1,0.9,0.2,1.2c0.1,0.3,0.5,0.6,1.1,0.9c1.8,1.1,2.9,1.9,3.4,2.6c0.5,0.7,0.7,1.8,0.7,3.3
		c0,1.1-0.1,1.9-0.4,2.4c-0.3,0.5-0.8,1-1.5,1.3c-0.7,0.4-1.6,0.5-2.6,0.5c-1.1,0-2-0.2-2.7-0.6c-0.8-0.4-1.2-0.9-1.5-1.5
		c-0.2-0.6-0.4-1.5-0.4-2.7v-1h3.7v1.9c0,0.6,0.1,0.9,0.2,1.1c0.1,0.2,0.3,0.2,0.6,0.2c0.3,0,0.5-0.1,0.6-0.3
		c0.1-0.2,0.2-0.5,0.2-0.9c0-0.9-0.1-1.5-0.4-1.8c-0.3-0.3-0.9-0.7-1.9-1.4c-1-0.7-1.6-1.1-2-1.4c-0.3-0.3-0.6-0.7-0.8-1.2
		c-0.2-0.5-0.3-1.2-0.3-2c0-1.2,0.1-2,0.4-2.6c0.3-0.5,0.8-1,1.5-1.3c0.7-0.3,1.5-0.5,2.4-0.5c1,0,1.9,0.2,2.6,0.5
		c0.7,0.3,1.2,0.8,1.5,1.3s0.4,1.4,0.4,2.6V270.8z"/>
	<path class="st0" d="M217.8,266.2v15.3h-4v-6.4h-1.2v6.4h-4v-15.3h4v5.5h1.2v-5.5H217.8z"/>
	<path class="st0" d="M228.5,266.2v10.3c0,1.2,0,2-0.1,2.5c-0.1,0.5-0.3,1-0.7,1.5c-0.4,0.5-0.9,0.9-1.5,1.1
		c-0.6,0.3-1.3,0.4-2.2,0.4c-0.9,0-1.7-0.2-2.4-0.5c-0.7-0.3-1.2-0.7-1.6-1.2c-0.3-0.5-0.6-1-0.6-1.5c-0.1-0.5-0.1-1.7-0.1-3.4v-9.1
		h4v11.5c0,0.7,0,1.1,0.1,1.3c0.1,0.2,0.2,0.3,0.4,0.3c0.3,0,0.4-0.1,0.5-0.3c0.1-0.2,0.1-0.7,0.1-1.5v-11.3H228.5z"/>
	<path class="st0" d="M239,266.2v15.3h-3.5l-2.1-7v7H230v-15.3h3.3l2.2,6.9v-6.9H239z"/>
	<path class="st0" d="M244.5,266.2v15.3h-4v-15.3H244.5z"/>
	<path class="st0" d="M246.2,266.2h4c1.3,0,2.2,0.1,2.9,0.3c0.6,0.2,1.2,0.6,1.6,1.2c0.4,0.6,0.6,1.6,0.6,2.9c0,0.9-0.1,1.5-0.4,1.9
		c-0.3,0.4-0.8,0.6-1.7,0.8c0.9,0.2,1.5,0.6,1.9,1c0.3,0.5,0.5,1.2,0.5,2.2v1.4c0,1-0.1,1.8-0.4,2.3c-0.2,0.5-0.6,0.8-1.1,1
		c-0.5,0.2-1.6,0.3-3.2,0.3h-4.6V266.2z M250.1,268.8v3.4c0.2,0,0.3,0,0.4,0c0.4,0,0.6-0.1,0.7-0.3c0.1-0.2,0.2-0.7,0.2-1.7
		c0-0.5,0-0.8-0.1-1c-0.1-0.2-0.2-0.3-0.3-0.4C250.8,268.8,250.6,268.8,250.1,268.8z M250.1,274.6v4.3c0.6,0,0.9-0.1,1.1-0.3
		c0.2-0.2,0.2-0.5,0.2-1.2V276c0-0.7-0.1-1.1-0.2-1.2C251.1,274.7,250.7,274.6,250.1,274.6z"/>
	<path class="st0" d="M268.8,266.2l-2.9,9.8v5.6h-3.7V276l-2.8-9.8h3.7c0.6,3,0.9,5,1,6c0.2-1.6,0.6-3.7,1.1-6H268.8z"/>
	<path class="st0" d="M269.5,266.2h6.7v3.1h-2.7v2.9h2.5v2.9h-2.5v3.4h2.9v3.1h-6.9V266.2z"/>
	<path class="st0" d="M285.3,266.2v3.1H283v12.3h-4v-12.3h-2.4v-3.1H285.3z"/>
	<path class="st0" d="M290.3,266.2l-0.6,11.6h-3l-0.6-11.6H290.3z M290,278.5v3.1h-3.6v-3.1H290z"/>
</g>
</svg>
