<?xml version="1.0" encoding="utf-8"?>
<!-- Generator: Adobe Illustrator 19.2.1, SVG Export Plug-In . SVG Version: 6.00 Build 0)  -->
<svg version="1.1" id="Layer_1" xmlns="http://www.w3.org/2000/svg" xmlns:xlink="http://www.w3.org/1999/xlink" x="0px" y="0px"
	 width="300px" height="300px" viewBox="0 0 300 300" style="enable-background:new 0 0 300 300;" xml:space="preserve">
<style type="text/css">
	.st0{fill:#FFFFFF;}
</style>
<g>
	<path class="st0" d="M26.9,264.3l-2.2,16.8h-6.6l-2.5-16.8h4.6c0.5,4.6,0.9,8.5,1.1,11.7c0.2-3.2,0.5-6.1,0.7-8.6l0.3-3.1H26.9z"/>
	<path class="st0" d="M34.9,264.3l2.5,16.8h-4.5l-0.2-3h-1.6l-0.3,3h-4.5l2.2-16.8H34.9z M32.6,275.1c-0.2-1.9-0.4-4.3-0.7-7.1
		c-0.4,3.2-0.7,5.6-0.8,7.1H32.6z"/>
	<path class="st0" d="M51.9,264.3v16.8h-4.4V274h-1.3v7.1h-4.4v-16.8h4.4v6h1.3v-6H51.9z"/>
	<path class="st0" d="M61.2,264.3l2.5,16.8h-4.5l-0.2-3h-1.6l-0.3,3h-4.5l2.2-16.8H61.2z M58.9,275.1c-0.2-1.9-0.4-4.3-0.7-7.1
		c-0.4,3.2-0.7,5.6-0.8,7.1H58.9z"/>
	<path class="st0" d="M78,264.3v16.8h-3.8l0-11.3l-1.5,11.3h-2.7L68.3,270l0,11.1h-3.8v-16.8h5.7c0.2,1,0.3,2.2,0.5,3.6l0.6,4.3
		l1-7.8H78z"/>
	<path class="st0" d="M93.2,264.3v16.8h-3.8l0-11.3l-1.5,11.3h-2.7L83.5,270l0,11.1h-3.8v-16.8h5.7c0.2,1,0.3,2.2,0.5,3.6l0.6,4.3
		l1-7.8H93.2z"/>
	<path class="st0" d="M102.5,264.3l2.5,16.8h-4.5l-0.2-3h-1.6l-0.3,3h-4.5l2.2-16.8H102.5z M100.2,275.1c-0.2-1.9-0.4-4.3-0.7-7.1
		c-0.4,3.2-0.7,5.6-0.8,7.1H100.2z"/>
	<path class="st0" d="M115,269.4h-4.1v-1.2c0-0.6-0.1-1-0.2-1.1c-0.1-0.2-0.3-0.2-0.5-0.2c-0.3,0-0.5,0.1-0.6,0.3
		c-0.1,0.2-0.2,0.5-0.2,1c0,0.6,0.1,1,0.2,1.3c0.1,0.3,0.6,0.6,1.2,1c1.9,1.2,3.2,2.1,3.7,2.8c0.5,0.7,0.8,1.9,0.8,3.6
		c0,1.2-0.1,2.1-0.4,2.6c-0.3,0.6-0.8,1-1.6,1.4c-0.8,0.4-1.7,0.6-2.8,0.6c-1.2,0-2.2-0.2-3-0.7c-0.8-0.4-1.4-1-1.6-1.7
		c-0.3-0.7-0.4-1.7-0.4-2.9v-1.1h4.1v2c0,0.6,0.1,1,0.2,1.2c0.1,0.2,0.3,0.3,0.6,0.3c0.3,0,0.5-0.1,0.6-0.3c0.1-0.2,0.2-0.6,0.2-1
		c0-1-0.1-1.6-0.4-1.9c-0.3-0.3-1-0.8-2-1.5c-1.1-0.7-1.8-1.2-2.2-1.6c-0.4-0.3-0.6-0.8-0.9-1.3c-0.2-0.6-0.3-1.3-0.3-2.2
		c0-1.3,0.2-2.2,0.5-2.8c0.3-0.6,0.9-1.1,1.6-1.4c0.7-0.3,1.6-0.5,2.7-0.5c1.1,0,2.1,0.2,2.9,0.5c0.8,0.4,1.3,0.8,1.6,1.4
		c0.3,0.6,0.4,1.5,0.4,2.8V269.4z"/>
	<path class="st0" d="M121.1,264.3v16.8h-4.4v-16.8H121.1z"/>
	<path class="st0" d="M132.6,264.3v16.8h-3.8l-2.3-7.6v7.6h-3.7v-16.8h3.7l2.4,7.6v-7.6H132.6z"/>
	<path class="st0" d="M138.7,264.3v16.8h-4.4v-16.8H138.7z"/>
	<path class="st0" d="M154.2,274.1c0,1.7,0,2.9-0.1,3.6c-0.1,0.7-0.3,1.3-0.7,1.9c-0.4,0.6-1,1-1.7,1.3c-0.7,0.3-1.5,0.5-2.5,0.5
		c-0.9,0-1.7-0.1-2.4-0.4c-0.7-0.3-1.3-0.7-1.7-1.3c-0.4-0.6-0.7-1.2-0.8-1.9c-0.1-0.7-0.1-1.9-0.1-3.6v-2.9c0-1.7,0-2.9,0.1-3.6
		c0.1-0.7,0.3-1.3,0.7-1.9s1-1,1.7-1.3c0.7-0.3,1.5-0.5,2.5-0.5c0.9,0,1.7,0.1,2.4,0.4c0.7,0.3,1.3,0.7,1.7,1.3
		c0.4,0.6,0.7,1.2,0.8,1.9c0.1,0.7,0.1,1.9,0.1,3.6V274.1z M149.8,268.6c0-0.8,0-1.3-0.1-1.5c-0.1-0.2-0.3-0.3-0.5-0.3
		c-0.2,0-0.4,0.1-0.5,0.3c-0.1,0.2-0.2,0.7-0.2,1.6v7.8c0,1,0,1.6,0.1,1.8s0.3,0.3,0.6,0.3c0.3,0,0.5-0.1,0.6-0.4
		c0.1-0.3,0.1-0.9,0.1-1.9V268.6z"/>
	<path class="st0" d="M158.1,264.3v1.5c0,0.8-0.1,1.4-0.3,1.9c-0.2,0.5-0.5,0.9-1,1.3c-0.5,0.3-1,0.6-1.6,0.7v-1.2
		c0.4-0.2,0.6-0.5,0.7-0.9h-0.7v-3.3H158.1z"/>
	<path class="st0" d="M166.7,264.3v3.4l-3.3,10.1h3.3v3.4h-8v-2.4l3.4-11h-3v-3.4H166.7z"/>
	<path class="st0" d="M172.2,264.3v16.8h-4.4v-16.8H172.2z"/>
	<path class="st0" d="M183.7,264.3v16.8h-3.8l-2.3-7.6v7.6h-3.7v-16.8h3.7l2.4,7.6v-7.6H183.7z"/>
	<path class="st0" d="M195.4,270.5h-4.4v-1.5c0-1,0-1.6-0.1-1.8c-0.1-0.2-0.3-0.4-0.6-0.4c-0.3,0-0.5,0.1-0.5,0.3
		c-0.1,0.2-0.1,0.7-0.1,1.6v8.1c0,0.8,0,1.2,0.1,1.5c0.1,0.2,0.3,0.4,0.6,0.4c0.3,0,0.5-0.1,0.6-0.4c0.1-0.3,0.2-0.8,0.2-1.6v-2
		h-0.9v-2.6h5.1v9h-2.7l-0.4-1.2c-0.3,0.5-0.7,0.9-1.1,1.2c-0.5,0.3-1,0.4-1.6,0.4c-0.7,0-1.4-0.2-2.1-0.5c-0.6-0.4-1.1-0.8-1.5-1.3
		c-0.3-0.5-0.5-1.1-0.6-1.7c-0.1-0.6-0.1-1.4-0.1-2.6v-5c0-1.6,0.1-2.8,0.3-3.5c0.2-0.7,0.7-1.4,1.5-2c0.8-0.6,1.9-0.9,3.2-0.9
		c1.3,0,2.3,0.3,3.2,0.8c0.8,0.5,1.4,1.2,1.6,1.9c0.3,0.7,0.4,1.8,0.4,3.1V270.5z"/>
	<path class="st0" d="M209.7,264.3v3.4h-2.6v13.4h-4.4v-13.4h-2.6v-3.4H209.7z"/>
	<path class="st0" d="M220.6,264.3v11.2c0,1.3,0,2.2-0.1,2.7c-0.1,0.5-0.3,1-0.7,1.6c-0.4,0.5-0.9,1-1.6,1.2
		c-0.7,0.3-1.5,0.4-2.4,0.4c-1,0-1.9-0.2-2.7-0.5s-1.3-0.8-1.7-1.3c-0.4-0.5-0.6-1.1-0.7-1.7c-0.1-0.6-0.1-1.8-0.1-3.7v-9.9h4.4
		v12.6c0,0.7,0,1.2,0.1,1.4c0.1,0.2,0.2,0.3,0.5,0.3c0.3,0,0.5-0.1,0.5-0.3c0.1-0.2,0.1-0.8,0.1-1.6v-12.4H220.6z"/>
	<path class="st0" d="M231.5,269.4h-4.1v-1.2c0-0.6-0.1-1-0.2-1.1c-0.1-0.2-0.3-0.2-0.5-0.2c-0.3,0-0.5,0.1-0.6,0.3
		c-0.1,0.2-0.2,0.5-0.2,1c0,0.6,0.1,1,0.2,1.3c0.1,0.3,0.6,0.6,1.2,1c1.9,1.2,3.2,2.1,3.7,2.8c0.5,0.7,0.8,1.9,0.8,3.6
		c0,1.2-0.1,2.1-0.4,2.6c-0.3,0.6-0.8,1-1.6,1.4c-0.8,0.4-1.7,0.6-2.8,0.6c-1.2,0-2.2-0.2-3-0.7c-0.8-0.4-1.4-1-1.6-1.7
		c-0.3-0.7-0.4-1.7-0.4-2.9v-1.1h4.1v2c0,0.6,0.1,1,0.2,1.2c0.1,0.2,0.3,0.3,0.6,0.3s0.5-0.1,0.6-0.3c0.1-0.2,0.2-0.6,0.2-1
		c0-1-0.1-1.6-0.4-1.9c-0.3-0.3-1-0.8-2-1.5c-1.1-0.7-1.8-1.2-2.2-1.6c-0.4-0.3-0.6-0.8-0.9-1.3c-0.2-0.6-0.3-1.3-0.3-2.2
		c0-1.3,0.2-2.2,0.5-2.8c0.3-0.6,0.9-1.1,1.6-1.4c0.7-0.3,1.6-0.5,2.7-0.5c1.1,0,2.1,0.2,2.9,0.5c0.8,0.4,1.3,0.8,1.6,1.4
		c0.3,0.6,0.4,1.5,0.4,2.8V269.4z"/>
	<path class="st0" d="M243.3,264.3v16.8h-4.4V274h-1.3v7.1h-4.4v-16.8h4.4v6h1.3v-6H243.3z"/>
	<path class="st0" d="M255,264.3v11.2c0,1.3,0,2.2-0.1,2.7c-0.1,0.5-0.3,1-0.7,1.6c-0.4,0.5-0.9,1-1.6,1.2c-0.7,0.3-1.5,0.4-2.4,0.4
		c-1,0-1.9-0.2-2.7-0.5s-1.3-0.8-1.7-1.3c-0.4-0.5-0.6-1.1-0.7-1.7c-0.1-0.6-0.1-1.8-0.1-3.7v-9.9h4.4v12.6c0,0.7,0,1.2,0.1,1.4
		c0.1,0.2,0.2,0.3,0.5,0.3c0.3,0,0.5-0.1,0.5-0.3c0.1-0.2,0.1-0.8,0.1-1.6v-12.4H255z"/>
	<path class="st0" d="M266.4,264.3v16.8h-3.8l-2.3-7.6v7.6h-3.7v-16.8h3.7l2.4,7.6v-7.6H266.4z"/>
	<path class="st0" d="M272.6,264.3v16.8h-4.4v-16.8H272.6z"/>
	<path class="st0" d="M274.3,264.3h4.4c1.4,0,2.4,0.1,3.1,0.3c0.7,0.2,1.3,0.6,1.7,1.3c0.4,0.7,0.7,1.7,0.7,3.2c0,1-0.2,1.7-0.5,2.1
		s-0.9,0.7-1.8,0.9c1,0.2,1.7,0.6,2.1,1.1c0.4,0.5,0.5,1.3,0.5,2.4v1.6c0,1.1-0.1,2-0.4,2.5c-0.3,0.5-0.7,0.9-1.2,1.1
		c-0.6,0.2-1.7,0.3-3.5,0.3h-5.1V264.3z M278.7,267.1v3.7c0.2,0,0.3,0,0.4,0c0.4,0,0.7-0.1,0.8-0.3c0.1-0.2,0.2-0.8,0.2-1.8
		c0-0.5,0-0.9-0.1-1.1c-0.1-0.2-0.2-0.3-0.4-0.4C279.4,267.2,279.1,267.2,278.7,267.1z M278.7,273.5v4.7c0.6,0,1-0.1,1.2-0.3
		c0.2-0.2,0.3-0.6,0.3-1.3v-1.6c0-0.7-0.1-1.2-0.2-1.3C279.7,273.6,279.3,273.5,278.7,273.5z"/>
</g>
</svg>
